%TF.GenerationSoftware,KiCad,Pcbnew,8.0.5*%
%TF.CreationDate,2024-10-07T22:09:58+02:00*%
%TF.ProjectId,kerstboom,6b657273-7462-46f6-9f6d-2e6b69636164,rev?*%
%TF.SameCoordinates,Original*%
%TF.FileFunction,Soldermask,Top*%
%TF.FilePolarity,Negative*%
%FSLAX46Y46*%
G04 Gerber Fmt 4.6, Leading zero omitted, Abs format (unit mm)*
G04 Created by KiCad (PCBNEW 8.0.5) date 2024-10-07 22:09:58*
%MOMM*%
%LPD*%
G01*
G04 APERTURE LIST*
G04 Aperture macros list*
%AMRoundRect*
0 Rectangle with rounded corners*
0 $1 Rounding radius*
0 $2 $3 $4 $5 $6 $7 $8 $9 X,Y pos of 4 corners*
0 Add a 4 corners polygon primitive as box body*
4,1,4,$2,$3,$4,$5,$6,$7,$8,$9,$2,$3,0*
0 Add four circle primitives for the rounded corners*
1,1,$1+$1,$2,$3*
1,1,$1+$1,$4,$5*
1,1,$1+$1,$6,$7*
1,1,$1+$1,$8,$9*
0 Add four rect primitives between the rounded corners*
20,1,$1+$1,$2,$3,$4,$5,0*
20,1,$1+$1,$4,$5,$6,$7,0*
20,1,$1+$1,$6,$7,$8,$9,0*
20,1,$1+$1,$8,$9,$2,$3,0*%
G04 Aperture macros list end*
%ADD10C,2.200000*%
%ADD11R,1.600000X0.850000*%
%ADD12C,3.200000*%
%ADD13RoundRect,0.250000X-0.450000X0.350000X-0.450000X-0.350000X0.450000X-0.350000X0.450000X0.350000X0*%
%ADD14R,1.016000X1.400000*%
%ADD15RoundRect,0.102000X-0.350000X0.700000X-0.350000X-0.700000X0.350000X-0.700000X0.350000X0.700000X0*%
%ADD16R,1.400000X1.016000*%
%ADD17R,1.270000X1.270000*%
%ADD18C,1.270000*%
%ADD19R,1.700000X1.700000*%
%ADD20O,1.700000X1.700000*%
%ADD21O,2.748280X1.998980*%
G04 APERTURE END LIST*
D10*
%TO.C,H5*%
X101750000Y-81500000D03*
%TD*%
D11*
%TO.C,D1*%
X105500000Y-80620000D03*
X105500000Y-82370000D03*
X109000000Y-82370000D03*
X109000000Y-80620000D03*
%TD*%
%TO.C,D2*%
X105500000Y-88125000D03*
X105500000Y-89875000D03*
X109000000Y-89875000D03*
X109000000Y-88125000D03*
%TD*%
D12*
%TO.C,H4*%
X156750000Y-106000000D03*
%TD*%
D11*
%TO.C,D12*%
X150450000Y-95625000D03*
X150450000Y-97375000D03*
X153950000Y-97375000D03*
X153950000Y-95625000D03*
%TD*%
%TO.C,D4*%
X120500000Y-80625000D03*
X120500000Y-82375000D03*
X124000000Y-82375000D03*
X124000000Y-80625000D03*
%TD*%
%TO.C,D7*%
X135500000Y-80600000D03*
X135500000Y-82350000D03*
X139000000Y-82350000D03*
X139000000Y-80600000D03*
%TD*%
D10*
%TO.C,H6*%
X101750000Y-89000000D03*
%TD*%
D13*
%TO.C,R2*%
X132250000Y-94750000D03*
X132250000Y-96750000D03*
%TD*%
D11*
%TO.C,D5*%
X120500000Y-88050000D03*
X120500000Y-89800000D03*
X124000000Y-89800000D03*
X124000000Y-88050000D03*
%TD*%
D14*
%TO.C,C2*%
X146961000Y-102850000D03*
X148740000Y-102850000D03*
%TD*%
D11*
%TO.C,D11*%
X150450000Y-88125000D03*
X150450000Y-89875000D03*
X153950000Y-89875000D03*
X153950000Y-88125000D03*
%TD*%
D10*
%TO.C,H9*%
X157750000Y-89000000D03*
%TD*%
D14*
%TO.C,C4*%
X125571000Y-102250000D03*
X127350000Y-102250000D03*
%TD*%
D11*
%TO.C,D6*%
X120500000Y-95625000D03*
X120500000Y-97375000D03*
X124000000Y-97375000D03*
X124000000Y-95625000D03*
%TD*%
D15*
%TO.C,U2*%
X131705000Y-105325000D03*
X130435000Y-105325000D03*
X129165000Y-105325000D03*
X127895000Y-105325000D03*
%TD*%
D10*
%TO.C,H10*%
X157750000Y-96500000D03*
%TD*%
D11*
%TO.C,D8*%
X135500000Y-88125000D03*
X135500000Y-89875000D03*
X139000000Y-89875000D03*
X139000000Y-88125000D03*
%TD*%
D12*
%TO.C,H1*%
X102750000Y-72000000D03*
%TD*%
D10*
%TO.C,H8*%
X157700000Y-81500000D03*
%TD*%
D11*
%TO.C,D9*%
X135500000Y-95625000D03*
X135500000Y-97375000D03*
X139000000Y-97375000D03*
X139000000Y-95625000D03*
%TD*%
%TO.C,D3*%
X105500000Y-95650000D03*
X105500000Y-97400000D03*
X109000000Y-97400000D03*
X109000000Y-95650000D03*
%TD*%
D12*
%TO.C,H2*%
X102750000Y-106000000D03*
%TD*%
%TO.C,H3*%
X156750000Y-72000000D03*
%TD*%
D14*
%TO.C,C3*%
X136711000Y-102850000D03*
X138490000Y-102850000D03*
%TD*%
D10*
%TO.C,H7*%
X101750000Y-96500000D03*
%TD*%
D16*
%TO.C,C1*%
X154200000Y-84361000D03*
X154200000Y-86140000D03*
%TD*%
D13*
%TO.C,R1*%
X129300000Y-94750000D03*
X129300000Y-96750000D03*
%TD*%
D14*
%TO.C,C5*%
X114911000Y-102850000D03*
X116690000Y-102850000D03*
%TD*%
D11*
%TO.C,D10*%
X150450000Y-80625000D03*
X150450000Y-82375000D03*
X153950000Y-82375000D03*
X153950000Y-80625000D03*
%TD*%
D17*
%TO.C,J2*%
X132250260Y-100549880D03*
D18*
X134251780Y-100550000D03*
X136248220Y-100550000D03*
X138249740Y-100550000D03*
%TD*%
D19*
%TO.C,JP10*%
X112250000Y-80750000D03*
D20*
X114790000Y-80750000D03*
X117330000Y-80750000D03*
%TD*%
D19*
%TO.C,JP12*%
X112250000Y-88250000D03*
D20*
X114790000Y-88250000D03*
X117330000Y-88250000D03*
%TD*%
D19*
%TO.C,JP1*%
X142210000Y-96500000D03*
D20*
X144750000Y-96500000D03*
X147290000Y-96500000D03*
%TD*%
D19*
%TO.C,J6*%
X150750000Y-72175000D03*
D20*
X150750000Y-74715000D03*
X150750000Y-77255000D03*
%TD*%
D17*
%TO.C,J4*%
X121500000Y-100549880D03*
D18*
X123501520Y-100550000D03*
X125497960Y-100550000D03*
X127499480Y-100550000D03*
%TD*%
D21*
%TO.C,U1*%
X147181290Y-73750000D03*
X147181290Y-76290000D03*
X147181290Y-78830000D03*
X147181290Y-81370000D03*
X147181290Y-83910000D03*
X147181290Y-86450000D03*
X147181290Y-88990000D03*
X130716730Y-88990000D03*
X130716730Y-86450000D03*
X130716730Y-83910000D03*
X130716730Y-81370000D03*
X130716730Y-78830000D03*
X130716730Y-76290000D03*
X130716730Y-73750000D03*
%TD*%
D19*
%TO.C,J5*%
X122950000Y-71000000D03*
D20*
X120410000Y-71000000D03*
X117870000Y-71000000D03*
X115330000Y-71000000D03*
X112790000Y-71000000D03*
X110250000Y-71000000D03*
X107710000Y-71000000D03*
%TD*%
D19*
%TO.C,JP11*%
X112250000Y-84500000D03*
D20*
X114790000Y-84500000D03*
X117330000Y-84500000D03*
%TD*%
D17*
%TO.C,J1*%
X143000260Y-100549880D03*
D18*
X145001780Y-100550000D03*
X146998220Y-100550000D03*
X148999740Y-100550000D03*
%TD*%
D17*
%TO.C,J3*%
X110750520Y-100549880D03*
D18*
X112752040Y-100550000D03*
X114748480Y-100550000D03*
X116750000Y-100550000D03*
%TD*%
D19*
%TO.C,JP13*%
X112210000Y-92000000D03*
D20*
X114750000Y-92000000D03*
X117290000Y-92000000D03*
%TD*%
M02*
