%TF.GenerationSoftware,KiCad,Pcbnew,8.0.5*%
%TF.CreationDate,2024-10-07T22:09:58+02:00*%
%TF.ProjectId,kerstboom,6b657273-7462-46f6-9f6d-2e6b69636164,rev?*%
%TF.SameCoordinates,Original*%
%TF.FileFunction,Other,Comment*%
%FSLAX46Y46*%
G04 Gerber Fmt 4.6, Leading zero omitted, Abs format (unit mm)*
G04 Created by KiCad (PCBNEW 8.0.5) date 2024-10-07 22:09:58*
%MOMM*%
%LPD*%
G01*
G04 APERTURE LIST*
%ADD10C,0.150000*%
G04 APERTURE END LIST*
D10*
%TO.C,H5*%
X103950000Y-81500000D02*
G75*
G02*
X99550000Y-81500000I-2200000J0D01*
G01*
X99550000Y-81500000D02*
G75*
G02*
X103950000Y-81500000I2200000J0D01*
G01*
%TO.C,H4*%
X159500000Y-106000000D02*
G75*
G02*
X154000000Y-106000000I-2750000J0D01*
G01*
X154000000Y-106000000D02*
G75*
G02*
X159500000Y-106000000I2750000J0D01*
G01*
%TO.C,H6*%
X103950000Y-89000000D02*
G75*
G02*
X99550000Y-89000000I-2200000J0D01*
G01*
X99550000Y-89000000D02*
G75*
G02*
X103950000Y-89000000I2200000J0D01*
G01*
%TO.C,H9*%
X159950000Y-89000000D02*
G75*
G02*
X155550000Y-89000000I-2200000J0D01*
G01*
X155550000Y-89000000D02*
G75*
G02*
X159950000Y-89000000I2200000J0D01*
G01*
%TO.C,H10*%
X159950000Y-96500000D02*
G75*
G02*
X155550000Y-96500000I-2200000J0D01*
G01*
X155550000Y-96500000D02*
G75*
G02*
X159950000Y-96500000I2200000J0D01*
G01*
%TO.C,H1*%
X105500000Y-72000000D02*
G75*
G02*
X100000000Y-72000000I-2750000J0D01*
G01*
X100000000Y-72000000D02*
G75*
G02*
X105500000Y-72000000I2750000J0D01*
G01*
%TO.C,H8*%
X159900000Y-81500000D02*
G75*
G02*
X155500000Y-81500000I-2200000J0D01*
G01*
X155500000Y-81500000D02*
G75*
G02*
X159900000Y-81500000I2200000J0D01*
G01*
%TO.C,H2*%
X105500000Y-106000000D02*
G75*
G02*
X100000000Y-106000000I-2750000J0D01*
G01*
X100000000Y-106000000D02*
G75*
G02*
X105500000Y-106000000I2750000J0D01*
G01*
%TO.C,H3*%
X159500000Y-72000000D02*
G75*
G02*
X154000000Y-72000000I-2750000J0D01*
G01*
X154000000Y-72000000D02*
G75*
G02*
X159500000Y-72000000I2750000J0D01*
G01*
%TO.C,H7*%
X103950000Y-96500000D02*
G75*
G02*
X99550000Y-96500000I-2200000J0D01*
G01*
X99550000Y-96500000D02*
G75*
G02*
X103950000Y-96500000I2200000J0D01*
G01*
%TD*%
M02*
