<?xml version="1.0" encoding="UTF-8" standalone="no"?>
<svg
   width="110mm"
   height="258mm"
   viewBox="-55 -278 110 258"
   version="1.1"
   id="svg1"
   sodipodi:docname="Christmas_Tree_base.svg"
   inkscape:version="1.4 (86a8ad7, 2024-10-11)"
   xmlns:inkscape="http://www.inkscape.org/namespaces/inkscape"
   xmlns:sodipodi="http://sodipodi.sourceforge.net/DTD/sodipodi-0.dtd"
   xmlns="http://www.w3.org/2000/svg"
   xmlns:svg="http://www.w3.org/2000/svg"
   xmlns:rdf="http://www.w3.org/1999/02/22-rdf-syntax-ns#"
   xmlns:cc="http://creativecommons.org/ns#"
   xmlns:dc="http://purl.org/dc/elements/1.1/">
  <defs
     id="defs1" />
  <sodipodi:namedview
     id="namedview1"
     pagecolor="#ffffff"
     bordercolor="#000000"
     borderopacity="0.25"
     inkscape:showpageshadow="2"
     inkscape:pageopacity="0.0"
     inkscape:pagecheckerboard="0"
     inkscape:deskcolor="#d1d1d1"
     inkscape:document-units="mm"
     inkscape:zoom="2.3768279"
     inkscape:cx="168.29153"
     inkscape:cy="344.36654"
     inkscape:window-width="3456"
     inkscape:window-height="2036"
     inkscape:window-x="-12"
     inkscape:window-y="-12"
     inkscape:window-maximized="1"
     inkscape:current-layer="svg1" />
  <title
     id="title1">OpenSCAD Model</title>
  <path
     style="fill:none;stroke:#000000;stroke-opacity:1;stroke-width:0.26458333;stroke-dasharray:none"
     d="m -40.05,-22.45 v -3.1 h 20.1 v 3.1 z"
     id="path62" />
  <path
     style="fill:none;stroke:#000000;stroke-opacity:1;stroke-width:0.26458333;stroke-dasharray:none"
     d="m 19.95,-22.45 v -3.1 h 20.1 v 3.1 z"
     id="path61" />
  <path
     style="fill:none;stroke:#000000;stroke-opacity:1;stroke-width:0.26458333;stroke-dasharray:none"
     d="m -37.4682,-28.1461 -0.4502,-0.1366 -0.415,-0.2218 -0.3637,-0.2984 -0.2984,-0.3637 -0.2218,-0.415 -0.1366,-0.4502 -0.0461,-0.4682 0.0461,-0.4682 0.1366,-0.4502 0.2218,-0.415 0.2984,-0.3637 0.3637,-0.2984 0.415,-0.2218 0.4502,-0.1366 L -37,-32.9 l 0.4682,0.0461 0.4502,0.1366 0.415,0.2218 0.3637,0.2984 0.2984,0.3637 0.2218,0.415 0.1366,0.4502 0.0461,0.4682 -0.0461,0.4682 -0.1366,0.4502 -0.2218,0.415 -0.2984,0.3637 -0.3637,0.2984 -0.415,0.2218 -0.4502,0.1366 L -37,-28.1 Z"
     id="path60" />
  <path
     style="fill:none;stroke:#000000;stroke-opacity:1;stroke-width:0.26458333;stroke-dasharray:none"
     d="m 36.5318,-28.1461 -0.4502,-0.1366 -0.415,-0.2218 -0.3637,-0.2984 -0.2984,-0.3637 -0.2218,-0.415 -0.1366,-0.4502 L 34.6,-30.5 l 0.0461,-0.4682 0.1366,-0.4502 0.2218,-0.415 0.2984,-0.3637 0.3637,-0.2984 0.415,-0.2218 0.4502,-0.1366 L 37,-32.9 l 0.4682,0.0461 0.4502,0.1366 0.415,0.2218 0.3637,0.2984 0.2984,0.3637 0.2218,0.415 0.1366,0.4502 0.0461,0.4682 -0.0461,0.4682 -0.1366,0.4502 -0.2218,0.415 -0.2984,0.3637 -0.3637,0.2984 -0.415,0.2218 -0.4502,0.1366 L 37,-28.1 Z"
     id="path59" />
  <path
     style="fill:none;stroke:#000000;stroke-opacity:1;stroke-width:0.26458333;stroke-dasharray:none"
     d="m -48.05,-31.95 v -36.1 h 3.1 v 36.1 z"
     id="path58" />
  <path
     style="fill:none;stroke:#000000;stroke-opacity:1;stroke-width:0.26458333;stroke-dasharray:none"
     d="m 44.95,-31.95 v -36.1 h 3.1 v 36.1 z"
     id="path57" />
  <path
     style="fill:none;stroke:#000000;stroke-opacity:1;stroke-width:0.26458333;stroke-dasharray:none"
     d="m -37.4682,-67.1461 -0.4502,-0.1366 -0.415,-0.2218 -0.3637,-0.2984 -0.2984,-0.3637 -0.2218,-0.415 -0.1366,-0.4502 -0.0461,-0.4682 0.0461,-0.4682 0.1366,-0.4502 0.2218,-0.415 0.2984,-0.3637 0.3637,-0.2984 0.415,-0.2218 0.4502,-0.1366 L -37,-71.9 l 0.4682,0.0461 0.4502,0.1366 0.415,0.2218 0.3637,0.2984 0.2984,0.3637 0.2218,0.415 0.1366,0.4502 0.0461,0.4682 -0.0461,0.4682 -0.1366,0.4502 -0.2218,0.415 -0.2984,0.3637 -0.3637,0.2984 -0.415,0.2218 -0.4502,0.1366 L -37,-67.1 Z"
     id="path56" />
  <path
     style="fill:none;stroke:#000000;stroke-opacity:1;stroke-width:0.26458333;stroke-dasharray:none"
     d="m 36.5318,-67.1461 -0.4502,-0.1366 -0.415,-0.2218 -0.3637,-0.2984 -0.2984,-0.3637 -0.2218,-0.415 -0.1366,-0.4502 L 34.6,-69.5 l 0.0461,-0.4682 0.1366,-0.4502 0.2218,-0.415 0.2984,-0.3637 0.3637,-0.2984 0.415,-0.2218 0.4502,-0.1366 L 37,-71.9 l 0.4682,0.0461 0.4502,0.1366 0.415,0.2218 0.3637,0.2984 0.2984,0.3637 0.2218,0.415 0.1366,0.4502 0.0461,0.4682 -0.0461,0.4682 -0.1366,0.4502 -0.2218,0.415 -0.2984,0.3637 -0.3637,0.2984 -0.415,0.2218 -0.4502,0.1366 L 37,-67.1 Z"
     id="path55" />
  <path
     style="fill:none;stroke:#000000;stroke-opacity:1;stroke-width:0.26458333;stroke-dasharray:none"
     d="m 19.95,-74.45 v -3.1 h 20.1 v 3.1 z"
     id="path54" />
  <path
     style="fill:none;stroke:#000000;stroke-opacity:1;stroke-width:0.26458333;stroke-dasharray:none"
     d="m -40.05,-74.45 v -3.1 h 20.1 v 3.1 z"
     id="path53" />
  <path
     style="fill:none;stroke:#000000;stroke-opacity:1;stroke-width:0.26458333;stroke-dasharray:none"
     d="m 52.9877,-20.048 0.469,-0.1423 0.4322,-0.231 0.3789,-0.3109 0.3109,-0.3789 0.231,-0.4322 0.1423,-0.469 L 55,-22.5 v -55 l -0.048,-0.4877 -0.1423,-0.469 -0.231,-0.4322 -0.3109,-0.3789 -0.3789,-0.3109 -0.4322,-0.231 -0.469,-0.1423 L 52.5,-80 h -105 l -0.4877,0.048 -0.469,0.1423 -0.4322,0.231 -0.3789,0.3109 -0.3109,0.3789 -0.231,0.4322 -0.1423,0.469 L -55,-77.5 v 55 l 0.048,0.4877 0.1423,0.469 0.231,0.4322 0.3109,0.3789 0.3789,0.3109 0.4322,0.231 0.469,0.1423 L -52.5,-20 h 105 z"
     id="path52" />
  <path
     style="fill:none;stroke:#000000;stroke-opacity:1;stroke-width:0.26458333;stroke-dasharray:none"
     d="m 36.7269,-91.1269 -0.2627,-0.0797 -0.242,-0.1294 -0.2122,-0.1741 -0.1741,-0.2121 -0.1293,-0.242 -0.0797,-0.2627 L 35.6,-92.5 l 0.0269,-0.2731 0.0797,-0.2627 0.1293,-0.242 0.1741,-0.2122 0.2122,-0.1741 0.242,-0.1293 0.2627,-0.0797 L 37,-93.9 l 0.2731,0.0269 0.2627,0.0797 0.242,0.1293 0.2121,0.1741 0.1741,0.2122 0.1294,0.242 0.0797,0.2627 0.0269,0.2731 -0.0269,0.2731 -0.0797,0.2627 -0.1294,0.242 -0.1741,0.2121 -0.2121,0.1741 -0.242,0.1294 -0.2627,0.0797 L 37,-91.1 Z"
     id="path51" />
  <path
     style="fill:none;stroke:#000000;stroke-opacity:1;stroke-width:0.26458333;stroke-dasharray:none"
     d="m -37.2731,-91.1269 -0.2627,-0.0797 -0.242,-0.1294 -0.2121,-0.1741 -0.1741,-0.2121 -0.1294,-0.242 -0.0797,-0.2627 -0.0269,-0.2731 0.0269,-0.2731 0.0797,-0.2627 0.1294,-0.242 0.1741,-0.2122 0.2121,-0.1741 0.242,-0.1293 0.2627,-0.0797 L -37,-93.9 l 0.2731,0.0269 0.2627,0.0797 0.242,0.1293 0.2122,0.1741 0.1741,0.2122 0.1293,0.242 0.0797,0.2627 0.0269,0.2731 -0.0269,0.2731 -0.0797,0.2627 -0.1293,0.242 -0.1741,0.2121 -0.2122,0.1741 -0.242,0.1294 -0.2627,0.0797 L -37,-91.1 Z"
     id="path50" />
  <path
     style="fill:none;stroke:#000000;stroke-opacity:1;stroke-width:0.26458333;stroke-dasharray:none"
     d="m -50.05,-108.2 v -3.1 h 100.1 v 3.1 z"
     id="path49" />
  <path
     style="fill:none;stroke:#000000;stroke-opacity:1;stroke-width:0.26458333;stroke-dasharray:none"
     d="m -50.05,-115.625 v -3.1 h 100.1 v 3.1 z"
     id="path48" />
  <path
     style="fill:none;stroke:#000000;stroke-opacity:1;stroke-width:0.26458333;stroke-dasharray:none"
     d="m -50.05,-123.125 v -3.1 h 100.1 v 3.1 z"
     id="path47" />
  <path
     style="fill:none;stroke:#000000;stroke-opacity:1;stroke-width:0.26458333;stroke-dasharray:none"
     d="m -37.2731,-130.127 -0.2627,-0.08 -0.242,-0.129 -0.2121,-0.174 -0.1741,-0.212 -0.1294,-0.242 -0.0797,-0.263 -0.0269,-0.273 0.0269,-0.273 0.0797,-0.263 0.1294,-0.242 0.1741,-0.212 0.2121,-0.174 0.242,-0.129 0.2627,-0.08 0.2731,-0.027 0.2731,0.027 0.2627,0.08 0.242,0.129 0.2122,0.174 0.1741,0.212 0.1293,0.242 0.0797,0.263 0.0269,0.273 -0.0269,0.273 -0.0797,0.263 -0.1293,0.242 -0.1741,0.212 -0.2122,0.174 -0.242,0.129 -0.2627,0.08 L -37,-130.1 Z"
     id="path46" />
  <path
     style="fill:none;stroke:#000000;stroke-opacity:1;stroke-width:0.26458333;stroke-dasharray:none"
     d="m 36.7269,-130.127 -0.2627,-0.08 -0.242,-0.129 -0.2122,-0.174 -0.1741,-0.212 -0.1293,-0.242 -0.0797,-0.263 -0.0269,-0.273 0.0269,-0.273 0.0797,-0.263 0.1293,-0.242 0.1741,-0.212 0.2122,-0.174 0.242,-0.129 0.2627,-0.08 0.2731,-0.027 0.2731,0.027 0.2627,0.08 0.242,0.129 0.2121,0.174 0.1741,0.212 0.1294,0.242 0.0797,0.263 0.0269,0.273 -0.0269,0.273 -0.0797,0.263 -0.1294,0.242 -0.1741,0.212 -0.2121,0.174 -0.242,0.129 -0.2627,0.08 L 37,-130.1 Z"
     id="path45" />
  <path
     style="fill:none;stroke:#000000;stroke-opacity:1;stroke-width:0.26458333;stroke-dasharray:none"
     d="m 52.9877,-82.048 0.469,-0.1423 0.4322,-0.231 0.3789,-0.3109 0.3109,-0.3789 0.231,-0.4322 0.1423,-0.469 L 55,-84.5 v -55 l -0.048,-0.488 -0.1423,-0.469 -0.231,-0.432 -0.3109,-0.379 -0.3789,-0.311 -0.4322,-0.231 -0.469,-0.142 L 52.5,-142 h -105 l -0.4877,0.048 -0.469,0.142 -0.4322,0.231 -0.3789,0.311 -0.3109,0.379 -0.231,0.432 -0.1423,0.469 -0.048,0.488 v 55 l 0.048,0.4877 0.1423,0.469 0.231,0.4322 0.3109,0.3789 0.3789,0.3109 0.4322,0.231 0.469,0.1423 L -52.5,-82 h 105 z"
     id="path44" />
  <path
     style="fill:none;stroke:#000000;stroke-opacity:1;stroke-width:0.26458333;stroke-dasharray:none"
     d="M 44.95,-177.625 H 40 v 4.325 h 4.95 z"
     id="path43" />
  <path
     style="fill:none;stroke:#000000;stroke-opacity:1;stroke-width:0.26458333;stroke-dasharray:none"
     d="m -40,-177.625 h -4.95 v 4.325 H -40 Z"
     id="path42" />
  <path
     style="fill:none;stroke:#000000;stroke-opacity:1;stroke-width:0.26458333;stroke-dasharray:none"
     d="M 44.95,-185.125 H 40 v 4.4 h 4.95 z"
     id="path41" />
  <path
     style="fill:none;stroke:#000000;stroke-opacity:1;stroke-width:0.26458333;stroke-dasharray:none"
     d="m -40,-185.125 h -4.95 v 4.4 H -40 Z"
     id="path40" />
  <path
     style="fill:none;stroke:#000000;stroke-width:0.264583;stroke-dasharray:none;stroke-opacity:1"
     d="m 17.666046,-171.56775 h 6.45 v -10.05 h 3.1 v 10.05 h 2.45 v -20 h -12 v -3 h -3.625 v 19.5 h -3.4 v -19.5 H 6.5410465 v 19.5 h -3.40001 v -19.5 h -4.024978 v 19.5 h -3.400012 v -19.5 H -18.333954 v 3 h -12 v 20 h 2.45 v -10.05 h 3.1 v 10.05 h 6.45 v 3 h 36 z"
     id="path39" />
  <path
     d="m 20.710266,-161.13604 1.58772,-2.75 h 7.4131 l -0.19624,-0.5 -1.20804,-1.51484 -1.60087,-1.09146 -1.85148,-0.57111 h -1.93753 l -1.85147,0.57111 -1.60087,1.09146 -1.12174,1.40662 h -1.4432 l -18.9545523,0.77407 -1.441,1.20915 -0.3266,1.85252 0.9405,1.62909 1.7677,0.64339 19.0000023,0.75 0.51219,-0.15039 0.40592,0.70306 1.42031,1.31787 1.74569,0.84067 1.91589,0.28879 1.91589,-0.28879 1.74569,-0.84067 1.42031,-1.31787 0.75211,-1.30267 h -7.42171 z"
     stroke="#000000"
     fill="lightgray"
     stroke-width="0.5"
     id="path1-4"
     style="fill:none;stroke-width:0.264583;stroke-dasharray:none" />
  <path
     style="fill:none;stroke:#000000;stroke-opacity:1;stroke-width:0.26458333;stroke-dasharray:none"
     d="m 36.7269,-153.127 -0.2627,-0.08 -0.242,-0.129 -0.2122,-0.174 -0.1741,-0.212 -0.1293,-0.242 -0.0797,-0.263 -0.0269,-0.273 0.0269,-0.273 0.0797,-0.263 0.1293,-0.242 0.1741,-0.212 0.2122,-0.174 0.242,-0.129 0.2627,-0.08 0.2731,-0.027 0.2731,0.027 0.2627,0.08 0.242,0.129 0.2121,0.174 0.1741,0.212 0.1294,0.242 0.0797,0.263 0.0269,0.273 -0.0269,0.273 -0.0797,0.263 -0.1294,0.242 -0.1741,0.212 -0.2121,0.174 -0.242,0.129 -0.2627,0.08 L 37,-153.1 Z"
     id="path38" />
  <path
     style="fill:none;stroke:#000000;stroke-opacity:1;stroke-width:0.26458333;stroke-dasharray:none"
     d="m -37.2731,-153.127 -0.2627,-0.08 -0.242,-0.129 -0.2121,-0.174 -0.1741,-0.212 -0.1294,-0.242 -0.0797,-0.263 -0.0269,-0.273 0.0269,-0.273 0.0797,-0.263 0.1294,-0.242 0.1741,-0.212 0.2121,-0.174 0.242,-0.129 0.2627,-0.08 0.2731,-0.027 0.2731,0.027 0.2627,0.08 0.242,0.129 0.2122,0.174 0.1741,0.212 0.1293,0.242 0.0797,0.263 0.0269,0.273 -0.0269,0.273 -0.0797,0.263 -0.1293,0.242 -0.1741,0.212 -0.2122,0.174 -0.242,0.129 -0.2627,0.08 L -37,-153.1 Z"
     id="path37" />
  <path
     style="fill:none;stroke:#000000;stroke-opacity:1;stroke-width:0.26458333;stroke-dasharray:none"
     d="m 36.7269,-192.127 -0.2627,-0.08 -0.242,-0.129 -0.2122,-0.174 -0.1741,-0.212 -0.1293,-0.242 -0.0797,-0.263 -0.0269,-0.273 0.0269,-0.273 0.0797,-0.263 0.1293,-0.242 0.1741,-0.212 0.2122,-0.174 0.242,-0.129 0.2627,-0.08 0.2731,-0.027 0.2731,0.027 0.2627,0.08 0.242,0.129 0.2121,0.174 0.1741,0.212 0.1294,0.242 0.0797,0.263 0.0269,0.273 -0.0269,0.273 -0.0797,0.263 -0.1294,0.242 -0.1741,0.212 -0.2121,0.174 -0.242,0.129 -0.2627,0.08 L 37,-192.1 Z"
     id="path36" />
  <path
     style="fill:none;stroke:#000000;stroke-opacity:1;stroke-width:0.26458333;stroke-dasharray:none"
     d="m -37.2731,-192.127 -0.2627,-0.08 -0.242,-0.129 -0.2121,-0.174 -0.1741,-0.212 -0.1294,-0.242 -0.0797,-0.263 -0.0269,-0.273 0.0269,-0.273 0.0797,-0.263 0.1294,-0.242 0.1741,-0.212 0.2121,-0.174 0.242,-0.129 0.2627,-0.08 0.2731,-0.027 0.2731,0.027 0.2627,0.08 0.242,0.129 0.2122,0.174 0.1741,0.212 0.1293,0.242 0.0797,0.263 0.0269,0.273 -0.0269,0.273 -0.0797,0.263 -0.1293,0.242 -0.1741,0.212 -0.2122,0.174 -0.242,0.129 -0.2627,0.08 L -37,-192.1 Z"
     id="path35" />
  <path
     style="fill:none;stroke:#000000;stroke-opacity:1;stroke-width:0.26458333;stroke-dasharray:none"
     d="m -40.05,-198.45 v -3.1 h 20.1 v 3.1 z"
     id="path34" />
  <path
     style="fill:none;stroke:#000000;stroke-opacity:1;stroke-width:0.26458333;stroke-dasharray:none"
     d="m 19.95,-198.45 v -3.1 h 20.1 v 3.1 z"
     id="path33" />
  <path
     style="fill:none;stroke:#000000;stroke-opacity:1;stroke-width:0.26458333;stroke-dasharray:none"
     d="m 52.9877,-144.048 0.469,-0.142 0.4322,-0.231 0.3789,-0.311 0.3109,-0.379 0.231,-0.432 0.1423,-0.469 L 55,-146.5 v -55 l -0.048,-0.488 -0.1423,-0.469 -0.231,-0.432 -0.3109,-0.379 -0.3789,-0.311 -0.4322,-0.231 -0.469,-0.142 L 52.5,-204 H 4 v 7.5 h 31.2236 l -0.1681,0.09 -0.5304,0.435 -0.4353,0.531 -0.3234,0.605 -0.1992,0.656 -0.0672,0.683 0.0672,0.683 0.1992,0.656 0.3234,0.606 0.4353,0.53 0.5304,0.435 0.6051,0.324 0.6566,0.199 L 37,-190 l 0.6828,-0.067 0.6566,-0.199 0.6051,-0.324 0.5304,-0.435 0.4352,-0.53 0.0899,-0.169 v 3.499 h 4.95 v -3.825 h 3.1 v 3.825 h 2 v 3.1 h -2 v 4.4 h 2 v 3.1 h -2 v 4.325 h 2 v 3.1 h -2 v 14.25 h -3.1 V -170.2 H 40 v 13.924 l -0.0899,-0.169 -0.4352,-0.53 -0.5304,-0.435 -0.6051,-0.324 -0.6566,-0.199 L 37,-158 l -0.6828,0.067 -0.6566,0.199 -0.6051,0.324 -0.5304,0.435 -0.4353,0.53 -0.3234,0.606 -0.1992,0.656 -0.0672,0.683 0.0672,0.683 0.1992,0.656 0.3234,0.605 0.4353,0.531 0.5304,0.435 0.1681,0.09 h -70.4472 l 0.1681,-0.09 0.5304,-0.435 0.4353,-0.531 0.3234,-0.605 0.1992,-0.656 0.0672,-0.683 -0.0672,-0.683 -0.1992,-0.656 -0.3234,-0.606 -0.4353,-0.53 -0.5304,-0.435 -0.6051,-0.324 -0.6566,-0.199 L -37,-158 l -0.6828,0.067 -0.6566,0.199 -0.6051,0.324 -0.5304,0.435 -0.4352,0.53 -0.0899,0.169 V -170.2 h -4.95 v 14.25 h -3.1 v -14.25 h -2 v -3.1 h 2 v -4.325 h -2 v -3.1 h 2 v -4.4 h -2 v -3.1 h 2 v -3.825 h 3.1 v 3.825 H -40 v -3.499 l 0.0899,0.169 0.4352,0.53 0.5304,0.435 0.6051,0.324 0.6566,0.199 0.6828,0.067 0.6828,-0.067 0.6566,-0.199 0.6051,-0.324 0.5304,-0.435 0.4353,-0.53 0.3234,-0.606 0.1992,-0.656 0.0672,-0.683 -0.0672,-0.683 -0.1992,-0.656 -0.3234,-0.605 -0.4353,-0.531 -0.5304,-0.435 -0.1681,-0.09 H -4 v -7.5 h -48.5 l -0.4877,0.048 -0.469,0.142 -0.4322,0.231 -0.3789,0.311 -0.3109,0.379 -0.231,0.432 -0.1423,0.469 -0.048,0.488 v 55 l 0.048,0.488 0.1423,0.469 0.231,0.432 0.3109,0.379 0.3789,0.311 0.4322,0.231 0.469,0.142 0.4877,0.048 h 105 z"
     id="path32" />
  <path
     style="fill:none;stroke:#000000;stroke-opacity:1;stroke-width:0.26458333;stroke-dasharray:none"
     d="m -20,-210 h 40 v 3 h 20 v -3 h 15 v -20 h -6.95 v 10.05 h -3.1 V -230 H 40 v -3 H 20 v 3 h -40 v -3 h -20 v 3 h -4.95 v 10.05 h -3.1 V -230 H -55 v 20 h 15 v 3 h 20 z"
     id="path31" />
  <path
     style="fill:none;stroke:#000000;stroke-opacity:1;stroke-width:0.26458333;stroke-dasharray:none"
     d="m -20,-240 h 40 v 3 h 20 v -3 h 15 v -20 h -6.95 v 10.05 h -3.1 V -250 H 14.5 v 6 h -15 v -6 h -44.45 v 0.05 h -3.1 V -260 H -55 v 20 h 15 v 3 h 20 z"
     id="path2" />
  <path
     style="fill:none;stroke:#000000;stroke-opacity:1;stroke-width:0.26458333;stroke-dasharray:none"
     d="m 18,-255 h 6.45 v -10.05 h 3.1 V -255 H 30 v -20 H 18 v -3 h -3.625 v 19.5 h -3.4 V -278 h -4.1 v 19.5 H 3.47499 V -278 h -4.024978 v 19.5 H -3.95 V -278 H -18 v 3 h -12 v 20 h 2.45 v -10.05 h 3.1 V -255 H -18 v 3 h 36 z"
     id="path1" />
  <metadata
     id="metadata1">
    <rdf:RDF>
      <cc:Work
         rdf:about="">
        <dc:title>OpenSCAD Model</dc:title>
      </cc:Work>
    </rdf:RDF>
  </metadata>
  <text
     xml:space="preserve"
     style="font-size:3.175px;line-height:2.3;font-family:'Comic Sans MS';-inkscape-font-specification:'Comic Sans MS';fill:#ff0000;fill-opacity:1;stroke:#ff0000;stroke-width:0.264583;stroke-dasharray:none;stroke-opacity:1"
     x="25.649769"
     y="-242.93488"
     id="text62"><tspan
       sodipodi:role="line"
       id="tspan62"
       style="font-size:3.175px;stroke-width:0.264583"
       x="25.649769"
       y="-242.93488">Serial</tspan></text>
  <text
     xml:space="preserve"
     style="font-size:3.175px;line-height:2.3;font-family:'Comic Sans MS';-inkscape-font-specification:'Comic Sans MS';fill:#ff0000;fill-opacity:1;stroke:#ff0000;stroke-width:0.264583;stroke-dasharray:none;stroke-opacity:1"
     x="-9.8946342"
     y="-242.89767"
     id="text62-3"><tspan
       sodipodi:role="line"
       id="tspan62-5"
       style="font-size:3.175px;stroke-width:0.264583"
       x="-9.8946342"
       y="-242.89767">I2C</tspan></text>
  <g
     id="g1"
     transform="translate(-56.869098,0.07710459)">
    <text
       xml:space="preserve"
       style="font-size:3.175px;line-height:2.3;font-family:'Comic Sans MS';-inkscape-font-specification:'Comic Sans MS';fill:#ff0000;fill-opacity:1;stroke:#ff0000;stroke-width:0.264583;stroke-dasharray:none;stroke-opacity:1"
       x="33.587276"
       y="-242.93488"
       id="text62-2"><tspan
         sodipodi:role="line"
         id="tspan62-9"
         style="font-size:3.175px;stroke-width:0.264583"
         x="33.587276"
         y="-242.93488">ad2-3</tspan></text>
    <text
       xml:space="preserve"
       style="font-size:3.175px;line-height:2.3;font-family:'Comic Sans MS';-inkscape-font-specification:'Comic Sans MS';fill:#ff0000;fill-opacity:1;stroke:#ff0000;stroke-width:0.264583;stroke-dasharray:none;stroke-opacity:1"
       x="21.972551"
       y="-242.97224"
       id="text62-2-3"><tspan
         sodipodi:role="line"
         id="tspan62-9-7"
         style="font-size:3.175px;stroke-width:0.264583"
         x="21.972551"
         y="-242.97224">ad0-1</tspan><tspan
         sodipodi:role="line"
         style="font-size:3.175px;stroke-width:0.264583"
         x="21.972551"
         y="-235.66974"
         id="tspan63" /></text>
  </g>
</svg>
