<?xml version="1.0" standalone="no"?>
<!DOCTYPE svg PUBLIC "-//W3C//DTD SVG 1.1//EN" "http://www.w3.org/Graphics/SVG/1.1/DTD/svg11.dtd">
<svg width="110mm" height="258mm" viewBox="-55 -278 110 258" xmlns="http://www.w3.org/2000/svg" version="1.1">
<title>OpenSCAD Model</title>
<path d="
M 18,-255 L 24.45,-255 L 24.45,-265.05 L 27.55,-265.05 L 27.55,-255 L 30,-255
 L 30,-275 L 18,-275 L 18,-278 L 14.375,-278 L 14.375,-258.5 L 10.975,-258.5
 L 10.975,-278 L 6.875,-278 L 6.875,-258.5 L 3.47499,-258.5 L 3.47499,-278 L -0.549988,-278
 L -0.549988,-258.5 L -3.95,-258.5 L -3.95,-278 L -18,-278 L -18,-275 L -30,-275
 L -30,-255 L -27.55,-255 L -27.55,-265.05 L -24.45,-265.05 L -24.45,-255 L -18,-255
 L -18,-252 L 18,-252 z
M -20,-240 L 20,-240 L 20,-237 L 40,-237 L 40,-240 L 55,-240
 L 55,-260 L 48.05,-260 L 48.05,-249.95 L 44.95,-249.95 L 44.95,-250 L 14.5,-250
 L 14.5,-244 L -0.5,-244 L -0.5,-250 L -44.95,-250 L -44.95,-249.95 L -48.05,-249.95
 L -48.05,-260 L -55,-260 L -55,-240 L -40,-240 L -40,-237 L -20,-237
 z
M -20,-210 L 20,-210 L 20,-207 L 40,-207 L 40,-210 L 55,-210
 L 55,-230 L 48.05,-230 L 48.05,-219.95 L 44.95,-219.95 L 44.95,-230 L 40,-230
 L 40,-233 L 20,-233 L 20,-230 L -20,-230 L -20,-233 L -40,-233
 L -40,-230 L -44.95,-230 L -44.95,-219.95 L -48.05,-219.95 L -48.05,-230 L -55,-230
 L -55,-210 L -40,-210 L -40,-207 L -20,-207 z
M 52.9877,-144.048 L 53.4567,-144.19 L 53.8889,-144.421 L 54.2678,-144.732 L 54.5787,-145.111 L 54.8097,-145.543
 L 54.952,-146.012 L 55,-146.5 L 55,-201.5 L 54.952,-201.988 L 54.8097,-202.457 L 54.5787,-202.889
 L 54.2678,-203.268 L 53.8889,-203.579 L 53.4567,-203.81 L 52.9877,-203.952 L 52.5,-204 L 4,-204
 L 4,-196.5 L 35.2236,-196.5 L 35.0555,-196.41 L 34.5251,-195.975 L 34.0898,-195.444 L 33.7664,-194.839
 L 33.5672,-194.183 L 33.5,-193.5 L 33.5672,-192.817 L 33.7664,-192.161 L 34.0898,-191.555 L 34.5251,-191.025
 L 35.0555,-190.59 L 35.6606,-190.266 L 36.3172,-190.067 L 37,-190 L 37.6828,-190.067 L 38.3394,-190.266
 L 38.9445,-190.59 L 39.4749,-191.025 L 39.9101,-191.555 L 40,-191.724 L 40,-188.225 L 44.95,-188.225
 L 44.95,-192.05 L 48.05,-192.05 L 48.05,-188.225 L 50.05,-188.225 L 50.05,-185.125 L 48.05,-185.125
 L 48.05,-180.725 L 50.05,-180.725 L 50.05,-177.625 L 48.05,-177.625 L 48.05,-173.3 L 50.05,-173.3
 L 50.05,-170.2 L 48.05,-170.2 L 48.05,-155.95 L 44.95,-155.95 L 44.95,-170.2 L 40,-170.2
 L 40,-156.276 L 39.9101,-156.445 L 39.4749,-156.975 L 38.9445,-157.41 L 38.3394,-157.734 L 37.6828,-157.933
 L 37,-158 L 36.3172,-157.933 L 35.6606,-157.734 L 35.0555,-157.41 L 34.5251,-156.975 L 34.0898,-156.445
 L 33.7664,-155.839 L 33.5672,-155.183 L 33.5,-154.5 L 33.5672,-153.817 L 33.7664,-153.161 L 34.0898,-152.556
 L 34.5251,-152.025 L 35.0555,-151.59 L 35.2236,-151.5 L -35.2236,-151.5 L -35.0555,-151.59 L -34.5251,-152.025
 L -34.0898,-152.556 L -33.7664,-153.161 L -33.5672,-153.817 L -33.5,-154.5 L -33.5672,-155.183 L -33.7664,-155.839
 L -34.0898,-156.445 L -34.5251,-156.975 L -35.0555,-157.41 L -35.6606,-157.734 L -36.3172,-157.933 L -37,-158
 L -37.6828,-157.933 L -38.3394,-157.734 L -38.9445,-157.41 L -39.4749,-156.975 L -39.9101,-156.445 L -40,-156.276
 L -40,-170.2 L -44.95,-170.2 L -44.95,-155.95 L -48.05,-155.95 L -48.05,-170.2 L -50.05,-170.2
 L -50.05,-173.3 L -48.05,-173.3 L -48.05,-177.625 L -50.05,-177.625 L -50.05,-180.725 L -48.05,-180.725
 L -48.05,-185.125 L -50.05,-185.125 L -50.05,-188.225 L -48.05,-188.225 L -48.05,-192.05 L -44.95,-192.05
 L -44.95,-188.225 L -40,-188.225 L -40,-191.724 L -39.9101,-191.555 L -39.4749,-191.025 L -38.9445,-190.59
 L -38.3394,-190.266 L -37.6828,-190.067 L -37,-190 L -36.3172,-190.067 L -35.6606,-190.266 L -35.0555,-190.59
 L -34.5251,-191.025 L -34.0898,-191.555 L -33.7664,-192.161 L -33.5672,-192.817 L -33.5,-193.5 L -33.5672,-194.183
 L -33.7664,-194.839 L -34.0898,-195.444 L -34.5251,-195.975 L -35.0555,-196.41 L -35.2236,-196.5 L -4,-196.5
 L -4,-204 L -52.5,-204 L -52.9877,-203.952 L -53.4567,-203.81 L -53.8889,-203.579 L -54.2678,-203.268
 L -54.5787,-202.889 L -54.8097,-202.457 L -54.952,-201.988 L -55,-201.5 L -55,-146.5 L -54.952,-146.012
 L -54.8097,-145.543 L -54.5787,-145.111 L -54.2678,-144.732 L -53.8889,-144.421 L -53.4567,-144.19 L -52.9877,-144.048
 L -52.5,-144 L 52.5,-144 z
M 19.95,-198.45 L 19.95,-201.55 L 40.05,-201.55 L 40.05,-198.45 z
M -40.05,-198.45 L -40.05,-201.55 L -19.95,-201.55 L -19.95,-198.45 z
M 36.7269,-192.127 L 36.4642,-192.207 L 36.2222,-192.336 L 36.01,-192.51 L 35.8359,-192.722 L 35.7066,-192.964
 L 35.6269,-193.227 L 35.6,-193.5 L 35.6269,-193.773 L 35.7066,-194.036 L 35.8359,-194.278 L 36.01,-194.49
 L 36.2222,-194.664 L 36.4642,-194.793 L 36.7269,-194.873 L 37,-194.9 L 37.2731,-194.873 L 37.5358,-194.793
 L 37.7778,-194.664 L 37.9899,-194.49 L 38.164,-194.278 L 38.2934,-194.036 L 38.3731,-193.773 L 38.4,-193.5
 L 38.3731,-193.227 L 38.2934,-192.964 L 38.164,-192.722 L 37.9899,-192.51 L 37.7778,-192.336 L 37.5358,-192.207
 L 37.2731,-192.127 L 37,-192.1 z
M -37.2731,-192.127 L -37.5358,-192.207 L -37.7778,-192.336 L -37.9899,-192.51 L -38.164,-192.722 L -38.2934,-192.964
 L -38.3731,-193.227 L -38.4,-193.5 L -38.3731,-193.773 L -38.2934,-194.036 L -38.164,-194.278 L -37.9899,-194.49
 L -37.7778,-194.664 L -37.5358,-194.793 L -37.2731,-194.873 L -37,-194.9 L -36.7269,-194.873 L -36.4642,-194.793
 L -36.2222,-194.664 L -36.01,-194.49 L -35.8359,-194.278 L -35.7066,-194.036 L -35.6269,-193.773 L -35.6,-193.5
 L -35.6269,-193.227 L -35.7066,-192.964 L -35.8359,-192.722 L -36.01,-192.51 L -36.2222,-192.336 L -36.4642,-192.207
 L -36.7269,-192.127 L -37,-192.1 z
M -37.2731,-153.127 L -37.5358,-153.207 L -37.7778,-153.336 L -37.9899,-153.51 L -38.164,-153.722 L -38.2934,-153.964
 L -38.3731,-154.227 L -38.4,-154.5 L -38.3731,-154.773 L -38.2934,-155.036 L -38.164,-155.278 L -37.9899,-155.49
 L -37.7778,-155.664 L -37.5358,-155.793 L -37.2731,-155.873 L -37,-155.9 L -36.7269,-155.873 L -36.4642,-155.793
 L -36.2222,-155.664 L -36.01,-155.49 L -35.8359,-155.278 L -35.7066,-155.036 L -35.6269,-154.773 L -35.6,-154.5
 L -35.6269,-154.227 L -35.7066,-153.964 L -35.8359,-153.722 L -36.01,-153.51 L -36.2222,-153.336 L -36.4642,-153.207
 L -36.7269,-153.127 L -37,-153.1 z
M 36.7269,-153.127 L 36.4642,-153.207 L 36.2222,-153.336 L 36.01,-153.51 L 35.8359,-153.722 L 35.7066,-153.964
 L 35.6269,-154.227 L 35.6,-154.5 L 35.6269,-154.773 L 35.7066,-155.036 L 35.8359,-155.278 L 36.01,-155.49
 L 36.2222,-155.664 L 36.4642,-155.793 L 36.7269,-155.873 L 37,-155.9 L 37.2731,-155.873 L 37.5358,-155.793
 L 37.7778,-155.664 L 37.9899,-155.49 L 38.164,-155.278 L 38.2934,-155.036 L 38.3731,-154.773 L 38.4,-154.5
 L 38.3731,-154.227 L 38.2934,-153.964 L 38.164,-153.722 L 37.9899,-153.51 L 37.7778,-153.336 L 37.5358,-153.207
 L 37.2731,-153.127 L 37,-153.1 z
M 18,-165 L 24.45,-165 L 24.45,-175.05 L 27.55,-175.05 L 27.55,-165 L 30,-165
 L 30,-185 L 18,-185 L 18,-188 L 14.375,-188 L 14.375,-168.5 L 10.975,-168.5
 L 10.975,-188 L 6.875,-188 L 6.875,-168.5 L 3.47499,-168.5 L 3.47499,-188 L -0.549988,-188
 L -0.549988,-168.5 L -3.95,-168.5 L -3.95,-188 L -18,-188 L -18,-185 L -30,-185
 L -30,-165 L -27.55,-165 L -27.55,-175.05 L -24.45,-175.05 L -24.45,-165 L -18,-165
 L -18,-162 L 18,-162 z
M 44.95,-185.125 L 40,-185.125 L 40,-180.725 L 44.95,-180.725 z
M -40,-185.125 L -44.95,-185.125 L -44.95,-180.725 L -40,-180.725 z
M 44.95,-177.625 L 40,-177.625 L 40,-173.3 L 44.95,-173.3 z
M -40,-177.625 L -44.95,-177.625 L -44.95,-173.3 L -40,-173.3 z
M 52.9877,-82.048 L 53.4567,-82.1903 L 53.8889,-82.4213 L 54.2678,-82.7322 L 54.5787,-83.1111 L 54.8097,-83.5433
 L 54.952,-84.0123 L 55,-84.5 L 55,-139.5 L 54.952,-139.988 L 54.8097,-140.457 L 54.5787,-140.889
 L 54.2678,-141.268 L 53.8889,-141.579 L 53.4567,-141.81 L 52.9877,-141.952 L 52.5,-142 L -52.5,-142
 L -52.9877,-141.952 L -53.4567,-141.81 L -53.8889,-141.579 L -54.2678,-141.268 L -54.5787,-140.889 L -54.8097,-140.457
 L -54.952,-139.988 L -55,-139.5 L -55,-84.5 L -54.952,-84.0123 L -54.8097,-83.5433 L -54.5787,-83.1111
 L -54.2678,-82.7322 L -53.8889,-82.4213 L -53.4567,-82.1903 L -52.9877,-82.048 L -52.5,-82 L 52.5,-82
 z
M 36.7269,-130.127 L 36.4642,-130.207 L 36.2222,-130.336 L 36.01,-130.51 L 35.8359,-130.722 L 35.7066,-130.964
 L 35.6269,-131.227 L 35.6,-131.5 L 35.6269,-131.773 L 35.7066,-132.036 L 35.8359,-132.278 L 36.01,-132.49
 L 36.2222,-132.664 L 36.4642,-132.793 L 36.7269,-132.873 L 37,-132.9 L 37.2731,-132.873 L 37.5358,-132.793
 L 37.7778,-132.664 L 37.9899,-132.49 L 38.164,-132.278 L 38.2934,-132.036 L 38.3731,-131.773 L 38.4,-131.5
 L 38.3731,-131.227 L 38.2934,-130.964 L 38.164,-130.722 L 37.9899,-130.51 L 37.7778,-130.336 L 37.5358,-130.207
 L 37.2731,-130.127 L 37,-130.1 z
M -37.2731,-130.127 L -37.5358,-130.207 L -37.7778,-130.336 L -37.9899,-130.51 L -38.164,-130.722 L -38.2934,-130.964
 L -38.3731,-131.227 L -38.4,-131.5 L -38.3731,-131.773 L -38.2934,-132.036 L -38.164,-132.278 L -37.9899,-132.49
 L -37.7778,-132.664 L -37.5358,-132.793 L -37.2731,-132.873 L -37,-132.9 L -36.7269,-132.873 L -36.4642,-132.793
 L -36.2222,-132.664 L -36.01,-132.49 L -35.8359,-132.278 L -35.7066,-132.036 L -35.6269,-131.773 L -35.6,-131.5
 L -35.6269,-131.227 L -35.7066,-130.964 L -35.8359,-130.722 L -36.01,-130.51 L -36.2222,-130.336 L -36.4642,-130.207
 L -36.7269,-130.127 L -37,-130.1 z
M -50.05,-123.125 L -50.05,-126.225 L 50.05,-126.225 L 50.05,-123.125 z
M -50.05,-115.625 L -50.05,-118.725 L 50.05,-118.725 L 50.05,-115.625 z
M -50.05,-108.2 L -50.05,-111.3 L 50.05,-111.3 L 50.05,-108.2 z
M -37.2731,-91.1269 L -37.5358,-91.2066 L -37.7778,-91.336 L -37.9899,-91.5101 L -38.164,-91.7222 L -38.2934,-91.9642
 L -38.3731,-92.2269 L -38.4,-92.5 L -38.3731,-92.7731 L -38.2934,-93.0358 L -38.164,-93.2778 L -37.9899,-93.49
 L -37.7778,-93.6641 L -37.5358,-93.7934 L -37.2731,-93.8731 L -37,-93.9 L -36.7269,-93.8731 L -36.4642,-93.7934
 L -36.2222,-93.6641 L -36.01,-93.49 L -35.8359,-93.2778 L -35.7066,-93.0358 L -35.6269,-92.7731 L -35.6,-92.5
 L -35.6269,-92.2269 L -35.7066,-91.9642 L -35.8359,-91.7222 L -36.01,-91.5101 L -36.2222,-91.336 L -36.4642,-91.2066
 L -36.7269,-91.1269 L -37,-91.1 z
M 36.7269,-91.1269 L 36.4642,-91.2066 L 36.2222,-91.336 L 36.01,-91.5101 L 35.8359,-91.7222 L 35.7066,-91.9642
 L 35.6269,-92.2269 L 35.6,-92.5 L 35.6269,-92.7731 L 35.7066,-93.0358 L 35.8359,-93.2778 L 36.01,-93.49
 L 36.2222,-93.6641 L 36.4642,-93.7934 L 36.7269,-93.8731 L 37,-93.9 L 37.2731,-93.8731 L 37.5358,-93.7934
 L 37.7778,-93.6641 L 37.9899,-93.49 L 38.164,-93.2778 L 38.2934,-93.0358 L 38.3731,-92.7731 L 38.4,-92.5
 L 38.3731,-92.2269 L 38.2934,-91.9642 L 38.164,-91.7222 L 37.9899,-91.5101 L 37.7778,-91.336 L 37.5358,-91.2066
 L 37.2731,-91.1269 L 37,-91.1 z
M 52.9877,-20.048 L 53.4567,-20.1903 L 53.8889,-20.4213 L 54.2678,-20.7322 L 54.5787,-21.1111 L 54.8097,-21.5433
 L 54.952,-22.0123 L 55,-22.5 L 55,-77.5 L 54.952,-77.9877 L 54.8097,-78.4567 L 54.5787,-78.8889
 L 54.2678,-79.2678 L 53.8889,-79.5787 L 53.4567,-79.8097 L 52.9877,-79.952 L 52.5,-80 L -52.5,-80
 L -52.9877,-79.952 L -53.4567,-79.8097 L -53.8889,-79.5787 L -54.2678,-79.2678 L -54.5787,-78.8889 L -54.8097,-78.4567
 L -54.952,-77.9877 L -55,-77.5 L -55,-22.5 L -54.952,-22.0123 L -54.8097,-21.5433 L -54.5787,-21.1111
 L -54.2678,-20.7322 L -53.8889,-20.4213 L -53.4567,-20.1903 L -52.9877,-20.048 L -52.5,-20 L 52.5,-20
 z
M -40.05,-74.45 L -40.05,-77.55 L -19.95,-77.55 L -19.95,-74.45 z
M 19.95,-74.45 L 19.95,-77.55 L 40.05,-77.55 L 40.05,-74.45 z
M 36.7269,-68.1269 L 36.4642,-68.2066 L 36.2222,-68.3359 L 36.01,-68.51 L 35.8359,-68.7222 L 35.7066,-68.9642
 L 35.6269,-69.2269 L 35.6,-69.5 L 35.6269,-69.7731 L 35.7066,-70.0358 L 35.8359,-70.2778 L 36.01,-70.4899
 L 36.2222,-70.664 L 36.4642,-70.7934 L 36.7269,-70.8731 L 37,-70.9 L 37.2731,-70.8731 L 37.5358,-70.7934
 L 37.7778,-70.664 L 37.9899,-70.4899 L 38.164,-70.2778 L 38.2934,-70.0358 L 38.3731,-69.7731 L 38.4,-69.5
 L 38.3731,-69.2269 L 38.2934,-68.9642 L 38.164,-68.7222 L 37.9899,-68.51 L 37.7778,-68.3359 L 37.5358,-68.2066
 L 37.2731,-68.1269 L 37,-68.1 z
M -37.2731,-68.1269 L -37.5358,-68.2066 L -37.7778,-68.3359 L -37.9899,-68.51 L -38.164,-68.7222 L -38.2934,-68.9642
 L -38.3731,-69.2269 L -38.4,-69.5 L -38.3731,-69.7731 L -38.2934,-70.0358 L -38.164,-70.2778 L -37.9899,-70.4899
 L -37.7778,-70.664 L -37.5358,-70.7934 L -37.2731,-70.8731 L -37,-70.9 L -36.7269,-70.8731 L -36.4642,-70.7934
 L -36.2222,-70.664 L -36.01,-70.4899 L -35.8359,-70.2778 L -35.7066,-70.0358 L -35.6269,-69.7731 L -35.6,-69.5
 L -35.6269,-69.2269 L -35.7066,-68.9642 L -35.8359,-68.7222 L -36.01,-68.51 L -36.2222,-68.3359 L -36.4642,-68.2066
 L -36.7269,-68.1269 L -37,-68.1 z
M 44.95,-31.95 L 44.95,-68.05 L 48.05,-68.05 L 48.05,-31.95 z
M -48.05,-31.95 L -48.05,-68.05 L -44.95,-68.05 L -44.95,-31.95 z
M 36.7269,-29.1269 L 36.4642,-29.2066 L 36.2222,-29.336 L 36.01,-29.5101 L 35.8359,-29.7222 L 35.7066,-29.9642
 L 35.6269,-30.2269 L 35.6,-30.5 L 35.6269,-30.7731 L 35.7066,-31.0358 L 35.8359,-31.2778 L 36.01,-31.49
 L 36.2222,-31.6641 L 36.4642,-31.7934 L 36.7269,-31.8731 L 37,-31.9 L 37.2731,-31.8731 L 37.5358,-31.7934
 L 37.7778,-31.6641 L 37.9899,-31.49 L 38.164,-31.2778 L 38.2934,-31.0358 L 38.3731,-30.7731 L 38.4,-30.5
 L 38.3731,-30.2269 L 38.2934,-29.9642 L 38.164,-29.7222 L 37.9899,-29.5101 L 37.7778,-29.336 L 37.5358,-29.2066
 L 37.2731,-29.1269 L 37,-29.1 z
M -37.2731,-29.1269 L -37.5358,-29.2066 L -37.7778,-29.336 L -37.9899,-29.5101 L -38.164,-29.7222 L -38.2934,-29.9642
 L -38.3731,-30.2269 L -38.4,-30.5 L -38.3731,-30.7731 L -38.2934,-31.0358 L -38.164,-31.2778 L -37.9899,-31.49
 L -37.7778,-31.6641 L -37.5358,-31.7934 L -37.2731,-31.8731 L -37,-31.9 L -36.7269,-31.8731 L -36.4642,-31.7934
 L -36.2222,-31.6641 L -36.01,-31.49 L -35.8359,-31.2778 L -35.7066,-31.0358 L -35.6269,-30.7731 L -35.6,-30.5
 L -35.6269,-30.2269 L -35.7066,-29.9642 L -35.8359,-29.7222 L -36.01,-29.5101 L -36.2222,-29.336 L -36.4642,-29.2066
 L -36.7269,-29.1269 L -37,-29.1 z
M -40.05,-22.45 L -40.05,-25.55 L -19.95,-25.55 L -19.95,-22.45 z
M 19.95,-22.45 L 19.95,-25.55 L 40.05,-25.55 L 40.05,-22.45 z
" stroke="black" fill="lightgray" stroke-width="0.5"/>
</svg>
