M48
INCH
T1C0.0118
T2C0.0314
T3C0.0394
%
G90
G05
T1
X3.9764Y-3.6693
X3.9783Y-3.3602
X3.9803Y-3.0709
X4.124Y-4.0551
X4.1339Y-2.9528
X4.1476Y-2.7539
X4.1618Y-3.6582
X4.1913Y-2.9646
X4.2205Y-3.1083
X4.2933Y-3.6811
X4.2953Y-3.4016
X4.3976Y-2.9154
X4.4331Y-4.1654
X4.4409Y-3.0866
X4.4843Y-3.7382
X4.6339Y-3.8858
X4.6457Y-4.0512
X4.7382Y-2.9843
X4.7382Y-4.0531
X4.7616Y-4.2207
X4.9156Y-2.912
X4.937Y-3.7874
X4.9457Y-3.3377
X4.9606Y-2.8465
X4.974Y-3.9098
X4.9961Y-3.4803
X5.0079Y-3.6457
X5.0787Y-3.9173
X5.1457Y-4.0374
X5.1969Y-3.6535
X5.2677Y-3.1732
X5.2726Y-2.9094
X5.3425Y-3.0965
X5.3504Y-3.3602
X5.3937Y-3.3091
X5.4724Y-4.1988
X5.5157Y-3.3189
X5.5303Y-3.6662
X5.5728Y-3.8583
X5.5846Y-3.0827
X5.622Y-3.4469
X5.6575Y-4.0669
X5.6673Y-2.7638
X5.6949Y-3.2382
X5.7102Y-3.598
X5.811Y-3.9055
X5.8189Y-4.1811
X5.8208Y-3.5937
X5.8622Y-3.687
X5.9291Y-3.3307
X6.003Y-4.0797
X6.0098Y-3.5659
X6.0217Y-2.7776
X6.0217Y-3.4118
X6.1004Y-3.8957
X6.1673Y-2.9941
X6.1811Y-3.6713
X6.1949Y-3.3661
X6.2402Y-4.0079
T2
X4.3603Y-3.9587
X4.4391Y-3.9587
X4.5177Y-3.9587
X4.5965Y-3.9587
X4.7835Y-3.9587
X4.8623Y-3.9587
X4.9409Y-3.9587
X5.0197Y-3.9587
X5.2067Y-3.9587
X5.2855Y-3.9587
X5.3641Y-3.9587
X5.4429Y-3.9587
X5.6299Y-3.9587
X5.7087Y-3.9587
X5.7873Y-3.9587
X5.8661Y-3.9587
T3
X4.2406Y-2.7953
X4.3406Y-2.7953
X4.4177Y-3.622
X4.4193Y-3.1791
X4.4193Y-3.3268
X4.4193Y-3.4744
X4.4406Y-2.7953
X4.5177Y-3.622
X4.5193Y-3.1791
X4.5193Y-3.3268
X4.5193Y-3.4744
X4.5406Y-2.7953
X4.6177Y-3.622
X4.6193Y-3.1791
X4.6193Y-3.3268
X4.6193Y-3.4744
X4.6406Y-2.7953
X4.7406Y-2.7953
X4.8406Y-2.7953
X5.1581Y-2.9035
X5.1581Y-3.0035
X5.1581Y-3.1035
X5.1581Y-3.2035
X5.1581Y-3.3035
X5.1581Y-3.4035
X5.1581Y-3.5035
X5.5988Y-3.7992
X5.6988Y-3.7992
X5.7827Y-2.9035
X5.7827Y-3.0035
X5.7827Y-3.1035
X5.7827Y-3.2035
X5.7827Y-3.3035
X5.7827Y-3.4035
X5.7827Y-3.5035
X5.7988Y-3.7992
X5.935Y-2.8415
X5.935Y-2.9415
X5.935Y-3.0415
M30
