%TF.GenerationSoftware,KiCad,Pcbnew,8.0.5*%
%TF.CreationDate,2024-10-07T22:10:06+02:00*%
%TF.ProjectId,kerstboom,6b657273-7462-46f6-9f6d-2e6b69636164,rev?*%
%TF.SameCoordinates,Original*%
%TF.FileFunction,Paste,Top*%
%TF.FilePolarity,Positive*%
%FSLAX46Y46*%
G04 Gerber Fmt 4.6, Leading zero omitted, Abs format (unit mm)*
G04 Created by KiCad (PCBNEW 8.0.5) date 2024-10-07 22:10:06*
%MOMM*%
%LPD*%
G01*
G04 APERTURE LIST*
G04 Aperture macros list*
%AMRoundRect*
0 Rectangle with rounded corners*
0 $1 Rounding radius*
0 $2 $3 $4 $5 $6 $7 $8 $9 X,Y pos of 4 corners*
0 Add a 4 corners polygon primitive as box body*
4,1,4,$2,$3,$4,$5,$6,$7,$8,$9,$2,$3,0*
0 Add four circle primitives for the rounded corners*
1,1,$1+$1,$2,$3*
1,1,$1+$1,$4,$5*
1,1,$1+$1,$6,$7*
1,1,$1+$1,$8,$9*
0 Add four rect primitives between the rounded corners*
20,1,$1+$1,$2,$3,$4,$5,0*
20,1,$1+$1,$4,$5,$6,$7,0*
20,1,$1+$1,$6,$7,$8,$9,0*
20,1,$1+$1,$8,$9,$2,$3,0*%
G04 Aperture macros list end*
%ADD10R,1.600000X0.850000*%
%ADD11RoundRect,0.250000X-0.450000X0.350000X-0.450000X-0.350000X0.450000X-0.350000X0.450000X0.350000X0*%
%ADD12R,1.016000X1.400000*%
%ADD13R,0.700000X1.400000*%
%ADD14R,1.400000X1.016000*%
G04 APERTURE END LIST*
D10*
%TO.C,D1*%
X105500000Y-80620000D03*
X105500000Y-82370000D03*
X109000000Y-82370000D03*
X109000000Y-80620000D03*
%TD*%
%TO.C,D2*%
X105500000Y-88125000D03*
X105500000Y-89875000D03*
X109000000Y-89875000D03*
X109000000Y-88125000D03*
%TD*%
%TO.C,D12*%
X150450000Y-95625000D03*
X150450000Y-97375000D03*
X153950000Y-97375000D03*
X153950000Y-95625000D03*
%TD*%
%TO.C,D4*%
X120500000Y-80625000D03*
X120500000Y-82375000D03*
X124000000Y-82375000D03*
X124000000Y-80625000D03*
%TD*%
%TO.C,D7*%
X135500000Y-80600000D03*
X135500000Y-82350000D03*
X139000000Y-82350000D03*
X139000000Y-80600000D03*
%TD*%
D11*
%TO.C,R2*%
X132250000Y-94750000D03*
X132250000Y-96750000D03*
%TD*%
D10*
%TO.C,D5*%
X120500000Y-88050000D03*
X120500000Y-89800000D03*
X124000000Y-89800000D03*
X124000000Y-88050000D03*
%TD*%
D12*
%TO.C,C2*%
X146961000Y-102850000D03*
X148740000Y-102850000D03*
%TD*%
D10*
%TO.C,D11*%
X150450000Y-88125000D03*
X150450000Y-89875000D03*
X153950000Y-89875000D03*
X153950000Y-88125000D03*
%TD*%
D12*
%TO.C,C4*%
X125571000Y-102250000D03*
X127350000Y-102250000D03*
%TD*%
D10*
%TO.C,D6*%
X120500000Y-95625000D03*
X120500000Y-97375000D03*
X124000000Y-97375000D03*
X124000000Y-95625000D03*
%TD*%
D13*
%TO.C,U2*%
X131705000Y-105325000D03*
X130435000Y-105325000D03*
X129165000Y-105325000D03*
X127895000Y-105325000D03*
%TD*%
D10*
%TO.C,D8*%
X135500000Y-88125000D03*
X135500000Y-89875000D03*
X139000000Y-89875000D03*
X139000000Y-88125000D03*
%TD*%
%TO.C,D9*%
X135500000Y-95625000D03*
X135500000Y-97375000D03*
X139000000Y-97375000D03*
X139000000Y-95625000D03*
%TD*%
%TO.C,D3*%
X105500000Y-95650000D03*
X105500000Y-97400000D03*
X109000000Y-97400000D03*
X109000000Y-95650000D03*
%TD*%
D12*
%TO.C,C3*%
X136711000Y-102850000D03*
X138490000Y-102850000D03*
%TD*%
D14*
%TO.C,C1*%
X154200000Y-84361000D03*
X154200000Y-86140000D03*
%TD*%
D11*
%TO.C,R1*%
X129300000Y-94750000D03*
X129300000Y-96750000D03*
%TD*%
D12*
%TO.C,C5*%
X114911000Y-102850000D03*
X116690000Y-102850000D03*
%TD*%
D10*
%TO.C,D10*%
X150450000Y-80625000D03*
X150450000Y-82375000D03*
X153950000Y-82375000D03*
X153950000Y-80625000D03*
%TD*%
M02*
