%TF.GenerationSoftware,KiCad,Pcbnew,8.0.5*%
%TF.CreationDate,2024-10-07T22:10:06+02:00*%
%TF.ProjectId,kerstboom,6b657273-7462-46f6-9f6d-2e6b69636164,rev?*%
%TF.SameCoordinates,Original*%
%TF.FileFunction,Copper,L1,Top*%
%TF.FilePolarity,Positive*%
%FSLAX46Y46*%
G04 Gerber Fmt 4.6, Leading zero omitted, Abs format (unit mm)*
G04 Created by KiCad (PCBNEW 8.0.5) date 2024-10-07 22:10:06*
%MOMM*%
%LPD*%
G01*
G04 APERTURE LIST*
G04 Aperture macros list*
%AMRoundRect*
0 Rectangle with rounded corners*
0 $1 Rounding radius*
0 $2 $3 $4 $5 $6 $7 $8 $9 X,Y pos of 4 corners*
0 Add a 4 corners polygon primitive as box body*
4,1,4,$2,$3,$4,$5,$6,$7,$8,$9,$2,$3,0*
0 Add four circle primitives for the rounded corners*
1,1,$1+$1,$2,$3*
1,1,$1+$1,$4,$5*
1,1,$1+$1,$6,$7*
1,1,$1+$1,$8,$9*
0 Add four rect primitives between the rounded corners*
20,1,$1+$1,$2,$3,$4,$5,0*
20,1,$1+$1,$4,$5,$6,$7,0*
20,1,$1+$1,$6,$7,$8,$9,0*
20,1,$1+$1,$8,$9,$2,$3,0*%
G04 Aperture macros list end*
%TA.AperFunction,SMDPad,CuDef*%
%ADD10R,1.600000X0.850000*%
%TD*%
%TA.AperFunction,SMDPad,CuDef*%
%ADD11RoundRect,0.250000X-0.450000X0.350000X-0.450000X-0.350000X0.450000X-0.350000X0.450000X0.350000X0*%
%TD*%
%TA.AperFunction,SMDPad,CuDef*%
%ADD12R,1.016000X1.400000*%
%TD*%
%TA.AperFunction,SMDPad,CuDef*%
%ADD13R,0.700000X1.400000*%
%TD*%
%TA.AperFunction,SMDPad,CuDef*%
%ADD14R,1.400000X1.016000*%
%TD*%
%TA.AperFunction,ComponentPad*%
%ADD15R,1.270000X1.270000*%
%TD*%
%TA.AperFunction,ComponentPad*%
%ADD16C,1.270000*%
%TD*%
%TA.AperFunction,ComponentPad*%
%ADD17R,1.700000X1.700000*%
%TD*%
%TA.AperFunction,ComponentPad*%
%ADD18O,1.700000X1.700000*%
%TD*%
%TA.AperFunction,ComponentPad*%
%ADD19O,2.748280X1.998980*%
%TD*%
%TA.AperFunction,ViaPad*%
%ADD20C,0.600000*%
%TD*%
%TA.AperFunction,Conductor*%
%ADD21C,0.200000*%
%TD*%
%TA.AperFunction,Conductor*%
%ADD22C,0.400000*%
%TD*%
G04 APERTURE END LIST*
D10*
%TO.P,D1,1,DIN*%
%TO.N,/Led Driver*%
X105500000Y-80620000D03*
%TO.P,D1,2,VDD*%
%TO.N,+5V*%
X105500000Y-82370000D03*
%TO.P,D1,3,DOUT*%
%TO.N,/L1-L2*%
X109000000Y-82370000D03*
%TO.P,D1,4,VSS*%
%TO.N,GND*%
X109000000Y-80620000D03*
%TD*%
%TO.P,D2,1,DIN*%
%TO.N,/L1-L2*%
X105500000Y-88125000D03*
%TO.P,D2,2,VDD*%
%TO.N,+5V*%
X105500000Y-89875000D03*
%TO.P,D2,3,DOUT*%
%TO.N,/L2-L3*%
X109000000Y-89875000D03*
%TO.P,D2,4,VSS*%
%TO.N,GND*%
X109000000Y-88125000D03*
%TD*%
%TO.P,D12,1,DIN*%
%TO.N,/L11-L12*%
X150450000Y-95625000D03*
%TO.P,D12,2,VDD*%
%TO.N,+5V*%
X150450000Y-97375000D03*
%TO.P,D12,3,DOUT*%
%TO.N,/L-OUT*%
X153950000Y-97375000D03*
%TO.P,D12,4,VSS*%
%TO.N,GND*%
X153950000Y-95625000D03*
%TD*%
%TO.P,D4,1,DIN*%
%TO.N,/L3-L4*%
X120500000Y-80625000D03*
%TO.P,D4,2,VDD*%
%TO.N,+5V*%
X120500000Y-82375000D03*
%TO.P,D4,3,DOUT*%
%TO.N,/L4-L5*%
X124000000Y-82375000D03*
%TO.P,D4,4,VSS*%
%TO.N,GND*%
X124000000Y-80625000D03*
%TD*%
%TO.P,D7,1,DIN*%
%TO.N,/L6-L7*%
X135500000Y-80600000D03*
%TO.P,D7,2,VDD*%
%TO.N,+5V*%
X135500000Y-82350000D03*
%TO.P,D7,3,DOUT*%
%TO.N,/L7-L8*%
X139000000Y-82350000D03*
%TO.P,D7,4,VSS*%
%TO.N,GND*%
X139000000Y-80600000D03*
%TD*%
D11*
%TO.P,R2,1*%
%TO.N,+3.3V*%
X132250000Y-94750000D03*
%TO.P,R2,2*%
%TO.N,SDA*%
X132250000Y-96750000D03*
%TD*%
D10*
%TO.P,D5,1,DIN*%
%TO.N,/L4-L5*%
X120500000Y-88050000D03*
%TO.P,D5,2,VDD*%
%TO.N,+5V*%
X120500000Y-89800000D03*
%TO.P,D5,3,DOUT*%
%TO.N,/L5-L6*%
X124000000Y-89800000D03*
%TO.P,D5,4,VSS*%
%TO.N,GND*%
X124000000Y-88050000D03*
%TD*%
D12*
%TO.P,C2,1*%
%TO.N,/RS_Power*%
X146961000Y-102850000D03*
%TO.P,C2,2*%
%TO.N,GND*%
X148740000Y-102850000D03*
%TD*%
D10*
%TO.P,D11,1,DIN*%
%TO.N,/L10-L11*%
X150450000Y-88125000D03*
%TO.P,D11,2,VDD*%
%TO.N,+5V*%
X150450000Y-89875000D03*
%TO.P,D11,3,DOUT*%
%TO.N,/L11-L12*%
X153950000Y-89875000D03*
%TO.P,D11,4,VSS*%
%TO.N,GND*%
X153950000Y-88125000D03*
%TD*%
D12*
%TO.P,C4,1*%
%TO.N,+3.3V*%
X125571000Y-102250000D03*
%TO.P,C4,2*%
%TO.N,GND*%
X127350000Y-102250000D03*
%TD*%
D10*
%TO.P,D6,1,DIN*%
%TO.N,/L5-L6*%
X120500000Y-95625000D03*
%TO.P,D6,2,VDD*%
%TO.N,+5V*%
X120500000Y-97375000D03*
%TO.P,D6,3,DOUT*%
%TO.N,/L6-L7*%
X124000000Y-97375000D03*
%TO.P,D6,4,VSS*%
%TO.N,GND*%
X124000000Y-95625000D03*
%TD*%
D13*
%TO.P,U2,1,SCL*%
%TO.N,SCL*%
X131705000Y-105325000D03*
%TO.P,U2,2,VDD*%
%TO.N,+3.3V*%
X130435000Y-105325000D03*
%TO.P,U2,3,GND*%
%TO.N,GND*%
X129165000Y-105325000D03*
%TO.P,U2,4,SDA*%
%TO.N,SDA*%
X127895000Y-105325000D03*
%TD*%
D10*
%TO.P,D8,1,DIN*%
%TO.N,/L7-L8*%
X135500000Y-88125000D03*
%TO.P,D8,2,VDD*%
%TO.N,+5V*%
X135500000Y-89875000D03*
%TO.P,D8,3,DOUT*%
%TO.N,/L8-L9*%
X139000000Y-89875000D03*
%TO.P,D8,4,VSS*%
%TO.N,GND*%
X139000000Y-88125000D03*
%TD*%
%TO.P,D9,1,DIN*%
%TO.N,/L8-L9*%
X135500000Y-95625000D03*
%TO.P,D9,2,VDD*%
%TO.N,+5V*%
X135500000Y-97375000D03*
%TO.P,D9,3,DOUT*%
%TO.N,/L9-L10*%
X139000000Y-97375000D03*
%TO.P,D9,4,VSS*%
%TO.N,GND*%
X139000000Y-95625000D03*
%TD*%
%TO.P,D3,1,DIN*%
%TO.N,/L2-L3*%
X105500000Y-95650000D03*
%TO.P,D3,2,VDD*%
%TO.N,+5V*%
X105500000Y-97400000D03*
%TO.P,D3,3,DOUT*%
%TO.N,/L3-L4*%
X109000000Y-97400000D03*
%TO.P,D3,4,VSS*%
%TO.N,GND*%
X109000000Y-95650000D03*
%TD*%
D12*
%TO.P,C3,1*%
%TO.N,+3.3V*%
X136711000Y-102850000D03*
%TO.P,C3,2*%
%TO.N,GND*%
X138490000Y-102850000D03*
%TD*%
D14*
%TO.P,C1,1*%
%TO.N,+5V*%
X154200000Y-84361000D03*
%TO.P,C1,2*%
%TO.N,GND*%
X154200000Y-86140000D03*
%TD*%
D11*
%TO.P,R1,1*%
%TO.N,+3.3V*%
X129300000Y-94750000D03*
%TO.P,R1,2*%
%TO.N,SCL*%
X129300000Y-96750000D03*
%TD*%
D12*
%TO.P,C5,1*%
%TO.N,+3.3V*%
X114911000Y-102850000D03*
%TO.P,C5,2*%
%TO.N,GND*%
X116690000Y-102850000D03*
%TD*%
D10*
%TO.P,D10,1,DIN*%
%TO.N,/L9-L10*%
X150450000Y-80625000D03*
%TO.P,D10,2,VDD*%
%TO.N,+5V*%
X150450000Y-82375000D03*
%TO.P,D10,3,DOUT*%
%TO.N,/L10-L11*%
X153950000Y-82375000D03*
%TO.P,D10,4,VSS*%
%TO.N,GND*%
X153950000Y-80625000D03*
%TD*%
D15*
%TO.P,J2,1,1*%
%TO.N,SCL*%
X132250260Y-100549880D03*
D16*
%TO.P,J2,2,2*%
%TO.N,SDA*%
X134251780Y-100550000D03*
%TO.P,J2,3,3*%
%TO.N,+3.3V*%
X136248220Y-100550000D03*
%TO.P,J2,4,4*%
%TO.N,GND*%
X138249740Y-100550000D03*
%TD*%
D17*
%TO.P,JP10,1,A*%
%TO.N,/Led Driver*%
X112250000Y-80750000D03*
D18*
%TO.P,JP10,2,C*%
%TO.N,AD0*%
X114790000Y-80750000D03*
%TO.P,JP10,3,B*%
%TO.N,/SPI CS*%
X117330000Y-80750000D03*
%TD*%
D17*
%TO.P,JP12,1,A*%
%TO.N,/Led Driver*%
X112250000Y-88250000D03*
D18*
%TO.P,JP12,2,C*%
%TO.N,AD2*%
X114790000Y-88250000D03*
%TO.P,JP12,3,B*%
%TO.N,/SPI CS*%
X117330000Y-88250000D03*
%TD*%
D17*
%TO.P,JP1,1,A*%
%TO.N,+3.3V*%
X142210000Y-96500000D03*
D18*
%TO.P,JP1,2,C*%
%TO.N,/RS_Power*%
X144750000Y-96500000D03*
%TO.P,JP1,3,B*%
%TO.N,+5V*%
X147290000Y-96500000D03*
%TD*%
D17*
%TO.P,J6,1,Pin_1*%
%TO.N,+5V*%
X150750000Y-72175000D03*
D18*
%TO.P,J6,2,Pin_2*%
%TO.N,/L-OUT*%
X150750000Y-74715000D03*
%TO.P,J6,3,Pin_3*%
%TO.N,GND*%
X150750000Y-77255000D03*
%TD*%
D15*
%TO.P,J4,1,1*%
%TO.N,AD2*%
X121500000Y-100549880D03*
D16*
%TO.P,J4,2,2*%
%TO.N,AD3*%
X123501520Y-100550000D03*
%TO.P,J4,3,3*%
%TO.N,+3.3V*%
X125497960Y-100550000D03*
%TO.P,J4,4,4*%
%TO.N,GND*%
X127499480Y-100550000D03*
%TD*%
D19*
%TO.P,U1,1,PA02_A0_D0*%
%TO.N,AD0*%
X147181290Y-73750000D03*
%TO.P,U1,2,PA4_A1_D1*%
%TO.N,AD1*%
X147181290Y-76290000D03*
%TO.P,U1,3,PA10_A2_D2*%
%TO.N,AD2*%
X147181290Y-78830000D03*
%TO.P,U1,4,PA11_A3_D3*%
%TO.N,AD3*%
X147181290Y-81370000D03*
%TO.P,U1,5,PA8_A4_D4_SDA*%
%TO.N,SDA*%
X147181290Y-83910000D03*
%TO.P,U1,6,PA9_A5_D5_SCL*%
%TO.N,SCL*%
X147181290Y-86450000D03*
%TO.P,U1,7,PB08_A6_D6_TX*%
%TO.N,TX*%
X147181290Y-88990000D03*
%TO.P,U1,8,PB09_A7_D7_RX*%
%TO.N,RX*%
X130716730Y-88990000D03*
%TO.P,U1,9,PA7_A8_D8_SCK*%
%TO.N,SCK*%
X130716730Y-86450000D03*
%TO.P,U1,10,PA5_A9_D9_MISO*%
%TO.N,MISO*%
X130716730Y-83910000D03*
%TO.P,U1,11,PA6_A10_D10_MOSI*%
%TO.N,MOSI*%
X130716730Y-81370000D03*
%TO.P,U1,12,3V3*%
%TO.N,+3.3V*%
X130716730Y-78830000D03*
%TO.P,U1,13,GND*%
%TO.N,GND*%
X130716730Y-76290000D03*
%TO.P,U1,14,5V*%
%TO.N,+5V*%
X130716730Y-73750000D03*
%TD*%
D17*
%TO.P,J5,1,Pin_1*%
%TO.N,+5V*%
X122950000Y-71000000D03*
D18*
%TO.P,J5,2,Pin_2*%
%TO.N,+3.3V*%
X120410000Y-71000000D03*
%TO.P,J5,3,Pin_3*%
%TO.N,MOSI*%
X117870000Y-71000000D03*
%TO.P,J5,4,Pin_4*%
%TO.N,MISO*%
X115330000Y-71000000D03*
%TO.P,J5,5,Pin_5*%
%TO.N,SCK*%
X112790000Y-71000000D03*
%TO.P,J5,6,Pin_6*%
%TO.N,/SPI CS*%
X110250000Y-71000000D03*
%TO.P,J5,7,Pin_7*%
%TO.N,GND*%
X107710000Y-71000000D03*
%TD*%
D17*
%TO.P,JP11,1,A*%
%TO.N,/Led Driver*%
X112250000Y-84500000D03*
D18*
%TO.P,JP11,2,C*%
%TO.N,AD1*%
X114790000Y-84500000D03*
%TO.P,JP11,3,B*%
%TO.N,/SPI CS*%
X117330000Y-84500000D03*
%TD*%
D15*
%TO.P,J1,1,1*%
%TO.N,RX*%
X143000260Y-100549880D03*
D16*
%TO.P,J1,2,2*%
%TO.N,TX*%
X145001780Y-100550000D03*
%TO.P,J1,3,3*%
%TO.N,/RS_Power*%
X146998220Y-100550000D03*
%TO.P,J1,4,4*%
%TO.N,GND*%
X148999740Y-100550000D03*
%TD*%
D15*
%TO.P,J3,1,1*%
%TO.N,AD0*%
X110750520Y-100549880D03*
D16*
%TO.P,J3,2,2*%
%TO.N,AD1*%
X112752040Y-100550000D03*
%TO.P,J3,3,3*%
%TO.N,+3.3V*%
X114748480Y-100550000D03*
%TO.P,J3,4,4*%
%TO.N,GND*%
X116750000Y-100550000D03*
%TD*%
D17*
%TO.P,JP13,1,A*%
%TO.N,/Led Driver*%
X112210000Y-92000000D03*
D18*
%TO.P,JP13,2,C*%
%TO.N,AD3*%
X114750000Y-92000000D03*
%TO.P,JP13,3,B*%
%TO.N,/SPI CS*%
X117290000Y-92000000D03*
%TD*%
D20*
%TO.N,GND*%
X107200000Y-78950000D03*
X147600000Y-99200000D03*
X141550000Y-98000000D03*
X112800000Y-78400000D03*
X132000000Y-92800000D03*
X140100000Y-84300000D03*
X120350000Y-75800000D03*
X126340861Y-99308422D03*
X148900000Y-93650000D03*
X124855060Y-73965722D03*
X109050000Y-93500000D03*
X101050000Y-85350000D03*
X125621521Y-84778478D03*
X157350000Y-85500000D03*
X130700000Y-102550000D03*
X139000000Y-106650000D03*
X101000000Y-93200000D03*
X111700000Y-74050000D03*
X104750000Y-103000000D03*
X140470064Y-93121866D03*
X117700000Y-98700000D03*
X147800000Y-106200000D03*
X152650000Y-90573346D03*
X137000000Y-84050000D03*
X109100000Y-86400000D03*
X126900000Y-88400000D03*
X105350000Y-69950000D03*
X133925000Y-73900000D03*
X113900000Y-94950000D03*
X127200000Y-92600000D03*
X152475000Y-103625000D03*
X105000000Y-75000000D03*
X144650000Y-82250000D03*
X129000000Y-99500000D03*
X150600000Y-84600000D03*
X120945405Y-107206066D03*
X101100000Y-78000000D03*
X135900000Y-85350000D03*
X158500000Y-101800000D03*
X126000000Y-72300000D03*
X141850000Y-78300000D03*
X118000000Y-102900000D03*
X156650000Y-76050000D03*
X152950000Y-70550000D03*
X157000000Y-93250000D03*
X142800000Y-87550000D03*
X135700000Y-78650000D03*
X120350000Y-102950000D03*
X152950000Y-86659007D03*
X105710000Y-92917254D03*
X143950000Y-70200000D03*
X112600000Y-105800000D03*
X143700000Y-103300000D03*
%TO.N,+3.3V*%
X106460000Y-75300000D03*
%TO.N,/L6-L7*%
X133800000Y-80600000D03*
X125400000Y-96200000D03*
%TO.N,/L9-L10*%
X147849556Y-91281204D03*
X145040000Y-91390000D03*
%TO.N,/L-OUT*%
X154950000Y-98950000D03*
%TD*%
D21*
%TO.N,AD1*%
X117280000Y-78970000D02*
X116180000Y-80070000D01*
X145500000Y-73734314D02*
X144865686Y-73100000D01*
X122225000Y-78375000D02*
X121630000Y-78970000D01*
X145500000Y-74784314D02*
X145500000Y-73734314D01*
X127592158Y-76876471D02*
X126093629Y-78375000D01*
X127592158Y-73007842D02*
X127592158Y-76876471D01*
X129142157Y-71457843D02*
X127592158Y-73007842D01*
X142359315Y-73100000D02*
X140717158Y-71457843D01*
X116180000Y-80070000D02*
X116180000Y-83110000D01*
X144865686Y-73100000D02*
X142359315Y-73100000D01*
X126093629Y-78375000D02*
X122225000Y-78375000D01*
X116180000Y-83110000D02*
X114790000Y-84500000D01*
X146881290Y-76290000D02*
X146881290Y-76165604D01*
X146881290Y-76165604D02*
X145500000Y-74784314D01*
X121630000Y-78970000D02*
X117280000Y-78970000D01*
X140717158Y-71457843D02*
X129142157Y-71457843D01*
%TO.N,SDA*%
X141150000Y-104150000D02*
X143950000Y-101350000D01*
X132250000Y-96750000D02*
X131350000Y-95850000D01*
X128300000Y-96165256D02*
X128300000Y-98427190D01*
X134251780Y-102198780D02*
X136203000Y-104150000D01*
X126532000Y-103962000D02*
X127895000Y-105325000D01*
X145690000Y-90390000D02*
X145400000Y-90100000D01*
X136203000Y-104150000D02*
X141150000Y-104150000D01*
X132250000Y-98548220D02*
X132250000Y-96750000D01*
X145690000Y-93910000D02*
X145690000Y-90390000D01*
X145400000Y-90100000D02*
X145400000Y-85391290D01*
X131350000Y-95850000D02*
X128615256Y-95850000D01*
X143950000Y-101350000D02*
X143950000Y-97990000D01*
X128615256Y-95850000D02*
X128300000Y-96165256D01*
X143360000Y-96240000D02*
X145690000Y-93910000D01*
X134251780Y-100550000D02*
X134251780Y-102198780D01*
X128300000Y-98427190D02*
X126532000Y-100195190D01*
X126532000Y-100195190D02*
X126532000Y-103962000D01*
X143360000Y-97400000D02*
X143360000Y-96240000D01*
X134251780Y-100550000D02*
X132250000Y-98548220D01*
X145400000Y-85391290D02*
X146881290Y-83910000D01*
X143950000Y-97990000D02*
X143360000Y-97400000D01*
%TO.N,AD3*%
X144700000Y-75150000D02*
X145100000Y-75550000D01*
X129492158Y-72257843D02*
X140385787Y-72257843D01*
X144400000Y-73900000D02*
X144700000Y-74200000D01*
X122575001Y-79175000D02*
X126425000Y-79175000D01*
X145100000Y-77850000D02*
X145107150Y-77857150D01*
X145107150Y-77857150D02*
X145107150Y-79595860D01*
X145107150Y-79595860D02*
X146881290Y-81370000D01*
X118500000Y-82000000D02*
X119234315Y-81265685D01*
X140385787Y-72257843D02*
X142027944Y-73900000D01*
X128392158Y-77207842D02*
X128392158Y-73357843D01*
X118500000Y-85453654D02*
X118500000Y-82000000D01*
X128392158Y-73357843D02*
X129492158Y-72257843D01*
X114750000Y-92000000D02*
X115940000Y-90810000D01*
X121980001Y-79770000D02*
X122575001Y-79175000D01*
X142027944Y-73900000D02*
X144400000Y-73900000D01*
X144700000Y-74200000D02*
X144700000Y-75150000D01*
X119234315Y-81265685D02*
X119234315Y-79770000D01*
X115940000Y-90810000D02*
X115940000Y-88013654D01*
X126425000Y-79175000D02*
X128392158Y-77207842D01*
X145100000Y-75550000D02*
X145100000Y-77850000D01*
X115940000Y-88013654D02*
X118500000Y-85453654D01*
X119234315Y-79770000D02*
X121980001Y-79770000D01*
%TO.N,AD2*%
X142193629Y-73500000D02*
X140551472Y-71857843D01*
X127992158Y-73192158D02*
X127992158Y-77042156D01*
X126259314Y-78775000D02*
X122390686Y-78775000D01*
X118607843Y-79723528D02*
X118607843Y-81326471D01*
X140551472Y-71857843D02*
X129326473Y-71857843D01*
X145100000Y-73934315D02*
X144665685Y-73500000D01*
X146881290Y-78830000D02*
X145500000Y-77448710D01*
X116180000Y-86860000D02*
X114790000Y-88250000D01*
X145500000Y-75384314D02*
X145100000Y-74984314D01*
X145100000Y-74984314D02*
X145100000Y-73934315D01*
X118961371Y-79370000D02*
X118607843Y-79723528D01*
X129326473Y-71857843D02*
X127992158Y-73192158D01*
X116180000Y-83754314D02*
X116180000Y-86860000D01*
X121795686Y-79370000D02*
X118961371Y-79370000D01*
X127992158Y-77042156D02*
X126259314Y-78775000D01*
X144665685Y-73500000D02*
X142193629Y-73500000D01*
X145500000Y-77448710D02*
X145500000Y-75384314D01*
X118607843Y-81326471D02*
X116180000Y-83754314D01*
X122390686Y-78775000D02*
X121795686Y-79370000D01*
%TO.N,RX*%
X142050380Y-99600000D02*
X143000260Y-100549880D01*
X133850000Y-96707107D02*
X133850000Y-97550000D01*
X133800000Y-91773270D02*
X133800000Y-96657107D01*
X133800000Y-96657107D02*
X133850000Y-96707107D01*
X131016730Y-88990000D02*
X133800000Y-91773270D01*
X135900000Y-99600000D02*
X142050380Y-99600000D01*
X133850000Y-97550000D02*
X135900000Y-99600000D01*
%TO.N,SCL*%
X149934740Y-98734740D02*
X149934740Y-103463260D01*
X146881290Y-86450000D02*
X148855430Y-88424140D01*
X147580317Y-90631204D02*
X146140000Y-92071521D01*
X148855430Y-88424140D02*
X148855430Y-89544570D01*
X131705000Y-105325000D02*
X132250260Y-104779740D01*
X132250260Y-99700260D02*
X129300000Y-96750000D01*
X146140000Y-92071521D02*
X146140000Y-97600000D01*
X149450000Y-98250000D02*
X149934740Y-98734740D01*
X149934740Y-103463260D02*
X148848000Y-104550000D01*
X132250260Y-100549880D02*
X132250260Y-99700260D01*
X146790000Y-98250000D02*
X149450000Y-98250000D01*
X148848000Y-104550000D02*
X132480000Y-104550000D01*
X148855430Y-89544570D02*
X147768796Y-90631204D01*
X147768796Y-90631204D02*
X147580317Y-90631204D01*
X146140000Y-97600000D02*
X146790000Y-98250000D01*
X132480000Y-104550000D02*
X131705000Y-105325000D01*
X132250260Y-104779740D02*
X132250260Y-100549880D01*
D22*
%TO.N,+5V*%
X131016730Y-73750000D02*
X130902902Y-73750000D01*
X104300000Y-79300000D02*
X104300000Y-82050000D01*
X151650000Y-88950000D02*
X151650000Y-85350000D01*
X134300000Y-96450000D02*
X134300000Y-91075000D01*
X143298896Y-70557843D02*
X144900000Y-72158947D01*
X155250000Y-79800000D02*
X155250000Y-83311000D01*
X132490870Y-87890870D02*
X134475000Y-89875000D01*
X131016730Y-73750000D02*
X132490870Y-75224140D01*
X152739000Y-84361000D02*
X154200000Y-84361000D01*
X135225000Y-97375000D02*
X134300000Y-96450000D01*
X131830000Y-107050000D02*
X121850000Y-107050000D01*
X128942590Y-75710312D02*
X128942590Y-77401784D01*
X150750000Y-72175000D02*
X149000000Y-72175000D01*
X130902902Y-73750000D02*
X128942590Y-75710312D01*
X151650000Y-85350000D02*
X152639000Y-84361000D01*
X118900000Y-102300000D02*
X118900000Y-104000000D01*
X150925000Y-82375000D02*
X152200000Y-81100000D01*
X133680000Y-105200000D02*
X131830000Y-107050000D01*
X128942590Y-77401784D02*
X126544374Y-79800000D01*
X104300000Y-82050000D02*
X104620000Y-82370000D01*
X120500000Y-89800000D02*
X119300000Y-91000000D01*
X132490870Y-75224140D02*
X132490870Y-82350000D01*
X150000000Y-105200000D02*
X133680000Y-105200000D01*
X147290000Y-92910000D02*
X150325000Y-89875000D01*
X155250000Y-83311000D02*
X154200000Y-84361000D01*
X134300000Y-91075000D02*
X135500000Y-89875000D01*
X122950000Y-71000000D02*
X123392157Y-70557843D01*
X105500000Y-97400000D02*
X112150000Y-104050000D01*
X120550000Y-85975000D02*
X120550000Y-82375000D01*
X123392157Y-70557843D02*
X143298896Y-70557843D01*
X147290000Y-96500000D02*
X147290000Y-92910000D01*
X116550000Y-77400000D02*
X106200000Y-77400000D01*
X122200000Y-80450000D02*
X122200000Y-81100000D01*
X119300000Y-96500000D02*
X120175000Y-97375000D01*
X148165000Y-97375000D02*
X147290000Y-96500000D01*
X134475000Y-89875000D02*
X135500000Y-89875000D01*
X132490870Y-82350000D02*
X132490870Y-87890870D01*
X144900000Y-72158947D02*
X148650000Y-72158947D01*
X150450000Y-97375000D02*
X150450000Y-104750000D01*
X148955430Y-72219570D02*
X149000000Y-72175000D01*
X104450000Y-79150000D02*
X104300000Y-79300000D01*
X120550000Y-97375000D02*
X120175000Y-97375000D01*
X118900000Y-98975000D02*
X118900000Y-102300000D01*
X150450000Y-104750000D02*
X150000000Y-105200000D01*
X105375000Y-89875000D02*
X104250000Y-88750000D01*
X152200000Y-81100000D02*
X152200000Y-79800000D01*
X150325000Y-89875000D02*
X150450000Y-89875000D01*
X152639000Y-84361000D02*
X154200000Y-84361000D01*
X122950000Y-71000000D02*
X116550000Y-77400000D01*
X148955430Y-78305430D02*
X148955430Y-72219570D01*
X150550000Y-82375000D02*
X150925000Y-82375000D01*
X104300000Y-91075000D02*
X104300000Y-96475000D01*
X104300000Y-96475000D02*
X105225000Y-97400000D01*
X121850000Y-107050000D02*
X118850000Y-104050000D01*
X122850000Y-79800000D02*
X122200000Y-80450000D01*
X105650000Y-89875000D02*
X105375000Y-89875000D01*
X105500000Y-89875000D02*
X104300000Y-91075000D01*
X149000000Y-72175000D02*
X148666053Y-72175000D01*
X106200000Y-77400000D02*
X104450000Y-79150000D01*
X118900000Y-104000000D02*
X118850000Y-104050000D01*
X119300000Y-91000000D02*
X119300000Y-96500000D01*
X120225000Y-89800000D02*
X119300000Y-88875000D01*
X119300000Y-88875000D02*
X119300000Y-87225000D01*
X120500000Y-97375000D02*
X118900000Y-98975000D01*
X135500000Y-97375000D02*
X135225000Y-97375000D01*
X150450000Y-89875000D02*
X150825000Y-89875000D01*
X120925000Y-82375000D02*
X120550000Y-82375000D01*
X152200000Y-79800000D02*
X150450000Y-79800000D01*
X150450000Y-97375000D02*
X148165000Y-97375000D01*
X119300000Y-87225000D02*
X120550000Y-85975000D01*
X150450000Y-89875000D02*
X150725000Y-89875000D01*
X120175000Y-97375000D02*
X120500000Y-97375000D01*
X126544374Y-79800000D02*
X122850000Y-79800000D01*
X122200000Y-81100000D02*
X120925000Y-82375000D01*
X135500000Y-82350000D02*
X132490870Y-82350000D01*
X150725000Y-89875000D02*
X151650000Y-88950000D01*
X105225000Y-97400000D02*
X105500000Y-97400000D01*
X152200000Y-79800000D02*
X155250000Y-79800000D01*
X104250000Y-83775000D02*
X105650000Y-82375000D01*
X148955430Y-78305430D02*
X150450000Y-79800000D01*
X104250000Y-88750000D02*
X104250000Y-83775000D01*
X104620000Y-82370000D02*
X105500000Y-82370000D01*
X112150000Y-104050000D02*
X118850000Y-104050000D01*
%TO.N,GND*%
X153775000Y-95625000D02*
X154250000Y-95625000D01*
X153950000Y-80625000D02*
X153675000Y-80625000D01*
X153675000Y-80625000D02*
X151650000Y-82650000D01*
X130700000Y-102550000D02*
X129165000Y-104085000D01*
X138249740Y-102609740D02*
X138490000Y-102850000D01*
X116750000Y-100550000D02*
X116750000Y-102790000D01*
X148999740Y-102590260D02*
X148740000Y-102850000D01*
X150600000Y-84600000D02*
X151650000Y-83550000D01*
X130902902Y-76290000D02*
X126567902Y-80625000D01*
X148999740Y-100550000D02*
X148999740Y-102590260D01*
X151650000Y-83550000D02*
X151650000Y-82650000D01*
X154050000Y-80625000D02*
X153675000Y-80625000D01*
X129165000Y-104085000D02*
X129165000Y-105325000D01*
X116750000Y-102790000D02*
X116690000Y-102850000D01*
X126567902Y-80625000D02*
X124050000Y-80625000D01*
X154050000Y-80625000D02*
X154325000Y-80625000D01*
X131016730Y-76290000D02*
X130902902Y-76290000D01*
X138249740Y-100550000D02*
X138249740Y-102609740D01*
X151650000Y-82650000D02*
X151650000Y-83200000D01*
%TO.N,+3.3V*%
X125571000Y-104831000D02*
X125561000Y-104841000D01*
X129685000Y-106425000D02*
X127145000Y-106425000D01*
X136248220Y-100550000D02*
X136248220Y-102387220D01*
X128942590Y-80790312D02*
X128942590Y-94392590D01*
X131016730Y-78830000D02*
X130902902Y-78830000D01*
X130435000Y-105325000D02*
X130435000Y-105675000D01*
X128942590Y-94392590D02*
X129300000Y-94750000D01*
X130902902Y-78830000D02*
X128942590Y-80790312D01*
X127145000Y-106425000D02*
X125561000Y-104841000D01*
X125571000Y-102250000D02*
X125571000Y-104831000D01*
X114748480Y-100550000D02*
X114748480Y-102687480D01*
X125497960Y-100550000D02*
X125497960Y-102336960D01*
X136248220Y-102387220D02*
X136711000Y-102850000D01*
X114748480Y-102687480D02*
X114911000Y-102850000D01*
X125561000Y-104841000D02*
X125561000Y-102400000D01*
X130435000Y-105675000D02*
X129685000Y-106425000D01*
X129300000Y-94750000D02*
X132250000Y-94750000D01*
X120410000Y-71000000D02*
X116110000Y-75300000D01*
X116110000Y-75300000D02*
X106460000Y-75300000D01*
%TO.N,/RS_Power*%
X144750000Y-98301780D02*
X146998220Y-100550000D01*
X144750000Y-96500000D02*
X144750000Y-98301780D01*
X146998220Y-102812780D02*
X146961000Y-102850000D01*
X146998220Y-100550000D02*
X146998220Y-102812780D01*
D21*
%TO.N,AD0*%
X126951471Y-72998529D02*
X126951471Y-76951471D01*
X126027943Y-77875000D02*
X126051471Y-77851471D01*
X128892157Y-71057843D02*
X127075000Y-72875000D01*
X146881290Y-73750000D02*
X145790237Y-72658947D01*
X140882843Y-71057843D02*
X128892157Y-71057843D01*
X117640000Y-77900000D02*
X124407107Y-77900000D01*
X124407107Y-77900000D02*
X124432107Y-77875000D01*
X124432107Y-77875000D02*
X126027943Y-77875000D01*
X128892157Y-71057843D02*
X126951471Y-72998529D01*
X142483947Y-72658947D02*
X140882843Y-71057843D01*
X126951471Y-76951471D02*
X126051471Y-77851471D01*
X145790237Y-72658947D02*
X142483947Y-72658947D01*
X114790000Y-80750000D02*
X117640000Y-77900000D01*
%TO.N,/Led Driver*%
X113350000Y-90700000D02*
X113350000Y-89350000D01*
X113650000Y-83650000D02*
X112800000Y-84500000D01*
X112250000Y-80750000D02*
X112550000Y-80750000D01*
X113650000Y-81850000D02*
X113650000Y-83650000D01*
X106225000Y-81350000D02*
X105500000Y-80625000D01*
X112250000Y-91960000D02*
X112210000Y-92000000D01*
X111650000Y-81350000D02*
X106225000Y-81350000D01*
X113550000Y-87600000D02*
X113550000Y-85800000D01*
X113350000Y-89350000D02*
X112250000Y-88250000D01*
X112800000Y-84500000D02*
X112250000Y-84500000D01*
X112250000Y-88250000D02*
X112900000Y-88250000D01*
X112210000Y-91840000D02*
X113350000Y-90700000D01*
X112210000Y-92000000D02*
X112210000Y-91840000D01*
X112900000Y-88250000D02*
X113550000Y-87600000D01*
X113550000Y-85800000D02*
X112250000Y-84500000D01*
X112550000Y-80750000D02*
X113650000Y-81850000D01*
X112250000Y-80750000D02*
X111650000Y-81350000D01*
%TO.N,/L1-L2*%
X107675000Y-82375000D02*
X105650000Y-84400000D01*
X105650000Y-88125000D02*
X105650000Y-84400000D01*
X109150000Y-82375000D02*
X107675000Y-82375000D01*
%TO.N,/L2-L3*%
X109000000Y-89875000D02*
X109000000Y-92150000D01*
X109000000Y-92150000D02*
X105500000Y-95650000D01*
%TO.N,/L3-L4*%
X109100000Y-97400000D02*
X117600000Y-97400000D01*
X117600000Y-97400000D02*
X118750000Y-96250000D01*
X118750000Y-85769339D02*
X118900000Y-85619340D01*
X118900000Y-85619340D02*
X118900000Y-82275000D01*
X118750000Y-96250000D02*
X118750000Y-85769339D01*
X120550000Y-80625000D02*
X118917066Y-82257934D01*
X118900000Y-82275000D02*
X120550000Y-80625000D01*
%TO.N,/L4-L5*%
X120500000Y-88050000D02*
X121200000Y-87350000D01*
X121200000Y-87350000D02*
X121200000Y-83600000D01*
X123225000Y-83200000D02*
X124050000Y-82375000D01*
X123225000Y-83200000D02*
X121600000Y-83200000D01*
X121600000Y-83200000D02*
X121200000Y-83600000D01*
%TO.N,/L5-L6*%
X121000000Y-90800000D02*
X120550000Y-91250000D01*
X120550000Y-91250000D02*
X120550000Y-95625000D01*
X123000000Y-90800000D02*
X121000000Y-90800000D01*
X124000000Y-89800000D02*
X123000000Y-90800000D01*
%TO.N,/L6-L7*%
X125400000Y-96200000D02*
X125225000Y-96200000D01*
X135500000Y-80600000D02*
X133800000Y-80600000D01*
X125225000Y-96200000D02*
X124050000Y-97375000D01*
%TO.N,/L7-L8*%
X139000000Y-82350000D02*
X139000000Y-84625000D01*
X139000000Y-84625000D02*
X135500000Y-88125000D01*
%TO.N,/L8-L9*%
X137325000Y-89875000D02*
X135550000Y-91650000D01*
X139000000Y-89875000D02*
X137325000Y-89875000D01*
X135550000Y-91650000D02*
X135550000Y-95625000D01*
%TO.N,/L9-L10*%
X149350000Y-89780760D02*
X147849556Y-91281204D01*
X140900000Y-97050000D02*
X140900000Y-95510000D01*
X150550000Y-80625000D02*
X149350000Y-81825000D01*
X150325000Y-80400000D02*
X150550000Y-80625000D01*
X145020000Y-91390000D02*
X145040000Y-91390000D01*
X140900000Y-95510000D02*
X145020000Y-91390000D01*
X139000000Y-97375000D02*
X140575000Y-97375000D01*
X150600000Y-80575000D02*
X150550000Y-80625000D01*
X149350000Y-81825000D02*
X149350000Y-89780760D01*
X140575000Y-97375000D02*
X140900000Y-97050000D01*
X145040000Y-91390000D02*
X145035000Y-91390000D01*
%TO.N,/L10-L11*%
X153950000Y-82375000D02*
X153917893Y-82375000D01*
X153917893Y-82375000D02*
X150450000Y-85842893D01*
X150450000Y-88125000D02*
X150450000Y-85842893D01*
%TO.N,/L11-L12*%
X153950000Y-92425000D02*
X150750000Y-95625000D01*
X153950000Y-89875000D02*
X153950000Y-92425000D01*
%TO.N,/L-OUT*%
X154950000Y-98950000D02*
X154950000Y-98375000D01*
X154950000Y-98375000D02*
X153950000Y-97375000D01*
%TD*%
%TA.AperFunction,Conductor*%
%TO.N,GND*%
G36*
X107239027Y-69520185D02*
G01*
X107284782Y-69572989D01*
X107294726Y-69642147D01*
X107265701Y-69705703D01*
X107224393Y-69736882D01*
X107032422Y-69826399D01*
X107032420Y-69826400D01*
X106838926Y-69961886D01*
X106838920Y-69961891D01*
X106671891Y-70128920D01*
X106671886Y-70128926D01*
X106536400Y-70322420D01*
X106536399Y-70322422D01*
X106436570Y-70536507D01*
X106436567Y-70536513D01*
X106379364Y-70749999D01*
X106379364Y-70750000D01*
X107276988Y-70750000D01*
X107244075Y-70807007D01*
X107210000Y-70934174D01*
X107210000Y-71065826D01*
X107244075Y-71192993D01*
X107276988Y-71250000D01*
X106379364Y-71250000D01*
X106436567Y-71463486D01*
X106436570Y-71463492D01*
X106536399Y-71677578D01*
X106671894Y-71871082D01*
X106838917Y-72038105D01*
X107032421Y-72173600D01*
X107246507Y-72273429D01*
X107246516Y-72273433D01*
X107460000Y-72330634D01*
X107460000Y-71433012D01*
X107517007Y-71465925D01*
X107644174Y-71500000D01*
X107775826Y-71500000D01*
X107902993Y-71465925D01*
X107960000Y-71433012D01*
X107960000Y-72330633D01*
X108173483Y-72273433D01*
X108173492Y-72273429D01*
X108387578Y-72173600D01*
X108581082Y-72038105D01*
X108748105Y-71871082D01*
X108878119Y-71685405D01*
X108932696Y-71641781D01*
X109002195Y-71634588D01*
X109064549Y-71666110D01*
X109081269Y-71685405D01*
X109211505Y-71871401D01*
X109378599Y-72038495D01*
X109475384Y-72106265D01*
X109572165Y-72174032D01*
X109572167Y-72174033D01*
X109572170Y-72174035D01*
X109786337Y-72273903D01*
X110014592Y-72335063D01*
X110202918Y-72351539D01*
X110249999Y-72355659D01*
X110250000Y-72355659D01*
X110250001Y-72355659D01*
X110289234Y-72352226D01*
X110485408Y-72335063D01*
X110713663Y-72273903D01*
X110927830Y-72174035D01*
X111121401Y-72038495D01*
X111288495Y-71871401D01*
X111418425Y-71685842D01*
X111473002Y-71642217D01*
X111542500Y-71635023D01*
X111604855Y-71666546D01*
X111621575Y-71685842D01*
X111751281Y-71871082D01*
X111751505Y-71871401D01*
X111918599Y-72038495D01*
X112015384Y-72106265D01*
X112112165Y-72174032D01*
X112112167Y-72174033D01*
X112112170Y-72174035D01*
X112326337Y-72273903D01*
X112554592Y-72335063D01*
X112742918Y-72351539D01*
X112789999Y-72355659D01*
X112790000Y-72355659D01*
X112790001Y-72355659D01*
X112829234Y-72352226D01*
X113025408Y-72335063D01*
X113253663Y-72273903D01*
X113467830Y-72174035D01*
X113661401Y-72038495D01*
X113828495Y-71871401D01*
X113958425Y-71685842D01*
X114013002Y-71642217D01*
X114082500Y-71635023D01*
X114144855Y-71666546D01*
X114161575Y-71685842D01*
X114291281Y-71871082D01*
X114291505Y-71871401D01*
X114458599Y-72038495D01*
X114555384Y-72106265D01*
X114652165Y-72174032D01*
X114652167Y-72174033D01*
X114652170Y-72174035D01*
X114866337Y-72273903D01*
X115094592Y-72335063D01*
X115282918Y-72351539D01*
X115329999Y-72355659D01*
X115330000Y-72355659D01*
X115330001Y-72355659D01*
X115369234Y-72352226D01*
X115565408Y-72335063D01*
X115793663Y-72273903D01*
X116007830Y-72174035D01*
X116201401Y-72038495D01*
X116368495Y-71871401D01*
X116498425Y-71685842D01*
X116553002Y-71642217D01*
X116622500Y-71635023D01*
X116684855Y-71666546D01*
X116701575Y-71685842D01*
X116831281Y-71871082D01*
X116831505Y-71871401D01*
X116998599Y-72038495D01*
X117095384Y-72106265D01*
X117192165Y-72174032D01*
X117192167Y-72174033D01*
X117192170Y-72174035D01*
X117406337Y-72273903D01*
X117634592Y-72335063D01*
X117783194Y-72348064D01*
X117848263Y-72373516D01*
X117889242Y-72430107D01*
X117893120Y-72499869D01*
X117860068Y-72559273D01*
X115856162Y-74563181D01*
X115794839Y-74596666D01*
X115768481Y-74599500D01*
X106885494Y-74599500D01*
X106819523Y-74580494D01*
X106809525Y-74574212D01*
X106639254Y-74514631D01*
X106639249Y-74514630D01*
X106460004Y-74494435D01*
X106459996Y-74494435D01*
X106280750Y-74514630D01*
X106280745Y-74514631D01*
X106110476Y-74574211D01*
X105957737Y-74670184D01*
X105830184Y-74797737D01*
X105734211Y-74950476D01*
X105674631Y-75120745D01*
X105674630Y-75120750D01*
X105654435Y-75299996D01*
X105654435Y-75300003D01*
X105674630Y-75479249D01*
X105674631Y-75479254D01*
X105734211Y-75649523D01*
X105822479Y-75790000D01*
X105830184Y-75802262D01*
X105957738Y-75929816D01*
X106010238Y-75962804D01*
X106110474Y-76025787D01*
X106110478Y-76025789D01*
X106237283Y-76070160D01*
X106280745Y-76085368D01*
X106280750Y-76085369D01*
X106459996Y-76105565D01*
X106460000Y-76105565D01*
X106460004Y-76105565D01*
X106639249Y-76085369D01*
X106639252Y-76085368D01*
X106639255Y-76085368D01*
X106809522Y-76025789D01*
X106810488Y-76025181D01*
X106819523Y-76019506D01*
X106885494Y-76000500D01*
X116178996Y-76000500D01*
X116270040Y-75982389D01*
X116314328Y-75973580D01*
X116399485Y-75938307D01*
X116441807Y-75920777D01*
X116441808Y-75920776D01*
X116441811Y-75920775D01*
X116556543Y-75844114D01*
X120038006Y-72362649D01*
X120099327Y-72329166D01*
X120157778Y-72330557D01*
X120174592Y-72335063D01*
X120323194Y-72348064D01*
X120388263Y-72373516D01*
X120429242Y-72430107D01*
X120433120Y-72499869D01*
X120400068Y-72559273D01*
X116296162Y-76663181D01*
X116234839Y-76696666D01*
X116208481Y-76699500D01*
X106131004Y-76699500D01*
X105995677Y-76726418D01*
X105995667Y-76726421D01*
X105868192Y-76779222D01*
X105753454Y-76855887D01*
X105753453Y-76855888D01*
X104003457Y-78605886D01*
X103755888Y-78853453D01*
X103755887Y-78853454D01*
X103679222Y-78968192D01*
X103626421Y-79095667D01*
X103626420Y-79095671D01*
X103621567Y-79120067D01*
X103601890Y-79218994D01*
X103599500Y-79231007D01*
X103599500Y-81981006D01*
X103599500Y-82118994D01*
X103599500Y-82118996D01*
X103599499Y-82118996D01*
X103626418Y-82254322D01*
X103626421Y-82254332D01*
X103679222Y-82381807D01*
X103755887Y-82496545D01*
X103755888Y-82496546D01*
X104059161Y-82799818D01*
X104092646Y-82861141D01*
X104087662Y-82930832D01*
X104059161Y-82975180D01*
X103705887Y-83328454D01*
X103629222Y-83443192D01*
X103576421Y-83570667D01*
X103576418Y-83570679D01*
X103555617Y-83675255D01*
X103555617Y-83675257D01*
X103549500Y-83706007D01*
X103549500Y-88681006D01*
X103549500Y-88818994D01*
X103549500Y-88818996D01*
X103549499Y-88818996D01*
X103576418Y-88954322D01*
X103576421Y-88954332D01*
X103629222Y-89081807D01*
X103705887Y-89196545D01*
X103705888Y-89196546D01*
X104163181Y-89653838D01*
X104196666Y-89715161D01*
X104199500Y-89741519D01*
X104199500Y-90133480D01*
X104179815Y-90200519D01*
X104163181Y-90221161D01*
X103755888Y-90628453D01*
X103755887Y-90628454D01*
X103679223Y-90743192D01*
X103626421Y-90870668D01*
X103626418Y-90870680D01*
X103615713Y-90924499D01*
X103609553Y-90955470D01*
X103599500Y-91006007D01*
X103599500Y-96406006D01*
X103599500Y-96543994D01*
X103599500Y-96543996D01*
X103599499Y-96543996D01*
X103626418Y-96679322D01*
X103626421Y-96679332D01*
X103679222Y-96806807D01*
X103755887Y-96921545D01*
X103755888Y-96921546D01*
X104163181Y-97328838D01*
X104196666Y-97390161D01*
X104199500Y-97416519D01*
X104199500Y-97872870D01*
X104199501Y-97872876D01*
X104205908Y-97932483D01*
X104256202Y-98067328D01*
X104256206Y-98067335D01*
X104342452Y-98182544D01*
X104342455Y-98182547D01*
X104457664Y-98268793D01*
X104457671Y-98268797D01*
X104592517Y-98319091D01*
X104592516Y-98319091D01*
X104599444Y-98319835D01*
X104652127Y-98325500D01*
X105383480Y-98325499D01*
X105450519Y-98345183D01*
X105471161Y-98361818D01*
X111703453Y-104594111D01*
X111703454Y-104594112D01*
X111818190Y-104670776D01*
X111916790Y-104711617D01*
X111945671Y-104723580D01*
X111945672Y-104723580D01*
X111945677Y-104723582D01*
X111972545Y-104728925D01*
X111972551Y-104728926D01*
X111972591Y-104728934D01*
X112062937Y-104746905D01*
X112081006Y-104750500D01*
X112081007Y-104750500D01*
X118508481Y-104750500D01*
X118575520Y-104770185D01*
X118596162Y-104786819D01*
X121403453Y-107594111D01*
X121403454Y-107594112D01*
X121518192Y-107670777D01*
X121645667Y-107723578D01*
X121645672Y-107723580D01*
X121645676Y-107723580D01*
X121645677Y-107723581D01*
X121781003Y-107750500D01*
X121781006Y-107750500D01*
X131898996Y-107750500D01*
X131990040Y-107732389D01*
X132034328Y-107723580D01*
X132098069Y-107697177D01*
X132161807Y-107670777D01*
X132161808Y-107670776D01*
X132161811Y-107670775D01*
X132276543Y-107594114D01*
X133933838Y-105936819D01*
X133995161Y-105903334D01*
X134021519Y-105900500D01*
X150068996Y-105900500D01*
X150178533Y-105878711D01*
X154899500Y-105878711D01*
X154899500Y-106121288D01*
X154931161Y-106361785D01*
X154993947Y-106596104D01*
X155013525Y-106643369D01*
X155086776Y-106820212D01*
X155208064Y-107030289D01*
X155208066Y-107030292D01*
X155208067Y-107030293D01*
X155355733Y-107222736D01*
X155355739Y-107222743D01*
X155527256Y-107394260D01*
X155527263Y-107394266D01*
X155568336Y-107425782D01*
X155719711Y-107541936D01*
X155929788Y-107663224D01*
X156153900Y-107756054D01*
X156388211Y-107818838D01*
X156568586Y-107842584D01*
X156628711Y-107850500D01*
X156628712Y-107850500D01*
X156871289Y-107850500D01*
X156919388Y-107844167D01*
X157111789Y-107818838D01*
X157346100Y-107756054D01*
X157570212Y-107663224D01*
X157780289Y-107541936D01*
X157972738Y-107394265D01*
X158144265Y-107222738D01*
X158291936Y-107030289D01*
X158413224Y-106820212D01*
X158506054Y-106596100D01*
X158568838Y-106361789D01*
X158600500Y-106121288D01*
X158600500Y-105878712D01*
X158568838Y-105638211D01*
X158506054Y-105403900D01*
X158413224Y-105179788D01*
X158291936Y-104969711D01*
X158176287Y-104818994D01*
X158144266Y-104777263D01*
X158144260Y-104777256D01*
X157972743Y-104605739D01*
X157972736Y-104605733D01*
X157780293Y-104458067D01*
X157780292Y-104458066D01*
X157780289Y-104458064D01*
X157570212Y-104336776D01*
X157570205Y-104336773D01*
X157346104Y-104243947D01*
X157112013Y-104181222D01*
X157111789Y-104181162D01*
X157111788Y-104181161D01*
X157111785Y-104181161D01*
X156871289Y-104149500D01*
X156871288Y-104149500D01*
X156628712Y-104149500D01*
X156628711Y-104149500D01*
X156388214Y-104181161D01*
X156153895Y-104243947D01*
X155929794Y-104336773D01*
X155929785Y-104336777D01*
X155719706Y-104458067D01*
X155527263Y-104605733D01*
X155527256Y-104605739D01*
X155355739Y-104777256D01*
X155355733Y-104777263D01*
X155208067Y-104969706D01*
X155086777Y-105179785D01*
X155086773Y-105179794D01*
X154993947Y-105403895D01*
X154931161Y-105638214D01*
X154899500Y-105878711D01*
X150178533Y-105878711D01*
X150204328Y-105873580D01*
X150268069Y-105847177D01*
X150331807Y-105820777D01*
X150331808Y-105820776D01*
X150331811Y-105820775D01*
X150446543Y-105744114D01*
X150994114Y-105196543D01*
X151070775Y-105081811D01*
X151123580Y-104954328D01*
X151150500Y-104818994D01*
X151150500Y-104681006D01*
X151150500Y-98424499D01*
X151170185Y-98357460D01*
X151222989Y-98311705D01*
X151274500Y-98300499D01*
X151297871Y-98300499D01*
X151297872Y-98300499D01*
X151357483Y-98294091D01*
X151492331Y-98243796D01*
X151607546Y-98157546D01*
X151693796Y-98042331D01*
X151744091Y-97907483D01*
X151750500Y-97847873D01*
X151750499Y-96902135D01*
X152649500Y-96902135D01*
X152649500Y-97847870D01*
X152649501Y-97847876D01*
X152655908Y-97907483D01*
X152706202Y-98042328D01*
X152706206Y-98042335D01*
X152792452Y-98157544D01*
X152792455Y-98157547D01*
X152907664Y-98243793D01*
X152907671Y-98243797D01*
X153042517Y-98294091D01*
X153042516Y-98294091D01*
X153049444Y-98294835D01*
X153102127Y-98300500D01*
X153974901Y-98300499D01*
X154041940Y-98320183D01*
X154062582Y-98336818D01*
X154195564Y-98469800D01*
X154229049Y-98531123D01*
X154224925Y-98598435D01*
X154164632Y-98770742D01*
X154164630Y-98770750D01*
X154144435Y-98949996D01*
X154144435Y-98950003D01*
X154164630Y-99129249D01*
X154164631Y-99129254D01*
X154224211Y-99299523D01*
X154313015Y-99440853D01*
X154320184Y-99452262D01*
X154447738Y-99579816D01*
X154510433Y-99619210D01*
X154595324Y-99672551D01*
X154600478Y-99675789D01*
X154725060Y-99719382D01*
X154770745Y-99735368D01*
X154770750Y-99735369D01*
X154949996Y-99755565D01*
X154950000Y-99755565D01*
X154950004Y-99755565D01*
X155129249Y-99735369D01*
X155129252Y-99735368D01*
X155129255Y-99735368D01*
X155299522Y-99675789D01*
X155452262Y-99579816D01*
X155579816Y-99452262D01*
X155675789Y-99299522D01*
X155735368Y-99129255D01*
X155735369Y-99129249D01*
X155755565Y-98950003D01*
X155755565Y-98949996D01*
X155735369Y-98770750D01*
X155735368Y-98770745D01*
X155696258Y-98658975D01*
X155675789Y-98600478D01*
X155674505Y-98598435D01*
X155593678Y-98469800D01*
X155579816Y-98447738D01*
X155579815Y-98447737D01*
X155577555Y-98444903D01*
X155576665Y-98442724D01*
X155576111Y-98441842D01*
X155576265Y-98441744D01*
X155551146Y-98380216D01*
X155550501Y-98367589D01*
X155550501Y-98295944D01*
X155550501Y-98295943D01*
X155509577Y-98143216D01*
X155500268Y-98127092D01*
X155430524Y-98006290D01*
X155430518Y-98006282D01*
X155286818Y-97862582D01*
X155253333Y-97801259D01*
X155250499Y-97774901D01*
X155250499Y-96902129D01*
X155250498Y-96902123D01*
X155250497Y-96902116D01*
X155244091Y-96842517D01*
X155239353Y-96829815D01*
X155193797Y-96707671D01*
X155193793Y-96707664D01*
X155107547Y-96592455D01*
X155102416Y-96587324D01*
X155068931Y-96526001D01*
X155073915Y-96456309D01*
X155102416Y-96411962D01*
X155107190Y-96407187D01*
X155193350Y-96292093D01*
X155193354Y-96292086D01*
X155243596Y-96157379D01*
X155243598Y-96157372D01*
X155249999Y-96097844D01*
X155250000Y-96097827D01*
X155250000Y-95875000D01*
X152650000Y-95875000D01*
X152650000Y-96097844D01*
X152656401Y-96157372D01*
X152656403Y-96157379D01*
X152706645Y-96292086D01*
X152706649Y-96292093D01*
X152792809Y-96407187D01*
X152797584Y-96411962D01*
X152831069Y-96473285D01*
X152826085Y-96542977D01*
X152797584Y-96587324D01*
X152792452Y-96592455D01*
X152706206Y-96707664D01*
X152706202Y-96707671D01*
X152655908Y-96842517D01*
X152649501Y-96902116D01*
X152649501Y-96902123D01*
X152649500Y-96902135D01*
X151750499Y-96902135D01*
X151750499Y-96902128D01*
X151744091Y-96842517D01*
X151739353Y-96829815D01*
X151693797Y-96707671D01*
X151693793Y-96707664D01*
X151607547Y-96592455D01*
X151602773Y-96587681D01*
X151569288Y-96526358D01*
X151574272Y-96456666D01*
X151602773Y-96412319D01*
X151607542Y-96407548D01*
X151607546Y-96407546D01*
X151693796Y-96292331D01*
X151744091Y-96157483D01*
X151750500Y-96097873D01*
X151750499Y-95525095D01*
X151770183Y-95458057D01*
X151786813Y-95437420D01*
X152072078Y-95152155D01*
X152650000Y-95152155D01*
X152650000Y-95375000D01*
X153700000Y-95375000D01*
X154200000Y-95375000D01*
X155250000Y-95375000D01*
X155250000Y-95152172D01*
X155249999Y-95152155D01*
X155243598Y-95092627D01*
X155243596Y-95092620D01*
X155193354Y-94957913D01*
X155193350Y-94957906D01*
X155107190Y-94842812D01*
X155107187Y-94842809D01*
X154992093Y-94756649D01*
X154992086Y-94756645D01*
X154857379Y-94706403D01*
X154857372Y-94706401D01*
X154797844Y-94700000D01*
X154200000Y-94700000D01*
X154200000Y-95375000D01*
X153700000Y-95375000D01*
X153700000Y-94700000D01*
X153102155Y-94700000D01*
X153042627Y-94706401D01*
X153042620Y-94706403D01*
X152907913Y-94756645D01*
X152907906Y-94756649D01*
X152792812Y-94842809D01*
X152792809Y-94842812D01*
X152706649Y-94957906D01*
X152706645Y-94957913D01*
X152656403Y-95092620D01*
X152656401Y-95092627D01*
X152650000Y-95152155D01*
X152072078Y-95152155D01*
X154308506Y-92915728D01*
X154308511Y-92915724D01*
X154318714Y-92905520D01*
X154318716Y-92905520D01*
X154430520Y-92793716D01*
X154509577Y-92656784D01*
X154550500Y-92504057D01*
X154550500Y-90924499D01*
X154570185Y-90857460D01*
X154622989Y-90811705D01*
X154674500Y-90800499D01*
X154797871Y-90800499D01*
X154797872Y-90800499D01*
X154857483Y-90794091D01*
X154992331Y-90743796D01*
X155107546Y-90657546D01*
X155193796Y-90542331D01*
X155244091Y-90407483D01*
X155250500Y-90347873D01*
X155250499Y-89402128D01*
X155245299Y-89353757D01*
X155244091Y-89342516D01*
X155193797Y-89207671D01*
X155193793Y-89207664D01*
X155107547Y-89092455D01*
X155102416Y-89087324D01*
X155068931Y-89026001D01*
X155073915Y-88956309D01*
X155102416Y-88911962D01*
X155107190Y-88907187D01*
X155193350Y-88792093D01*
X155193354Y-88792086D01*
X155243596Y-88657379D01*
X155243598Y-88657372D01*
X155249999Y-88597844D01*
X155250000Y-88597827D01*
X155250000Y-88375000D01*
X152650000Y-88375000D01*
X152650000Y-88597844D01*
X152656401Y-88657372D01*
X152656403Y-88657379D01*
X152706645Y-88792086D01*
X152706649Y-88792093D01*
X152792809Y-88907187D01*
X152797584Y-88911962D01*
X152831069Y-88973285D01*
X152826085Y-89042977D01*
X152797584Y-89087324D01*
X152792452Y-89092455D01*
X152706206Y-89207664D01*
X152706202Y-89207671D01*
X152655908Y-89342517D01*
X152650908Y-89389027D01*
X152649501Y-89402123D01*
X152649500Y-89402135D01*
X152649500Y-90347870D01*
X152649501Y-90347876D01*
X152655908Y-90407483D01*
X152706202Y-90542328D01*
X152706206Y-90542335D01*
X152792452Y-90657544D01*
X152792455Y-90657547D01*
X152907664Y-90743793D01*
X152907671Y-90743797D01*
X152948696Y-90759098D01*
X153042517Y-90794091D01*
X153102127Y-90800500D01*
X153225500Y-90800499D01*
X153292539Y-90820183D01*
X153338294Y-90872987D01*
X153349500Y-90924499D01*
X153349500Y-92124902D01*
X153329815Y-92191941D01*
X153313181Y-92212583D01*
X150862582Y-94663181D01*
X150801259Y-94696666D01*
X150774901Y-94699500D01*
X149602129Y-94699500D01*
X149602123Y-94699501D01*
X149542516Y-94705908D01*
X149407671Y-94756202D01*
X149407664Y-94756206D01*
X149292455Y-94842452D01*
X149292452Y-94842455D01*
X149206206Y-94957664D01*
X149206202Y-94957671D01*
X149155908Y-95092517D01*
X149149501Y-95152116D01*
X149149501Y-95152123D01*
X149149500Y-95152135D01*
X149149500Y-96097870D01*
X149149501Y-96097876D01*
X149155908Y-96157483D01*
X149206202Y-96292328D01*
X149206206Y-96292335D01*
X149292452Y-96407544D01*
X149297226Y-96412318D01*
X149330711Y-96473641D01*
X149325727Y-96543333D01*
X149297230Y-96587676D01*
X149292455Y-96592450D01*
X149268232Y-96624810D01*
X149212299Y-96666682D01*
X149168965Y-96674500D01*
X148765714Y-96674500D01*
X148698675Y-96654815D01*
X148652920Y-96602011D01*
X148642186Y-96539691D01*
X148643472Y-96525000D01*
X148645659Y-96500000D01*
X148625063Y-96264592D01*
X148563903Y-96036337D01*
X148464035Y-95822171D01*
X148446093Y-95796546D01*
X148328494Y-95628597D01*
X148161404Y-95461508D01*
X148161401Y-95461505D01*
X148161396Y-95461501D01*
X148161393Y-95461499D01*
X148043376Y-95378861D01*
X147999751Y-95324284D01*
X147990500Y-95277287D01*
X147990500Y-93251518D01*
X148010185Y-93184479D01*
X148026814Y-93163842D01*
X150353838Y-90836817D01*
X150415161Y-90803333D01*
X150441519Y-90800499D01*
X151297871Y-90800499D01*
X151297872Y-90800499D01*
X151357483Y-90794091D01*
X151492331Y-90743796D01*
X151607546Y-90657546D01*
X151693796Y-90542331D01*
X151744091Y-90407483D01*
X151750500Y-90347873D01*
X151750499Y-89891518D01*
X151770183Y-89824480D01*
X151786818Y-89803838D01*
X151984998Y-89605659D01*
X152194114Y-89396543D01*
X152270775Y-89281811D01*
X152273804Y-89274500D01*
X152301485Y-89207671D01*
X152323580Y-89154328D01*
X152333136Y-89106286D01*
X152350500Y-89018996D01*
X152350500Y-87652155D01*
X152650000Y-87652155D01*
X152650000Y-87875000D01*
X155250000Y-87875000D01*
X155250000Y-87652172D01*
X155249999Y-87652155D01*
X155243598Y-87592627D01*
X155243596Y-87592620D01*
X155193354Y-87457913D01*
X155193350Y-87457906D01*
X155107190Y-87342812D01*
X155076386Y-87319752D01*
X155034516Y-87263818D01*
X155029532Y-87194127D01*
X155063018Y-87132804D01*
X155107366Y-87104303D01*
X155142090Y-87091352D01*
X155142093Y-87091350D01*
X155257187Y-87005190D01*
X155257190Y-87005187D01*
X155343350Y-86890093D01*
X155343354Y-86890086D01*
X155393596Y-86755379D01*
X155393598Y-86755372D01*
X155399999Y-86695844D01*
X155400000Y-86695827D01*
X155400000Y-86390000D01*
X153000000Y-86390000D01*
X153000000Y-86695844D01*
X153006401Y-86755372D01*
X153006403Y-86755379D01*
X153056645Y-86890086D01*
X153056649Y-86890093D01*
X153144257Y-87007121D01*
X153168675Y-87072585D01*
X153153824Y-87140858D01*
X153104419Y-87190264D01*
X153058253Y-87204721D01*
X153042625Y-87206402D01*
X153042620Y-87206403D01*
X152907913Y-87256645D01*
X152907906Y-87256649D01*
X152792812Y-87342809D01*
X152792809Y-87342812D01*
X152706649Y-87457906D01*
X152706645Y-87457913D01*
X152656403Y-87592620D01*
X152656401Y-87592627D01*
X152650000Y-87652155D01*
X152350500Y-87652155D01*
X152350500Y-85691519D01*
X152370185Y-85624480D01*
X152386819Y-85603838D01*
X152628286Y-85362371D01*
X152879293Y-85111363D01*
X152940614Y-85077880D01*
X153010305Y-85082864D01*
X153066237Y-85124733D01*
X153105069Y-85176607D01*
X153129486Y-85242069D01*
X153114635Y-85310342D01*
X153105069Y-85325227D01*
X153056647Y-85389910D01*
X153056645Y-85389913D01*
X153006403Y-85524620D01*
X153006401Y-85524627D01*
X153000000Y-85584155D01*
X153000000Y-85890000D01*
X155400000Y-85890000D01*
X155400000Y-85584172D01*
X155399999Y-85584155D01*
X155393598Y-85524627D01*
X155393596Y-85524620D01*
X155343354Y-85389913D01*
X155343352Y-85389910D01*
X155294931Y-85325227D01*
X155270514Y-85259762D01*
X155285366Y-85191489D01*
X155294928Y-85176609D01*
X155343796Y-85111331D01*
X155394091Y-84976483D01*
X155400500Y-84916873D01*
X155400499Y-84202518D01*
X155420183Y-84135480D01*
X155436818Y-84114838D01*
X155794111Y-83757546D01*
X155794112Y-83757545D01*
X155794112Y-83757544D01*
X155794114Y-83757543D01*
X155870775Y-83642811D01*
X155923580Y-83515329D01*
X155939342Y-83436086D01*
X155950500Y-83379993D01*
X155950500Y-79731007D01*
X155950500Y-79731004D01*
X155923581Y-79595677D01*
X155923580Y-79595676D01*
X155923580Y-79595672D01*
X155915417Y-79575964D01*
X155870778Y-79468195D01*
X155870771Y-79468182D01*
X155794114Y-79353458D01*
X155794111Y-79353454D01*
X155696545Y-79255888D01*
X155696541Y-79255885D01*
X155581817Y-79179228D01*
X155581804Y-79179221D01*
X155454332Y-79126421D01*
X155454322Y-79126418D01*
X155318995Y-79099500D01*
X155318993Y-79099500D01*
X152268993Y-79099500D01*
X150791519Y-79099500D01*
X150724480Y-79079815D01*
X150703838Y-79063181D01*
X150445109Y-78804452D01*
X150411624Y-78743129D01*
X150416608Y-78673437D01*
X150457305Y-78618394D01*
X150500000Y-78585633D01*
X150500000Y-77688012D01*
X150557007Y-77720925D01*
X150684174Y-77755000D01*
X150815826Y-77755000D01*
X150942993Y-77720925D01*
X151000000Y-77688012D01*
X151000000Y-78585633D01*
X151213483Y-78528433D01*
X151213492Y-78528429D01*
X151427578Y-78428600D01*
X151621082Y-78293105D01*
X151788105Y-78126082D01*
X151923600Y-77932578D01*
X152023429Y-77718492D01*
X152023432Y-77718486D01*
X152080636Y-77505000D01*
X151183012Y-77505000D01*
X151215925Y-77447993D01*
X151250000Y-77320826D01*
X151250000Y-77189174D01*
X151215925Y-77062007D01*
X151183012Y-77005000D01*
X152080636Y-77005000D01*
X152080635Y-77004999D01*
X152023432Y-76791513D01*
X152023429Y-76791507D01*
X151923600Y-76577422D01*
X151923599Y-76577420D01*
X151788113Y-76383926D01*
X151788108Y-76383920D01*
X151621078Y-76216890D01*
X151435405Y-76086879D01*
X151391780Y-76032302D01*
X151384588Y-75962804D01*
X151416110Y-75900449D01*
X151435406Y-75883730D01*
X151483439Y-75850097D01*
X151621401Y-75753495D01*
X151788495Y-75586401D01*
X151924035Y-75392830D01*
X152023903Y-75178663D01*
X152085063Y-74950408D01*
X152105659Y-74715000D01*
X152085063Y-74479592D01*
X152023903Y-74251337D01*
X151924035Y-74037171D01*
X151805616Y-73868051D01*
X151788496Y-73843600D01*
X151763734Y-73818838D01*
X151666567Y-73721671D01*
X151633084Y-73660351D01*
X151638068Y-73590659D01*
X151679939Y-73534725D01*
X151710915Y-73517810D01*
X151842331Y-73468796D01*
X151957546Y-73382546D01*
X152043796Y-73267331D01*
X152094091Y-73132483D01*
X152100500Y-73072873D01*
X152100499Y-71878711D01*
X154899500Y-71878711D01*
X154899500Y-72121288D01*
X154931161Y-72361785D01*
X154993947Y-72596104D01*
X155064628Y-72766743D01*
X155086776Y-72820212D01*
X155208064Y-73030289D01*
X155208066Y-73030292D01*
X155208067Y-73030293D01*
X155355733Y-73222736D01*
X155355739Y-73222743D01*
X155527256Y-73394260D01*
X155527263Y-73394266D01*
X155622696Y-73467494D01*
X155719711Y-73541936D01*
X155929788Y-73663224D01*
X156153900Y-73756054D01*
X156388211Y-73818838D01*
X156568586Y-73842584D01*
X156628711Y-73850500D01*
X156628712Y-73850500D01*
X156871289Y-73850500D01*
X156923707Y-73843599D01*
X157111789Y-73818838D01*
X157346100Y-73756054D01*
X157570212Y-73663224D01*
X157780289Y-73541936D01*
X157972738Y-73394265D01*
X158144265Y-73222738D01*
X158291936Y-73030289D01*
X158413224Y-72820212D01*
X158506054Y-72596100D01*
X158568838Y-72361789D01*
X158600500Y-72121288D01*
X158600500Y-71878712D01*
X158568838Y-71638211D01*
X158506054Y-71403900D01*
X158413224Y-71179788D01*
X158291936Y-70969711D01*
X158144265Y-70777262D01*
X158144260Y-70777256D01*
X157972743Y-70605739D01*
X157972736Y-70605733D01*
X157780293Y-70458067D01*
X157780292Y-70458066D01*
X157780289Y-70458064D01*
X157602357Y-70355335D01*
X157570214Y-70336777D01*
X157570205Y-70336773D01*
X157346104Y-70243947D01*
X157111785Y-70181161D01*
X156871289Y-70149500D01*
X156871288Y-70149500D01*
X156628712Y-70149500D01*
X156628711Y-70149500D01*
X156388214Y-70181161D01*
X156153895Y-70243947D01*
X155929794Y-70336773D01*
X155929785Y-70336777D01*
X155719706Y-70458067D01*
X155527263Y-70605733D01*
X155527256Y-70605739D01*
X155355739Y-70777256D01*
X155355733Y-70777263D01*
X155208067Y-70969706D01*
X155086777Y-71179785D01*
X155086773Y-71179794D01*
X154993947Y-71403895D01*
X154931161Y-71638214D01*
X154899500Y-71878711D01*
X152100499Y-71878711D01*
X152100499Y-71277128D01*
X152094091Y-71217517D01*
X152084944Y-71192993D01*
X152043797Y-71082671D01*
X152043793Y-71082664D01*
X151957547Y-70967455D01*
X151957544Y-70967452D01*
X151842335Y-70881206D01*
X151842328Y-70881202D01*
X151707482Y-70830908D01*
X151707483Y-70830908D01*
X151647883Y-70824501D01*
X151647881Y-70824500D01*
X151647873Y-70824500D01*
X151647864Y-70824500D01*
X149852129Y-70824500D01*
X149852123Y-70824501D01*
X149792516Y-70830908D01*
X149657671Y-70881202D01*
X149657664Y-70881206D01*
X149542455Y-70967452D01*
X149542452Y-70967455D01*
X149456206Y-71082664D01*
X149456202Y-71082671D01*
X149405908Y-71217517D01*
X149399501Y-71277116D01*
X149399501Y-71277123D01*
X149399500Y-71277135D01*
X149399500Y-71350500D01*
X149379815Y-71417539D01*
X149327011Y-71463294D01*
X149275500Y-71474500D01*
X148811907Y-71474500D01*
X148787717Y-71472117D01*
X148742048Y-71463033D01*
X148718994Y-71458447D01*
X148718993Y-71458447D01*
X145241519Y-71458447D01*
X145174480Y-71438762D01*
X145153838Y-71422128D01*
X143745442Y-70013731D01*
X143745441Y-70013730D01*
X143630703Y-69937065D01*
X143503228Y-69884264D01*
X143503218Y-69884261D01*
X143367892Y-69857343D01*
X143367890Y-69857343D01*
X143367889Y-69857343D01*
X124268191Y-69857343D01*
X124201152Y-69837658D01*
X124168926Y-69807656D01*
X124157546Y-69792454D01*
X124157544Y-69792452D01*
X124157543Y-69792451D01*
X124065792Y-69723766D01*
X124023921Y-69667832D01*
X124018937Y-69598141D01*
X124052423Y-69536818D01*
X124113746Y-69503334D01*
X124140103Y-69500500D01*
X156684108Y-69500500D01*
X156746249Y-69500500D01*
X156753736Y-69500726D01*
X157043796Y-69518271D01*
X157058657Y-69520075D01*
X157332864Y-69570326D01*
X157340798Y-69571780D01*
X157355335Y-69575363D01*
X157629172Y-69660695D01*
X157643163Y-69666000D01*
X157904743Y-69783727D01*
X157917989Y-69790680D01*
X158163465Y-69939075D01*
X158175776Y-69947573D01*
X158395140Y-70119433D01*
X158401573Y-70124473D01*
X158412781Y-70134403D01*
X158615596Y-70337218D01*
X158625526Y-70348426D01*
X158745481Y-70501538D01*
X158802422Y-70574217D01*
X158810926Y-70586537D01*
X158822532Y-70605735D01*
X158959316Y-70832004D01*
X158966275Y-70845263D01*
X159083997Y-71106831D01*
X159089306Y-71120832D01*
X159174635Y-71394663D01*
X159178219Y-71409201D01*
X159229923Y-71691340D01*
X159231728Y-71706205D01*
X159249274Y-71996263D01*
X159249500Y-72003750D01*
X159249500Y-81115657D01*
X159229815Y-81182696D01*
X159177011Y-81228451D01*
X159107853Y-81238395D01*
X159044297Y-81209370D01*
X159007569Y-81153975D01*
X159000586Y-81132483D01*
X158951557Y-80981588D01*
X158855051Y-80792184D01*
X158855049Y-80792181D01*
X158855048Y-80792179D01*
X158730109Y-80620213D01*
X158579786Y-80469890D01*
X158407820Y-80344951D01*
X158218414Y-80248444D01*
X158218413Y-80248443D01*
X158218412Y-80248443D01*
X158016243Y-80182754D01*
X158016241Y-80182753D01*
X158016240Y-80182753D01*
X157854957Y-80157208D01*
X157806287Y-80149500D01*
X157593713Y-80149500D01*
X157545042Y-80157208D01*
X157383760Y-80182753D01*
X157181585Y-80248444D01*
X156992179Y-80344951D01*
X156820213Y-80469890D01*
X156669890Y-80620213D01*
X156544951Y-80792179D01*
X156448444Y-80981585D01*
X156382753Y-81183760D01*
X156360596Y-81323657D01*
X156349500Y-81393713D01*
X156349500Y-81606287D01*
X156354347Y-81636890D01*
X156375232Y-81768755D01*
X156382754Y-81816243D01*
X156444502Y-82006284D01*
X156448444Y-82018414D01*
X156544951Y-82207820D01*
X156669890Y-82379786D01*
X156820213Y-82530109D01*
X156992179Y-82655048D01*
X156992181Y-82655049D01*
X156992184Y-82655051D01*
X157181588Y-82751557D01*
X157383757Y-82817246D01*
X157593713Y-82850500D01*
X157593714Y-82850500D01*
X157806286Y-82850500D01*
X157806287Y-82850500D01*
X158016243Y-82817246D01*
X158218412Y-82751557D01*
X158407816Y-82655051D01*
X158484276Y-82599500D01*
X158579786Y-82530109D01*
X158579788Y-82530106D01*
X158579792Y-82530104D01*
X158730104Y-82379792D01*
X158730106Y-82379788D01*
X158730109Y-82379786D01*
X158855048Y-82207820D01*
X158855047Y-82207820D01*
X158855051Y-82207816D01*
X158951557Y-82018412D01*
X159007569Y-81846022D01*
X159047006Y-81788348D01*
X159111365Y-81761150D01*
X159180211Y-81773065D01*
X159231687Y-81820309D01*
X159249500Y-81884342D01*
X159249500Y-88461773D01*
X159229815Y-88528812D01*
X159177011Y-88574567D01*
X159107853Y-88584511D01*
X159044297Y-88555486D01*
X159007570Y-88500094D01*
X159001557Y-88481588D01*
X158905051Y-88292184D01*
X158905049Y-88292181D01*
X158905048Y-88292179D01*
X158780109Y-88120213D01*
X158629786Y-87969890D01*
X158457820Y-87844951D01*
X158268414Y-87748444D01*
X158268413Y-87748443D01*
X158268412Y-87748443D01*
X158066243Y-87682754D01*
X158066241Y-87682753D01*
X158066240Y-87682753D01*
X157873157Y-87652172D01*
X157856287Y-87649500D01*
X157643713Y-87649500D01*
X157626843Y-87652172D01*
X157433760Y-87682753D01*
X157231585Y-87748444D01*
X157042179Y-87844951D01*
X156870213Y-87969890D01*
X156719890Y-88120213D01*
X156594951Y-88292179D01*
X156498444Y-88481585D01*
X156432753Y-88683760D01*
X156408432Y-88837319D01*
X156399500Y-88893713D01*
X156399500Y-89106287D01*
X156406087Y-89147876D01*
X156426142Y-89274500D01*
X156432754Y-89316243D01*
X156497898Y-89516736D01*
X156498444Y-89518414D01*
X156594951Y-89707820D01*
X156719890Y-89879786D01*
X156870213Y-90030109D01*
X157042179Y-90155048D01*
X157042181Y-90155049D01*
X157042184Y-90155051D01*
X157231588Y-90251557D01*
X157433757Y-90317246D01*
X157643713Y-90350500D01*
X157643714Y-90350500D01*
X157856286Y-90350500D01*
X157856287Y-90350500D01*
X158066243Y-90317246D01*
X158268412Y-90251557D01*
X158457816Y-90155051D01*
X158496410Y-90127011D01*
X158629786Y-90030109D01*
X158629788Y-90030106D01*
X158629792Y-90030104D01*
X158780104Y-89879792D01*
X158780106Y-89879788D01*
X158780109Y-89879786D01*
X158905048Y-89707820D01*
X158905047Y-89707820D01*
X158905051Y-89707816D01*
X159001557Y-89518412D01*
X159007569Y-89499907D01*
X159047006Y-89442232D01*
X159111365Y-89415034D01*
X159180211Y-89426949D01*
X159231687Y-89474193D01*
X159249500Y-89538226D01*
X159249500Y-95961773D01*
X159229815Y-96028812D01*
X159177011Y-96074567D01*
X159107853Y-96084511D01*
X159044297Y-96055486D01*
X159007570Y-96000094D01*
X159001557Y-95981588D01*
X158905051Y-95792184D01*
X158905049Y-95792181D01*
X158905048Y-95792179D01*
X158780109Y-95620213D01*
X158629786Y-95469890D01*
X158457820Y-95344951D01*
X158268414Y-95248444D01*
X158268413Y-95248443D01*
X158268412Y-95248443D01*
X158066243Y-95182754D01*
X158066241Y-95182753D01*
X158066240Y-95182753D01*
X157904957Y-95157208D01*
X157856287Y-95149500D01*
X157643713Y-95149500D01*
X157595042Y-95157208D01*
X157433760Y-95182753D01*
X157433757Y-95182754D01*
X157240603Y-95245514D01*
X157231585Y-95248444D01*
X157042179Y-95344951D01*
X156870213Y-95469890D01*
X156719890Y-95620213D01*
X156594951Y-95792179D01*
X156498444Y-95981585D01*
X156432753Y-96183760D01*
X156399500Y-96393713D01*
X156399500Y-96606286D01*
X156426142Y-96774500D01*
X156432754Y-96816243D01*
X156487706Y-96985368D01*
X156498444Y-97018414D01*
X156594951Y-97207820D01*
X156719890Y-97379786D01*
X156870213Y-97530109D01*
X157042179Y-97655048D01*
X157042181Y-97655049D01*
X157042184Y-97655051D01*
X157231588Y-97751557D01*
X157433757Y-97817246D01*
X157643713Y-97850500D01*
X157643714Y-97850500D01*
X157856286Y-97850500D01*
X157856287Y-97850500D01*
X158066243Y-97817246D01*
X158268412Y-97751557D01*
X158457816Y-97655051D01*
X158493594Y-97629057D01*
X158629786Y-97530109D01*
X158629788Y-97530106D01*
X158629792Y-97530104D01*
X158780104Y-97379792D01*
X158780106Y-97379788D01*
X158780109Y-97379786D01*
X158905048Y-97207820D01*
X158905047Y-97207820D01*
X158905051Y-97207816D01*
X159001557Y-97018412D01*
X159007569Y-96999907D01*
X159047006Y-96942232D01*
X159111365Y-96915034D01*
X159180211Y-96926949D01*
X159231687Y-96974193D01*
X159249500Y-97038226D01*
X159249500Y-105996249D01*
X159249274Y-106003736D01*
X159231728Y-106293794D01*
X159229923Y-106308659D01*
X159178219Y-106590798D01*
X159174635Y-106605336D01*
X159089306Y-106879167D01*
X159083997Y-106893168D01*
X158966275Y-107154736D01*
X158959316Y-107167995D01*
X158810928Y-107413459D01*
X158802422Y-107425782D01*
X158625526Y-107651573D01*
X158615596Y-107662781D01*
X158412781Y-107865596D01*
X158401573Y-107875526D01*
X158175782Y-108052422D01*
X158163459Y-108060928D01*
X157917995Y-108209316D01*
X157904736Y-108216275D01*
X157643168Y-108333997D01*
X157629167Y-108339306D01*
X157355336Y-108424635D01*
X157340798Y-108428219D01*
X157058659Y-108479923D01*
X157043794Y-108481728D01*
X156753736Y-108499274D01*
X156746249Y-108499500D01*
X102753751Y-108499500D01*
X102746264Y-108499274D01*
X102462230Y-108482092D01*
X102447366Y-108480287D01*
X102171170Y-108429673D01*
X102156630Y-108426089D01*
X101888561Y-108342555D01*
X101874561Y-108337246D01*
X101618499Y-108222002D01*
X101605240Y-108215043D01*
X101428068Y-108107939D01*
X101364940Y-108069777D01*
X101352620Y-108061273D01*
X101347227Y-108057048D01*
X101131582Y-107888100D01*
X101120374Y-107878170D01*
X100921829Y-107679625D01*
X100911899Y-107668417D01*
X100907829Y-107663222D01*
X100738722Y-107447373D01*
X100730224Y-107435062D01*
X100584955Y-107194758D01*
X100577997Y-107181500D01*
X100565952Y-107154736D01*
X100462751Y-106925434D01*
X100457447Y-106911447D01*
X100373907Y-106643358D01*
X100370326Y-106628829D01*
X100364328Y-106596100D01*
X100319711Y-106352632D01*
X100317907Y-106337769D01*
X100300726Y-106053736D01*
X100300500Y-106046249D01*
X100300500Y-105878711D01*
X100899500Y-105878711D01*
X100899500Y-106121288D01*
X100931161Y-106361785D01*
X100993947Y-106596104D01*
X101013525Y-106643369D01*
X101086776Y-106820212D01*
X101208064Y-107030289D01*
X101208066Y-107030292D01*
X101208067Y-107030293D01*
X101355733Y-107222736D01*
X101355739Y-107222743D01*
X101527256Y-107394260D01*
X101527263Y-107394266D01*
X101568336Y-107425782D01*
X101719711Y-107541936D01*
X101929788Y-107663224D01*
X102153900Y-107756054D01*
X102388211Y-107818838D01*
X102568586Y-107842584D01*
X102628711Y-107850500D01*
X102628712Y-107850500D01*
X102871289Y-107850500D01*
X102919388Y-107844167D01*
X103111789Y-107818838D01*
X103346100Y-107756054D01*
X103570212Y-107663224D01*
X103780289Y-107541936D01*
X103972738Y-107394265D01*
X104144265Y-107222738D01*
X104291936Y-107030289D01*
X104413224Y-106820212D01*
X104506054Y-106596100D01*
X104568838Y-106361789D01*
X104600500Y-106121288D01*
X104600500Y-105878712D01*
X104568838Y-105638211D01*
X104506054Y-105403900D01*
X104413224Y-105179788D01*
X104291936Y-104969711D01*
X104176287Y-104818994D01*
X104144266Y-104777263D01*
X104144260Y-104777256D01*
X103972743Y-104605739D01*
X103972736Y-104605733D01*
X103780293Y-104458067D01*
X103780292Y-104458066D01*
X103780289Y-104458064D01*
X103570212Y-104336776D01*
X103570205Y-104336773D01*
X103346104Y-104243947D01*
X103112013Y-104181222D01*
X103111789Y-104181162D01*
X103111788Y-104181161D01*
X103111785Y-104181161D01*
X102871289Y-104149500D01*
X102871288Y-104149500D01*
X102628712Y-104149500D01*
X102628711Y-104149500D01*
X102388214Y-104181161D01*
X102153895Y-104243947D01*
X101929794Y-104336773D01*
X101929785Y-104336777D01*
X101719706Y-104458067D01*
X101527263Y-104605733D01*
X101527256Y-104605739D01*
X101355739Y-104777256D01*
X101355733Y-104777263D01*
X101208067Y-104969706D01*
X101086777Y-105179785D01*
X101086773Y-105179794D01*
X100993947Y-105403895D01*
X100931161Y-105638214D01*
X100899500Y-105878711D01*
X100300500Y-105878711D01*
X100300500Y-97146424D01*
X100320185Y-97079385D01*
X100372989Y-97033630D01*
X100442147Y-97023686D01*
X100505703Y-97052711D01*
X100534983Y-97090127D01*
X100565500Y-97150019D01*
X100594951Y-97207820D01*
X100719890Y-97379786D01*
X100870213Y-97530109D01*
X101042179Y-97655048D01*
X101042181Y-97655049D01*
X101042184Y-97655051D01*
X101231588Y-97751557D01*
X101433757Y-97817246D01*
X101643713Y-97850500D01*
X101643714Y-97850500D01*
X101856286Y-97850500D01*
X101856287Y-97850500D01*
X102066243Y-97817246D01*
X102268412Y-97751557D01*
X102457816Y-97655051D01*
X102493594Y-97629057D01*
X102629786Y-97530109D01*
X102629788Y-97530106D01*
X102629792Y-97530104D01*
X102780104Y-97379792D01*
X102780106Y-97379788D01*
X102780109Y-97379786D01*
X102905048Y-97207820D01*
X102905047Y-97207820D01*
X102905051Y-97207816D01*
X103001557Y-97018412D01*
X103067246Y-96816243D01*
X103100500Y-96606287D01*
X103100500Y-96393713D01*
X103067246Y-96183757D01*
X103001557Y-95981588D01*
X102905051Y-95792184D01*
X102905049Y-95792181D01*
X102905048Y-95792179D01*
X102780109Y-95620213D01*
X102629786Y-95469890D01*
X102457820Y-95344951D01*
X102268414Y-95248444D01*
X102268413Y-95248443D01*
X102268412Y-95248443D01*
X102066243Y-95182754D01*
X102066241Y-95182753D01*
X102066240Y-95182753D01*
X101904957Y-95157208D01*
X101856287Y-95149500D01*
X101643713Y-95149500D01*
X101595042Y-95157208D01*
X101433760Y-95182753D01*
X101433757Y-95182754D01*
X101240603Y-95245514D01*
X101231585Y-95248444D01*
X101042179Y-95344951D01*
X100870213Y-95469890D01*
X100719890Y-95620213D01*
X100594951Y-95792180D01*
X100534985Y-95909870D01*
X100487010Y-95960666D01*
X100419189Y-95977461D01*
X100353054Y-95954924D01*
X100309603Y-95900208D01*
X100300500Y-95853575D01*
X100300500Y-89646424D01*
X100320185Y-89579385D01*
X100372989Y-89533630D01*
X100442147Y-89523686D01*
X100505703Y-89552711D01*
X100534983Y-89590127D01*
X100563668Y-89646424D01*
X100594951Y-89707820D01*
X100719890Y-89879786D01*
X100870213Y-90030109D01*
X101042179Y-90155048D01*
X101042181Y-90155049D01*
X101042184Y-90155051D01*
X101231588Y-90251557D01*
X101433757Y-90317246D01*
X101643713Y-90350500D01*
X101643714Y-90350500D01*
X101856286Y-90350500D01*
X101856287Y-90350500D01*
X102066243Y-90317246D01*
X102268412Y-90251557D01*
X102457816Y-90155051D01*
X102496410Y-90127011D01*
X102629786Y-90030109D01*
X102629788Y-90030106D01*
X102629792Y-90030104D01*
X102780104Y-89879792D01*
X102780106Y-89879788D01*
X102780109Y-89879786D01*
X102905048Y-89707820D01*
X102905047Y-89707820D01*
X102905051Y-89707816D01*
X103001557Y-89518412D01*
X103067246Y-89316243D01*
X103100500Y-89106287D01*
X103100500Y-88893713D01*
X103067246Y-88683757D01*
X103001557Y-88481588D01*
X102905051Y-88292184D01*
X102905049Y-88292181D01*
X102905048Y-88292179D01*
X102780109Y-88120213D01*
X102629786Y-87969890D01*
X102457820Y-87844951D01*
X102268414Y-87748444D01*
X102268413Y-87748443D01*
X102268412Y-87748443D01*
X102066243Y-87682754D01*
X102066241Y-87682753D01*
X102066240Y-87682753D01*
X101873157Y-87652172D01*
X101856287Y-87649500D01*
X101643713Y-87649500D01*
X101626843Y-87652172D01*
X101433760Y-87682753D01*
X101231585Y-87748444D01*
X101042179Y-87844951D01*
X100870213Y-87969890D01*
X100719890Y-88120213D01*
X100594951Y-88292180D01*
X100534985Y-88409870D01*
X100487010Y-88460666D01*
X100419189Y-88477461D01*
X100353054Y-88454924D01*
X100309603Y-88400208D01*
X100300500Y-88353575D01*
X100300500Y-82146424D01*
X100320185Y-82079385D01*
X100372989Y-82033630D01*
X100442147Y-82023686D01*
X100505703Y-82052711D01*
X100534983Y-82090127D01*
X100563668Y-82146424D01*
X100594951Y-82207820D01*
X100719890Y-82379786D01*
X100870213Y-82530109D01*
X101042179Y-82655048D01*
X101042181Y-82655049D01*
X101042184Y-82655051D01*
X101231588Y-82751557D01*
X101433757Y-82817246D01*
X101643713Y-82850500D01*
X101643714Y-82850500D01*
X101856286Y-82850500D01*
X101856287Y-82850500D01*
X102066243Y-82817246D01*
X102268412Y-82751557D01*
X102457816Y-82655051D01*
X102534276Y-82599500D01*
X102629786Y-82530109D01*
X102629788Y-82530106D01*
X102629792Y-82530104D01*
X102780104Y-82379792D01*
X102780106Y-82379788D01*
X102780109Y-82379786D01*
X102905048Y-82207820D01*
X102905047Y-82207820D01*
X102905051Y-82207816D01*
X103001557Y-82018412D01*
X103067246Y-81816243D01*
X103100500Y-81606287D01*
X103100500Y-81393713D01*
X103067246Y-81183757D01*
X103001557Y-80981588D01*
X102905051Y-80792184D01*
X102905049Y-80792181D01*
X102905048Y-80792179D01*
X102780109Y-80620213D01*
X102629786Y-80469890D01*
X102457820Y-80344951D01*
X102268414Y-80248444D01*
X102268413Y-80248443D01*
X102268412Y-80248443D01*
X102066243Y-80182754D01*
X102066241Y-80182753D01*
X102066240Y-80182753D01*
X101904957Y-80157208D01*
X101856287Y-80149500D01*
X101643713Y-80149500D01*
X101595042Y-80157208D01*
X101433760Y-80182753D01*
X101231585Y-80248444D01*
X101042179Y-80344951D01*
X100870213Y-80469890D01*
X100719890Y-80620213D01*
X100594951Y-80792180D01*
X100534985Y-80909870D01*
X100487010Y-80960666D01*
X100419189Y-80977461D01*
X100353054Y-80954924D01*
X100309603Y-80900208D01*
X100300500Y-80853575D01*
X100300500Y-71953750D01*
X100300726Y-71946263D01*
X100303035Y-71908089D01*
X100304812Y-71878711D01*
X100899500Y-71878711D01*
X100899500Y-72121288D01*
X100931161Y-72361785D01*
X100993947Y-72596104D01*
X101064628Y-72766743D01*
X101086776Y-72820212D01*
X101208064Y-73030289D01*
X101208066Y-73030292D01*
X101208067Y-73030293D01*
X101355733Y-73222736D01*
X101355739Y-73222743D01*
X101527256Y-73394260D01*
X101527263Y-73394266D01*
X101622696Y-73467494D01*
X101719711Y-73541936D01*
X101929788Y-73663224D01*
X102153900Y-73756054D01*
X102388211Y-73818838D01*
X102568586Y-73842584D01*
X102628711Y-73850500D01*
X102628712Y-73850500D01*
X102871289Y-73850500D01*
X102923707Y-73843599D01*
X103111789Y-73818838D01*
X103346100Y-73756054D01*
X103570212Y-73663224D01*
X103780289Y-73541936D01*
X103972738Y-73394265D01*
X104144265Y-73222738D01*
X104291936Y-73030289D01*
X104413224Y-72820212D01*
X104506054Y-72596100D01*
X104568838Y-72361789D01*
X104600500Y-72121288D01*
X104600500Y-71878712D01*
X104568838Y-71638211D01*
X104506054Y-71403900D01*
X104413224Y-71179788D01*
X104291936Y-70969711D01*
X104144265Y-70777262D01*
X104144260Y-70777256D01*
X103972743Y-70605739D01*
X103972736Y-70605733D01*
X103780293Y-70458067D01*
X103780292Y-70458066D01*
X103780289Y-70458064D01*
X103602357Y-70355335D01*
X103570214Y-70336777D01*
X103570205Y-70336773D01*
X103346104Y-70243947D01*
X103111785Y-70181161D01*
X102871289Y-70149500D01*
X102871288Y-70149500D01*
X102628712Y-70149500D01*
X102628711Y-70149500D01*
X102388214Y-70181161D01*
X102153895Y-70243947D01*
X101929794Y-70336773D01*
X101929785Y-70336777D01*
X101719706Y-70458067D01*
X101527263Y-70605733D01*
X101527256Y-70605739D01*
X101355739Y-70777256D01*
X101355733Y-70777263D01*
X101208067Y-70969706D01*
X101086777Y-71179785D01*
X101086773Y-71179794D01*
X100993947Y-71403895D01*
X100931161Y-71638214D01*
X100899500Y-71878711D01*
X100304812Y-71878711D01*
X100317907Y-71662226D01*
X100319712Y-71647366D01*
X100320656Y-71642217D01*
X100370328Y-71371159D01*
X100373906Y-71356645D01*
X100457449Y-71088546D01*
X100462749Y-71074571D01*
X100578000Y-70818492D01*
X100584951Y-70805247D01*
X100730229Y-70564929D01*
X100738716Y-70552633D01*
X100911906Y-70331573D01*
X100921821Y-70320382D01*
X101120382Y-70121821D01*
X101131573Y-70111906D01*
X101352633Y-69938716D01*
X101364929Y-69930229D01*
X101605247Y-69784951D01*
X101618492Y-69778000D01*
X101874571Y-69662749D01*
X101888546Y-69657449D01*
X102156645Y-69573906D01*
X102171159Y-69570328D01*
X102447369Y-69519711D01*
X102462226Y-69517907D01*
X102746264Y-69500726D01*
X102753751Y-69500500D01*
X102815892Y-69500500D01*
X107171988Y-69500500D01*
X107239027Y-69520185D01*
G37*
%TD.AperFunction*%
%TA.AperFunction,Conductor*%
G36*
X128761423Y-78676120D02*
G01*
X128817357Y-78717992D01*
X128841774Y-78783456D01*
X128842090Y-78792302D01*
X128842090Y-78948052D01*
X128845280Y-78968192D01*
X128879025Y-79181248D01*
X128951986Y-79405800D01*
X129040856Y-79580215D01*
X129053752Y-79648884D01*
X129027476Y-79713625D01*
X129018052Y-79724191D01*
X128398477Y-80343766D01*
X128321812Y-80458504D01*
X128269011Y-80585979D01*
X128269008Y-80585991D01*
X128245524Y-80704054D01*
X128245524Y-80704058D01*
X128242090Y-80721319D01*
X128242090Y-93920818D01*
X128223629Y-93985914D01*
X128165189Y-94080659D01*
X128165186Y-94080666D01*
X128110001Y-94247203D01*
X128110001Y-94247204D01*
X128110000Y-94247204D01*
X128099500Y-94349983D01*
X128099500Y-95150001D01*
X128099501Y-95150019D01*
X128110000Y-95252796D01*
X128110001Y-95252799D01*
X128148968Y-95370391D01*
X128151370Y-95440219D01*
X128118943Y-95497076D01*
X127931286Y-95684734D01*
X127819481Y-95796538D01*
X127819475Y-95796546D01*
X127770264Y-95881784D01*
X127770264Y-95881785D01*
X127740423Y-95933471D01*
X127699499Y-96086199D01*
X127699499Y-96086201D01*
X127699499Y-96254302D01*
X127699500Y-96254315D01*
X127699500Y-98127092D01*
X127679815Y-98194131D01*
X127663181Y-98214773D01*
X126287244Y-99590709D01*
X126225921Y-99624194D01*
X126156229Y-99619210D01*
X126134290Y-99608457D01*
X126006264Y-99529187D01*
X126006261Y-99529185D01*
X125837842Y-99463940D01*
X125810036Y-99453168D01*
X125603180Y-99414500D01*
X125392740Y-99414500D01*
X125185884Y-99453168D01*
X125185881Y-99453168D01*
X125185881Y-99453169D01*
X124989658Y-99529185D01*
X124989652Y-99529188D01*
X124810738Y-99639967D01*
X124810736Y-99639969D01*
X124655221Y-99781739D01*
X124598694Y-99856593D01*
X124542585Y-99898229D01*
X124472873Y-99902920D01*
X124411691Y-99869178D01*
X124400786Y-99856593D01*
X124372663Y-99819353D01*
X124344260Y-99781741D01*
X124188743Y-99639969D01*
X124188741Y-99639967D01*
X124009827Y-99529188D01*
X124009821Y-99529185D01*
X123841402Y-99463940D01*
X123813596Y-99453168D01*
X123606740Y-99414500D01*
X123396300Y-99414500D01*
X123189444Y-99453168D01*
X123189441Y-99453168D01*
X123189441Y-99453169D01*
X122993218Y-99529185D01*
X122993212Y-99529188D01*
X122814300Y-99639966D01*
X122760768Y-99688766D01*
X122697963Y-99719382D01*
X122628576Y-99711183D01*
X122577965Y-99671438D01*
X122492547Y-99557335D01*
X122492544Y-99557332D01*
X122377335Y-99471086D01*
X122377328Y-99471082D01*
X122242482Y-99420788D01*
X122242483Y-99420788D01*
X122182883Y-99414381D01*
X122182881Y-99414380D01*
X122182873Y-99414380D01*
X122182864Y-99414380D01*
X120817129Y-99414380D01*
X120817123Y-99414381D01*
X120757516Y-99420788D01*
X120622671Y-99471082D01*
X120622664Y-99471086D01*
X120507455Y-99557332D01*
X120507452Y-99557335D01*
X120421206Y-99672544D01*
X120421202Y-99672551D01*
X120370908Y-99807397D01*
X120364501Y-99866996D01*
X120364500Y-99867015D01*
X120364500Y-101232750D01*
X120364501Y-101232756D01*
X120370908Y-101292363D01*
X120421202Y-101427208D01*
X120421206Y-101427215D01*
X120507452Y-101542424D01*
X120507455Y-101542427D01*
X120622664Y-101628673D01*
X120622671Y-101628677D01*
X120757517Y-101678971D01*
X120757516Y-101678971D01*
X120764444Y-101679715D01*
X120817127Y-101685380D01*
X122182872Y-101685379D01*
X122242483Y-101678971D01*
X122377331Y-101628676D01*
X122492546Y-101542426D01*
X122577859Y-101428461D01*
X122633792Y-101386592D01*
X122703484Y-101381608D01*
X122760660Y-101411135D01*
X122814297Y-101460031D01*
X122814299Y-101460032D01*
X122814300Y-101460033D01*
X122993212Y-101570811D01*
X122993218Y-101570814D01*
X123034788Y-101586918D01*
X123189444Y-101646832D01*
X123396300Y-101685500D01*
X123396302Y-101685500D01*
X123606738Y-101685500D01*
X123606740Y-101685500D01*
X123813596Y-101646832D01*
X124009824Y-101570813D01*
X124188743Y-101460031D01*
X124344260Y-101318259D01*
X124367623Y-101287320D01*
X124423731Y-101245684D01*
X124493443Y-101240991D01*
X124554626Y-101274733D01*
X124587854Y-101336196D01*
X124582760Y-101405378D01*
X124568909Y-101442514D01*
X124568908Y-101442516D01*
X124562501Y-101502116D01*
X124562500Y-101502135D01*
X124562500Y-102997870D01*
X124562501Y-102997876D01*
X124568908Y-103057483D01*
X124619202Y-103192328D01*
X124619206Y-103192335D01*
X124705452Y-103307544D01*
X124705455Y-103307547D01*
X124810811Y-103386417D01*
X124852682Y-103442350D01*
X124860500Y-103485683D01*
X124860500Y-104772006D01*
X124860500Y-104909994D01*
X124860500Y-104909996D01*
X124860499Y-104909996D01*
X124887418Y-105045322D01*
X124887421Y-105045332D01*
X124940222Y-105172807D01*
X125016887Y-105287545D01*
X125016888Y-105287546D01*
X125867162Y-106137819D01*
X125900647Y-106199142D01*
X125895663Y-106268833D01*
X125853791Y-106324767D01*
X125788327Y-106349184D01*
X125779481Y-106349500D01*
X122191519Y-106349500D01*
X122124480Y-106329815D01*
X122103838Y-106313181D01*
X119636819Y-103846162D01*
X119603334Y-103784839D01*
X119600500Y-103758481D01*
X119600500Y-99316518D01*
X119620185Y-99249479D01*
X119636815Y-99228841D01*
X120528838Y-98336817D01*
X120590161Y-98303333D01*
X120616519Y-98300499D01*
X121347871Y-98300499D01*
X121347872Y-98300499D01*
X121407483Y-98294091D01*
X121542331Y-98243796D01*
X121657546Y-98157546D01*
X121743796Y-98042331D01*
X121794091Y-97907483D01*
X121800500Y-97847873D01*
X121800499Y-96902135D01*
X122699500Y-96902135D01*
X122699500Y-97847870D01*
X122699501Y-97847876D01*
X122705908Y-97907483D01*
X122756202Y-98042328D01*
X122756206Y-98042335D01*
X122842452Y-98157544D01*
X122842455Y-98157547D01*
X122957664Y-98243793D01*
X122957671Y-98243797D01*
X123092517Y-98294091D01*
X123092516Y-98294091D01*
X123099444Y-98294835D01*
X123152127Y-98300500D01*
X124847872Y-98300499D01*
X124907483Y-98294091D01*
X125042331Y-98243796D01*
X125157546Y-98157546D01*
X125243796Y-98042331D01*
X125294091Y-97907483D01*
X125300500Y-97847873D01*
X125300499Y-97127588D01*
X125320183Y-97060550D01*
X125372987Y-97014795D01*
X125410616Y-97004369D01*
X125579249Y-96985369D01*
X125579252Y-96985368D01*
X125579255Y-96985368D01*
X125749522Y-96925789D01*
X125902262Y-96829816D01*
X126029816Y-96702262D01*
X126125789Y-96549522D01*
X126185368Y-96379255D01*
X126192345Y-96317331D01*
X126205565Y-96200003D01*
X126205565Y-96199996D01*
X126185369Y-96020750D01*
X126185368Y-96020745D01*
X126160579Y-95949902D01*
X126125789Y-95850478D01*
X126118031Y-95838132D01*
X126029815Y-95697737D01*
X125902262Y-95570184D01*
X125749523Y-95474211D01*
X125579254Y-95414631D01*
X125579250Y-95414630D01*
X125410116Y-95395574D01*
X125345702Y-95368507D01*
X125306147Y-95310913D01*
X125300000Y-95272354D01*
X125300000Y-95152172D01*
X125299999Y-95152155D01*
X125293598Y-95092627D01*
X125293596Y-95092620D01*
X125243354Y-94957913D01*
X125243350Y-94957906D01*
X125157190Y-94842812D01*
X125157187Y-94842809D01*
X125042093Y-94756649D01*
X125042086Y-94756645D01*
X124907379Y-94706403D01*
X124907372Y-94706401D01*
X124847844Y-94700000D01*
X124250000Y-94700000D01*
X124250000Y-95751000D01*
X124230315Y-95818039D01*
X124177511Y-95863794D01*
X124126000Y-95875000D01*
X122700000Y-95875000D01*
X122700000Y-96097844D01*
X122706401Y-96157372D01*
X122706403Y-96157379D01*
X122756645Y-96292086D01*
X122756649Y-96292093D01*
X122842809Y-96407187D01*
X122847584Y-96411962D01*
X122881069Y-96473285D01*
X122876085Y-96542977D01*
X122847584Y-96587324D01*
X122842452Y-96592455D01*
X122756206Y-96707664D01*
X122756202Y-96707671D01*
X122705908Y-96842517D01*
X122699501Y-96902116D01*
X122699501Y-96902123D01*
X122699500Y-96902135D01*
X121800499Y-96902135D01*
X121800499Y-96902128D01*
X121794091Y-96842517D01*
X121789353Y-96829815D01*
X121743797Y-96707671D01*
X121743793Y-96707664D01*
X121657547Y-96592455D01*
X121652773Y-96587681D01*
X121619288Y-96526358D01*
X121624272Y-96456666D01*
X121652773Y-96412319D01*
X121657542Y-96407548D01*
X121657546Y-96407546D01*
X121743796Y-96292331D01*
X121794091Y-96157483D01*
X121800500Y-96097873D01*
X121800499Y-95152155D01*
X122700000Y-95152155D01*
X122700000Y-95375000D01*
X123750000Y-95375000D01*
X123750000Y-94700000D01*
X123152155Y-94700000D01*
X123092627Y-94706401D01*
X123092620Y-94706403D01*
X122957913Y-94756645D01*
X122957906Y-94756649D01*
X122842812Y-94842809D01*
X122842809Y-94842812D01*
X122756649Y-94957906D01*
X122756645Y-94957913D01*
X122706403Y-95092620D01*
X122706401Y-95092627D01*
X122700000Y-95152155D01*
X121800499Y-95152155D01*
X121800499Y-95152128D01*
X121794091Y-95092517D01*
X121790659Y-95083316D01*
X121743797Y-94957671D01*
X121743793Y-94957664D01*
X121657547Y-94842455D01*
X121657544Y-94842452D01*
X121542335Y-94756206D01*
X121542328Y-94756202D01*
X121407482Y-94705908D01*
X121407483Y-94705908D01*
X121347883Y-94699501D01*
X121347881Y-94699500D01*
X121347873Y-94699500D01*
X121347865Y-94699500D01*
X121274500Y-94699500D01*
X121207461Y-94679815D01*
X121161706Y-94627011D01*
X121150500Y-94575500D01*
X121150500Y-91550097D01*
X121170185Y-91483058D01*
X121186819Y-91462416D01*
X121212416Y-91436819D01*
X121273739Y-91403334D01*
X121300097Y-91400500D01*
X122913331Y-91400500D01*
X122913347Y-91400501D01*
X122920943Y-91400501D01*
X123079054Y-91400501D01*
X123079057Y-91400501D01*
X123231785Y-91359577D01*
X123284647Y-91329057D01*
X123284648Y-91329057D01*
X123368709Y-91280524D01*
X123368708Y-91280524D01*
X123368716Y-91280520D01*
X123480520Y-91168716D01*
X123480520Y-91168714D01*
X123490724Y-91158511D01*
X123490728Y-91158506D01*
X123887416Y-90761818D01*
X123948739Y-90728333D01*
X123975097Y-90725499D01*
X124847871Y-90725499D01*
X124847872Y-90725499D01*
X124907483Y-90719091D01*
X125042331Y-90668796D01*
X125157546Y-90582546D01*
X125243796Y-90467331D01*
X125294091Y-90332483D01*
X125300500Y-90272873D01*
X125300499Y-89327128D01*
X125294091Y-89267517D01*
X125274417Y-89214769D01*
X125243797Y-89132671D01*
X125243793Y-89132664D01*
X125157547Y-89017455D01*
X125152416Y-89012324D01*
X125118931Y-88951001D01*
X125123915Y-88881309D01*
X125152416Y-88836962D01*
X125157190Y-88832187D01*
X125243350Y-88717093D01*
X125243354Y-88717086D01*
X125293596Y-88582379D01*
X125293598Y-88582372D01*
X125299999Y-88522844D01*
X125300000Y-88522827D01*
X125300000Y-88300000D01*
X122700000Y-88300000D01*
X122700000Y-88522844D01*
X122706401Y-88582372D01*
X122706403Y-88582379D01*
X122756645Y-88717086D01*
X122756649Y-88717093D01*
X122842809Y-88832187D01*
X122847584Y-88836962D01*
X122881069Y-88898285D01*
X122876085Y-88967977D01*
X122847584Y-89012324D01*
X122842452Y-89017455D01*
X122756206Y-89132664D01*
X122756202Y-89132671D01*
X122705908Y-89267517D01*
X122699501Y-89327116D01*
X122699500Y-89327127D01*
X122699500Y-89741519D01*
X122699501Y-90075500D01*
X122679817Y-90142539D01*
X122627013Y-90188294D01*
X122575501Y-90199500D01*
X121924500Y-90199500D01*
X121857461Y-90179815D01*
X121811706Y-90127011D01*
X121800500Y-90075500D01*
X121800499Y-89327129D01*
X121800498Y-89327123D01*
X121800497Y-89327116D01*
X121794091Y-89267517D01*
X121774417Y-89214769D01*
X121743797Y-89132671D01*
X121743793Y-89132664D01*
X121657547Y-89017455D01*
X121652773Y-89012681D01*
X121619288Y-88951358D01*
X121624272Y-88881666D01*
X121652773Y-88837319D01*
X121657542Y-88832548D01*
X121657546Y-88832546D01*
X121743796Y-88717331D01*
X121794091Y-88582483D01*
X121800500Y-88522873D01*
X121800499Y-87577155D01*
X122700000Y-87577155D01*
X122700000Y-87800000D01*
X123750000Y-87800000D01*
X124250000Y-87800000D01*
X125300000Y-87800000D01*
X125300000Y-87577172D01*
X125299999Y-87577155D01*
X125293598Y-87517627D01*
X125293596Y-87517620D01*
X125243354Y-87382913D01*
X125243350Y-87382906D01*
X125157190Y-87267812D01*
X125157187Y-87267809D01*
X125042093Y-87181649D01*
X125042086Y-87181645D01*
X124907379Y-87131403D01*
X124907372Y-87131401D01*
X124847844Y-87125000D01*
X124250000Y-87125000D01*
X124250000Y-87800000D01*
X123750000Y-87800000D01*
X123750000Y-87125000D01*
X123152155Y-87125000D01*
X123092627Y-87131401D01*
X123092620Y-87131403D01*
X122957913Y-87181645D01*
X122957906Y-87181649D01*
X122842812Y-87267809D01*
X122842809Y-87267812D01*
X122756649Y-87382906D01*
X122756645Y-87382913D01*
X122706403Y-87517620D01*
X122706401Y-87517627D01*
X122700000Y-87577155D01*
X121800499Y-87577155D01*
X121800499Y-87577128D01*
X121794091Y-87517517D01*
X121794091Y-87517516D01*
X121793176Y-87513645D01*
X121794075Y-87453032D01*
X121800500Y-87429058D01*
X121800500Y-87270943D01*
X121800500Y-83924500D01*
X121820185Y-83857461D01*
X121872989Y-83811706D01*
X121924500Y-83800500D01*
X123138331Y-83800500D01*
X123138347Y-83800501D01*
X123145943Y-83800501D01*
X123304054Y-83800501D01*
X123304057Y-83800501D01*
X123456785Y-83759577D01*
X123509647Y-83729057D01*
X123509648Y-83729057D01*
X123593709Y-83680524D01*
X123593708Y-83680524D01*
X123593716Y-83680520D01*
X123705520Y-83568716D01*
X123705520Y-83568714D01*
X123715724Y-83558511D01*
X123715728Y-83558506D01*
X123937416Y-83336818D01*
X123998739Y-83303333D01*
X124025097Y-83300499D01*
X124847871Y-83300499D01*
X124847872Y-83300499D01*
X124907483Y-83294091D01*
X125042331Y-83243796D01*
X125157546Y-83157546D01*
X125243796Y-83042331D01*
X125294091Y-82907483D01*
X125300500Y-82847873D01*
X125300499Y-81902128D01*
X125294468Y-81846024D01*
X125294091Y-81842516D01*
X125243797Y-81707671D01*
X125243793Y-81707664D01*
X125157547Y-81592455D01*
X125152416Y-81587324D01*
X125118931Y-81526001D01*
X125123915Y-81456309D01*
X125152416Y-81411962D01*
X125157190Y-81407187D01*
X125243350Y-81292093D01*
X125243354Y-81292086D01*
X125293596Y-81157379D01*
X125293598Y-81157372D01*
X125299999Y-81097844D01*
X125300000Y-81097827D01*
X125300000Y-80875000D01*
X123874000Y-80875000D01*
X123806961Y-80855315D01*
X123761206Y-80802511D01*
X123750000Y-80751000D01*
X123750000Y-80624500D01*
X123769685Y-80557461D01*
X123822489Y-80511706D01*
X123874000Y-80500500D01*
X126613370Y-80500500D01*
X126704414Y-80482389D01*
X126748702Y-80473580D01*
X126812443Y-80447177D01*
X126876181Y-80420777D01*
X126876182Y-80420776D01*
X126876185Y-80420775D01*
X126990917Y-80344114D01*
X128630409Y-78704620D01*
X128691732Y-78671136D01*
X128761423Y-78676120D01*
G37*
%TD.AperFunction*%
%TA.AperFunction,Conductor*%
G36*
X129566941Y-97870184D02*
G01*
X129587583Y-97886818D01*
X131181901Y-99481137D01*
X131215386Y-99542460D01*
X131210402Y-99612152D01*
X131193488Y-99643128D01*
X131171463Y-99672549D01*
X131171462Y-99672551D01*
X131121168Y-99807397D01*
X131114761Y-99866996D01*
X131114760Y-99867015D01*
X131114760Y-101232750D01*
X131114761Y-101232756D01*
X131121168Y-101292363D01*
X131171462Y-101427208D01*
X131171466Y-101427215D01*
X131257712Y-101542424D01*
X131257715Y-101542427D01*
X131372924Y-101628673D01*
X131372931Y-101628677D01*
X131507777Y-101678971D01*
X131507775Y-101678971D01*
X131539016Y-101682330D01*
X131603567Y-101709068D01*
X131643415Y-101766461D01*
X131649760Y-101805619D01*
X131649760Y-104000500D01*
X131630075Y-104067539D01*
X131577271Y-104113294D01*
X131525761Y-104124500D01*
X131307130Y-104124500D01*
X131307123Y-104124501D01*
X131247515Y-104130909D01*
X131113332Y-104180955D01*
X131043640Y-104185939D01*
X131026668Y-104180955D01*
X130892485Y-104130909D01*
X130892483Y-104130908D01*
X130832883Y-104124501D01*
X130832881Y-104124500D01*
X130832873Y-104124500D01*
X130832864Y-104124500D01*
X130037129Y-104124500D01*
X130037123Y-104124501D01*
X129977515Y-104130909D01*
X129842617Y-104181222D01*
X129772926Y-104186206D01*
X129755952Y-104181222D01*
X129622380Y-104131403D01*
X129622372Y-104131401D01*
X129562844Y-104125000D01*
X129415000Y-104125000D01*
X129415000Y-105451000D01*
X129395315Y-105518039D01*
X129342511Y-105563794D01*
X129291000Y-105575000D01*
X129039000Y-105575000D01*
X128971961Y-105555315D01*
X128926206Y-105502511D01*
X128915000Y-105451000D01*
X128915000Y-104125000D01*
X128767155Y-104125000D01*
X128707627Y-104131401D01*
X128707617Y-104131403D01*
X128574046Y-104181222D01*
X128504355Y-104186206D01*
X128487381Y-104181222D01*
X128352482Y-104130908D01*
X128352483Y-104130908D01*
X128292883Y-104124501D01*
X128292881Y-104124500D01*
X128292873Y-104124500D01*
X128292865Y-104124500D01*
X127595097Y-104124500D01*
X127528058Y-104104815D01*
X127507416Y-104088181D01*
X127168819Y-103749584D01*
X127135334Y-103688261D01*
X127132500Y-103661903D01*
X127132500Y-103450000D01*
X127600000Y-103450000D01*
X127905828Y-103450000D01*
X127905844Y-103449999D01*
X127965372Y-103443598D01*
X127965379Y-103443596D01*
X128100086Y-103393354D01*
X128100093Y-103393350D01*
X128215187Y-103307190D01*
X128215190Y-103307187D01*
X128301350Y-103192093D01*
X128301354Y-103192086D01*
X128351596Y-103057379D01*
X128351598Y-103057372D01*
X128357999Y-102997844D01*
X128358000Y-102997827D01*
X128358000Y-102500000D01*
X127600000Y-102500000D01*
X127600000Y-103450000D01*
X127132500Y-103450000D01*
X127132500Y-102124000D01*
X127152185Y-102056961D01*
X127204989Y-102011206D01*
X127256500Y-102000000D01*
X128358000Y-102000000D01*
X128358000Y-101502172D01*
X128357999Y-101502155D01*
X128351598Y-101442627D01*
X128351596Y-101442619D01*
X128330192Y-101385230D01*
X128243356Y-101472067D01*
X128182033Y-101505552D01*
X128112341Y-101500568D01*
X128067994Y-101472067D01*
X127544707Y-100948780D01*
X127551980Y-100948780D01*
X127653403Y-100921604D01*
X127744337Y-100869103D01*
X127818583Y-100794857D01*
X127871084Y-100703923D01*
X127898260Y-100602500D01*
X127898260Y-100595227D01*
X128461932Y-101158899D01*
X128461933Y-101158899D01*
X128468608Y-101150061D01*
X128562368Y-100961769D01*
X128619934Y-100759444D01*
X128639342Y-100550000D01*
X128639342Y-100549999D01*
X128619934Y-100340555D01*
X128562368Y-100138230D01*
X128468610Y-99949941D01*
X128468608Y-99949937D01*
X128461933Y-99941099D01*
X128461932Y-99941098D01*
X127898260Y-100504771D01*
X127898260Y-100497500D01*
X127871084Y-100396077D01*
X127818583Y-100305143D01*
X127744337Y-100230897D01*
X127653403Y-100178396D01*
X127551980Y-100151220D01*
X127544707Y-100151220D01*
X128105590Y-99590336D01*
X128100078Y-99542825D01*
X128111905Y-99473964D01*
X128135566Y-99440858D01*
X128780520Y-98795906D01*
X128859577Y-98658974D01*
X128900501Y-98506247D01*
X128900501Y-98348132D01*
X128900501Y-98340537D01*
X128900500Y-98340519D01*
X128900500Y-97974499D01*
X128920185Y-97907460D01*
X128972989Y-97861705D01*
X129024500Y-97850499D01*
X129499902Y-97850499D01*
X129566941Y-97870184D01*
G37*
%TD.AperFunction*%
%TA.AperFunction,Conductor*%
G36*
X146088049Y-101230821D02*
G01*
X146098950Y-101243402D01*
X146155480Y-101318259D01*
X146257259Y-101411042D01*
X146293539Y-101470751D01*
X146297720Y-101502678D01*
X146297720Y-101587640D01*
X146278035Y-101654679D01*
X146225231Y-101700434D01*
X146217056Y-101703821D01*
X146210672Y-101706202D01*
X146210664Y-101706206D01*
X146095455Y-101792452D01*
X146095452Y-101792455D01*
X146009206Y-101907664D01*
X146009202Y-101907671D01*
X145958908Y-102042517D01*
X145952501Y-102102116D01*
X145952500Y-102102135D01*
X145952500Y-103597870D01*
X145952501Y-103597876D01*
X145958908Y-103657483D01*
X146005413Y-103782167D01*
X146010397Y-103851859D01*
X145976912Y-103913182D01*
X145915589Y-103946666D01*
X145889231Y-103949500D01*
X142499097Y-103949500D01*
X142432058Y-103929815D01*
X142386303Y-103877011D01*
X142376359Y-103807853D01*
X142405384Y-103744297D01*
X142411416Y-103737819D01*
X142872224Y-103277011D01*
X144308506Y-101840727D01*
X144308511Y-101840724D01*
X144318714Y-101830520D01*
X144318716Y-101830520D01*
X144430520Y-101718716D01*
X144458693Y-101669917D01*
X144509259Y-101621703D01*
X144577865Y-101608479D01*
X144610866Y-101616290D01*
X144689704Y-101646832D01*
X144896560Y-101685500D01*
X144896562Y-101685500D01*
X145106998Y-101685500D01*
X145107000Y-101685500D01*
X145313856Y-101646832D01*
X145510084Y-101570813D01*
X145689003Y-101460031D01*
X145844520Y-101318259D01*
X145901046Y-101243405D01*
X145957155Y-101201770D01*
X146026867Y-101197079D01*
X146088049Y-101230821D01*
G37*
%TD.AperFunction*%
%TA.AperFunction,Conductor*%
G36*
X141807799Y-100220185D02*
G01*
X141853554Y-100272989D01*
X141864760Y-100324500D01*
X141864760Y-101232750D01*
X141864761Y-101232756D01*
X141871168Y-101292363D01*
X141921462Y-101427208D01*
X141921466Y-101427215D01*
X142007712Y-101542424D01*
X142007715Y-101542427D01*
X142122924Y-101628673D01*
X142122931Y-101628677D01*
X142139064Y-101634694D01*
X142257777Y-101678971D01*
X142317387Y-101685380D01*
X142466023Y-101685379D01*
X142533061Y-101705063D01*
X142578816Y-101757867D01*
X142588760Y-101827025D01*
X142559735Y-101890581D01*
X142553703Y-101897060D01*
X140937584Y-103513181D01*
X140876261Y-103546666D01*
X140849903Y-103549500D01*
X139622000Y-103549500D01*
X139554961Y-103529815D01*
X139509206Y-103477011D01*
X139498000Y-103425500D01*
X139498000Y-103100000D01*
X138364000Y-103100000D01*
X138296961Y-103080315D01*
X138251206Y-103027511D01*
X138240000Y-102976000D01*
X138240000Y-102724000D01*
X138259685Y-102656961D01*
X138312489Y-102611206D01*
X138364000Y-102600000D01*
X139498000Y-102600000D01*
X139498000Y-102102172D01*
X139497999Y-102102155D01*
X139491598Y-102042627D01*
X139491596Y-102042620D01*
X139441354Y-101907913D01*
X139441350Y-101907906D01*
X139355190Y-101792812D01*
X139355187Y-101792809D01*
X139240093Y-101706649D01*
X139240086Y-101706645D01*
X139105379Y-101656403D01*
X139105372Y-101656401D01*
X139045844Y-101650000D01*
X138978788Y-101650000D01*
X138911749Y-101630315D01*
X138865994Y-101577511D01*
X138855614Y-101511710D01*
X138855851Y-101509663D01*
X138294968Y-100948780D01*
X138302240Y-100948780D01*
X138403663Y-100921604D01*
X138494597Y-100869103D01*
X138568843Y-100794857D01*
X138621344Y-100703923D01*
X138648520Y-100602500D01*
X138648520Y-100595227D01*
X139212192Y-101158899D01*
X139212193Y-101158899D01*
X139218868Y-101150061D01*
X139312628Y-100961769D01*
X139370194Y-100759444D01*
X139389602Y-100550000D01*
X139389602Y-100549999D01*
X139369767Y-100335941D01*
X139383182Y-100267371D01*
X139431539Y-100216940D01*
X139493238Y-100200500D01*
X141740760Y-100200500D01*
X141807799Y-100220185D01*
G37*
%TD.AperFunction*%
%TA.AperFunction,Conductor*%
G36*
X111058808Y-81970185D02*
G01*
X111066080Y-81975233D01*
X111073792Y-81981006D01*
X111140208Y-82030725D01*
X111157668Y-82043795D01*
X111157671Y-82043797D01*
X111292517Y-82094091D01*
X111292516Y-82094091D01*
X111299444Y-82094835D01*
X111352127Y-82100500D01*
X112925500Y-82100499D01*
X112992539Y-82120184D01*
X113038294Y-82172987D01*
X113049500Y-82224499D01*
X113049500Y-83025500D01*
X113029815Y-83092539D01*
X112977011Y-83138294D01*
X112925500Y-83149500D01*
X111352129Y-83149500D01*
X111352123Y-83149501D01*
X111292516Y-83155908D01*
X111157671Y-83206202D01*
X111157664Y-83206206D01*
X111042455Y-83292452D01*
X111042452Y-83292455D01*
X110956206Y-83407664D01*
X110956202Y-83407671D01*
X110905908Y-83542517D01*
X110899501Y-83602116D01*
X110899500Y-83602135D01*
X110899500Y-85397870D01*
X110899501Y-85397876D01*
X110905908Y-85457483D01*
X110956202Y-85592328D01*
X110956206Y-85592335D01*
X111042452Y-85707544D01*
X111042455Y-85707547D01*
X111157664Y-85793793D01*
X111157671Y-85793797D01*
X111292517Y-85844091D01*
X111292516Y-85844091D01*
X111299444Y-85844835D01*
X111352127Y-85850500D01*
X112699901Y-85850499D01*
X112766940Y-85870184D01*
X112787577Y-85886813D01*
X112913182Y-86012417D01*
X112946666Y-86073738D01*
X112949500Y-86100097D01*
X112949500Y-86775500D01*
X112929815Y-86842539D01*
X112877011Y-86888294D01*
X112825500Y-86899500D01*
X111352129Y-86899500D01*
X111352123Y-86899501D01*
X111292516Y-86905908D01*
X111157671Y-86956202D01*
X111157664Y-86956206D01*
X111042455Y-87042452D01*
X111042452Y-87042455D01*
X110956206Y-87157664D01*
X110956202Y-87157671D01*
X110905908Y-87292517D01*
X110899501Y-87352116D01*
X110899500Y-87352135D01*
X110899500Y-89147870D01*
X110899501Y-89147876D01*
X110905908Y-89207483D01*
X110956202Y-89342328D01*
X110956206Y-89342335D01*
X111042452Y-89457544D01*
X111042455Y-89457547D01*
X111157664Y-89543793D01*
X111157671Y-89543797D01*
X111292517Y-89594091D01*
X111292516Y-89594091D01*
X111299444Y-89594835D01*
X111352127Y-89600500D01*
X112625500Y-89600499D01*
X112692539Y-89620184D01*
X112738294Y-89672987D01*
X112749500Y-89724499D01*
X112749500Y-90399902D01*
X112729815Y-90466941D01*
X112713181Y-90487583D01*
X112587583Y-90613181D01*
X112526260Y-90646666D01*
X112499902Y-90649500D01*
X111312129Y-90649500D01*
X111312123Y-90649501D01*
X111252516Y-90655908D01*
X111117671Y-90706202D01*
X111117664Y-90706206D01*
X111002455Y-90792452D01*
X111002452Y-90792455D01*
X110916206Y-90907664D01*
X110916202Y-90907671D01*
X110865908Y-91042517D01*
X110859501Y-91102116D01*
X110859500Y-91102135D01*
X110859500Y-92897870D01*
X110859501Y-92897876D01*
X110865908Y-92957483D01*
X110916202Y-93092328D01*
X110916206Y-93092335D01*
X111002452Y-93207544D01*
X111002455Y-93207547D01*
X111117664Y-93293793D01*
X111117671Y-93293797D01*
X111252517Y-93344091D01*
X111252516Y-93344091D01*
X111259444Y-93344835D01*
X111312127Y-93350500D01*
X113107872Y-93350499D01*
X113167483Y-93344091D01*
X113302331Y-93293796D01*
X113417546Y-93207546D01*
X113503796Y-93092331D01*
X113552810Y-92960916D01*
X113594681Y-92904984D01*
X113660145Y-92880566D01*
X113728418Y-92895417D01*
X113756673Y-92916569D01*
X113878599Y-93038495D01*
X113975384Y-93106265D01*
X114072165Y-93174032D01*
X114072167Y-93174033D01*
X114072170Y-93174035D01*
X114286337Y-93273903D01*
X114514592Y-93335063D01*
X114691034Y-93350500D01*
X114749999Y-93355659D01*
X114750000Y-93355659D01*
X114750001Y-93355659D01*
X114808966Y-93350500D01*
X114985408Y-93335063D01*
X115213663Y-93273903D01*
X115427830Y-93174035D01*
X115621401Y-93038495D01*
X115788495Y-92871401D01*
X115918425Y-92685842D01*
X115973002Y-92642217D01*
X116042500Y-92635023D01*
X116104855Y-92666546D01*
X116121575Y-92685842D01*
X116251505Y-92871401D01*
X116418599Y-93038495D01*
X116515384Y-93106265D01*
X116612165Y-93174032D01*
X116612167Y-93174033D01*
X116612170Y-93174035D01*
X116826337Y-93273903D01*
X117054592Y-93335063D01*
X117231034Y-93350500D01*
X117289999Y-93355659D01*
X117290000Y-93355659D01*
X117290001Y-93355659D01*
X117348966Y-93350500D01*
X117525408Y-93335063D01*
X117753663Y-93273903D01*
X117967830Y-93174035D01*
X117967831Y-93174034D01*
X117972736Y-93171747D01*
X117973818Y-93174068D01*
X118031211Y-93160053D01*
X118097273Y-93182804D01*
X118140547Y-93237659D01*
X118149500Y-93283921D01*
X118149500Y-95949902D01*
X118129815Y-96016941D01*
X118113181Y-96037583D01*
X117387584Y-96763181D01*
X117326261Y-96796666D01*
X117299903Y-96799500D01*
X110353861Y-96799500D01*
X110286822Y-96779815D01*
X110249362Y-96739581D01*
X110249112Y-96739769D01*
X110247364Y-96737434D01*
X110245027Y-96734924D01*
X110243797Y-96732673D01*
X110243796Y-96732669D01*
X110243793Y-96732665D01*
X110243792Y-96732663D01*
X110157547Y-96617455D01*
X110152416Y-96612324D01*
X110118931Y-96551001D01*
X110123915Y-96481309D01*
X110152416Y-96436962D01*
X110157190Y-96432187D01*
X110243350Y-96317093D01*
X110243354Y-96317086D01*
X110293596Y-96182379D01*
X110293598Y-96182372D01*
X110299999Y-96122844D01*
X110300000Y-96122827D01*
X110300000Y-95900000D01*
X107700000Y-95900000D01*
X107700000Y-96122844D01*
X107706401Y-96182372D01*
X107706403Y-96182379D01*
X107756645Y-96317086D01*
X107756649Y-96317093D01*
X107842809Y-96432187D01*
X107847584Y-96436962D01*
X107881069Y-96498285D01*
X107876085Y-96567977D01*
X107847584Y-96612324D01*
X107842452Y-96617455D01*
X107756206Y-96732664D01*
X107756202Y-96732671D01*
X107705908Y-96867517D01*
X107702187Y-96902135D01*
X107699501Y-96927123D01*
X107699500Y-96927135D01*
X107699500Y-97872870D01*
X107699501Y-97872876D01*
X107705908Y-97932483D01*
X107756202Y-98067328D01*
X107756206Y-98067335D01*
X107842452Y-98182544D01*
X107842455Y-98182547D01*
X107957664Y-98268793D01*
X107957671Y-98268797D01*
X108092517Y-98319091D01*
X108092516Y-98319091D01*
X108099444Y-98319835D01*
X108152127Y-98325500D01*
X109847872Y-98325499D01*
X109907483Y-98319091D01*
X110042331Y-98268796D01*
X110157546Y-98182546D01*
X110243796Y-98067331D01*
X110243798Y-98067323D01*
X110245027Y-98065076D01*
X110246849Y-98063253D01*
X110249112Y-98060231D01*
X110249546Y-98060556D01*
X110294431Y-98015669D01*
X110353861Y-98000500D01*
X117513331Y-98000500D01*
X117513347Y-98000501D01*
X117520943Y-98000501D01*
X117679054Y-98000501D01*
X117679057Y-98000501D01*
X117831785Y-97959577D01*
X117881904Y-97930639D01*
X117968716Y-97880520D01*
X118080520Y-97768716D01*
X118080520Y-97768714D01*
X118090728Y-97758507D01*
X118090729Y-97758504D01*
X118741611Y-97107623D01*
X118802930Y-97074141D01*
X118872622Y-97079125D01*
X118916969Y-97107626D01*
X119163181Y-97353838D01*
X119196666Y-97415161D01*
X119199500Y-97441519D01*
X119199500Y-97633480D01*
X119179815Y-97700519D01*
X119163181Y-97721161D01*
X118355888Y-98528453D01*
X118355887Y-98528454D01*
X118279222Y-98643192D01*
X118226421Y-98770667D01*
X118226420Y-98770671D01*
X118226420Y-98770672D01*
X118209543Y-98855520D01*
X118209543Y-98855521D01*
X118199500Y-98906006D01*
X118199500Y-103225500D01*
X118179815Y-103292539D01*
X118127011Y-103338294D01*
X118075500Y-103349500D01*
X117822000Y-103349500D01*
X117754961Y-103329815D01*
X117709206Y-103277011D01*
X117698000Y-103225500D01*
X117698000Y-103100000D01*
X116564000Y-103100000D01*
X116496961Y-103080315D01*
X116451206Y-103027511D01*
X116440000Y-102976000D01*
X116440000Y-102724000D01*
X116459685Y-102656961D01*
X116512489Y-102611206D01*
X116564000Y-102600000D01*
X117698000Y-102600000D01*
X117698000Y-102102172D01*
X117697999Y-102102155D01*
X117691598Y-102042627D01*
X117691596Y-102042620D01*
X117641354Y-101907913D01*
X117641350Y-101907906D01*
X117555190Y-101792812D01*
X117555187Y-101792809D01*
X117440093Y-101706649D01*
X117440084Y-101706644D01*
X117426197Y-101701465D01*
X117370263Y-101659595D01*
X117345845Y-101594130D01*
X117351210Y-101569465D01*
X117349200Y-101569232D01*
X117356111Y-101509663D01*
X116795228Y-100948780D01*
X116802500Y-100948780D01*
X116903923Y-100921604D01*
X116994857Y-100869103D01*
X117069103Y-100794857D01*
X117121604Y-100703923D01*
X117148780Y-100602500D01*
X117148780Y-100595227D01*
X117712452Y-101158899D01*
X117712453Y-101158899D01*
X117719128Y-101150061D01*
X117812888Y-100961769D01*
X117870454Y-100759444D01*
X117889862Y-100550000D01*
X117889862Y-100549999D01*
X117870454Y-100340555D01*
X117812888Y-100138230D01*
X117719130Y-99949941D01*
X117719128Y-99949937D01*
X117712453Y-99941099D01*
X117712452Y-99941098D01*
X117148780Y-100504771D01*
X117148780Y-100497500D01*
X117121604Y-100396077D01*
X117069103Y-100305143D01*
X116994857Y-100230897D01*
X116903923Y-100178396D01*
X116802500Y-100151220D01*
X116795228Y-100151220D01*
X117356111Y-99590335D01*
X117356110Y-99590334D01*
X117258083Y-99529638D01*
X117258077Y-99529636D01*
X117061936Y-99453651D01*
X116855171Y-99415000D01*
X116644829Y-99415000D01*
X116438064Y-99453651D01*
X116438063Y-99453651D01*
X116241923Y-99529635D01*
X116143887Y-99590335D01*
X116704773Y-100151220D01*
X116697500Y-100151220D01*
X116596077Y-100178396D01*
X116505143Y-100230897D01*
X116430897Y-100305143D01*
X116378396Y-100396077D01*
X116351220Y-100497500D01*
X116351220Y-100504773D01*
X115787545Y-99941098D01*
X115782387Y-99941456D01*
X115714145Y-99926461D01*
X115674847Y-99892481D01*
X115591218Y-99781738D01*
X115435703Y-99639969D01*
X115435701Y-99639967D01*
X115256787Y-99529188D01*
X115256781Y-99529185D01*
X115088362Y-99463940D01*
X115060556Y-99453168D01*
X114853700Y-99414500D01*
X114643260Y-99414500D01*
X114436404Y-99453168D01*
X114436401Y-99453168D01*
X114436401Y-99453169D01*
X114240178Y-99529185D01*
X114240172Y-99529188D01*
X114061258Y-99639967D01*
X114061256Y-99639969D01*
X113905741Y-99781739D01*
X113849214Y-99856593D01*
X113793105Y-99898229D01*
X113723393Y-99902920D01*
X113662211Y-99869178D01*
X113651306Y-99856593D01*
X113623183Y-99819353D01*
X113594780Y-99781741D01*
X113439263Y-99639969D01*
X113439261Y-99639967D01*
X113260347Y-99529188D01*
X113260341Y-99529185D01*
X113091922Y-99463940D01*
X113064116Y-99453168D01*
X112857260Y-99414500D01*
X112646820Y-99414500D01*
X112439964Y-99453168D01*
X112439961Y-99453168D01*
X112439961Y-99453169D01*
X112243738Y-99529185D01*
X112243732Y-99529188D01*
X112064820Y-99639966D01*
X112011288Y-99688766D01*
X111948483Y-99719382D01*
X111879096Y-99711183D01*
X111828485Y-99671438D01*
X111743067Y-99557335D01*
X111743064Y-99557332D01*
X111627855Y-99471086D01*
X111627848Y-99471082D01*
X111493002Y-99420788D01*
X111493003Y-99420788D01*
X111433403Y-99414381D01*
X111433401Y-99414380D01*
X111433393Y-99414380D01*
X111433384Y-99414380D01*
X110067649Y-99414380D01*
X110067643Y-99414381D01*
X110008036Y-99420788D01*
X109873191Y-99471082D01*
X109873184Y-99471086D01*
X109757975Y-99557332D01*
X109757972Y-99557335D01*
X109671726Y-99672544D01*
X109671722Y-99672551D01*
X109621428Y-99807397D01*
X109615021Y-99866996D01*
X109615020Y-99867015D01*
X109615020Y-100225001D01*
X109595335Y-100292040D01*
X109542531Y-100337795D01*
X109473373Y-100347739D01*
X109409817Y-100318714D01*
X109403339Y-100312682D01*
X106836818Y-97746161D01*
X106803333Y-97684838D01*
X106800499Y-97658480D01*
X106800499Y-96927129D01*
X106800498Y-96927123D01*
X106800497Y-96927116D01*
X106794091Y-96867517D01*
X106784766Y-96842516D01*
X106743797Y-96732671D01*
X106743793Y-96732664D01*
X106657547Y-96617455D01*
X106652773Y-96612681D01*
X106619288Y-96551358D01*
X106624272Y-96481666D01*
X106652773Y-96437319D01*
X106657542Y-96432548D01*
X106657546Y-96432546D01*
X106743796Y-96317331D01*
X106794091Y-96182483D01*
X106800500Y-96122873D01*
X106800499Y-95250095D01*
X106820183Y-95183057D01*
X106824939Y-95177155D01*
X107700000Y-95177155D01*
X107700000Y-95400000D01*
X108750000Y-95400000D01*
X109250000Y-95400000D01*
X110300000Y-95400000D01*
X110300000Y-95177172D01*
X110299999Y-95177155D01*
X110293598Y-95117627D01*
X110293596Y-95117620D01*
X110243354Y-94982913D01*
X110243350Y-94982906D01*
X110157190Y-94867812D01*
X110157187Y-94867809D01*
X110042093Y-94781649D01*
X110042086Y-94781645D01*
X109907379Y-94731403D01*
X109907372Y-94731401D01*
X109847844Y-94725000D01*
X109250000Y-94725000D01*
X109250000Y-95400000D01*
X108750000Y-95400000D01*
X108750000Y-94725000D01*
X108152155Y-94725000D01*
X108092627Y-94731401D01*
X108092620Y-94731403D01*
X107957913Y-94781645D01*
X107957906Y-94781649D01*
X107842812Y-94867809D01*
X107842809Y-94867812D01*
X107756649Y-94982906D01*
X107756645Y-94982913D01*
X107706403Y-95117620D01*
X107706401Y-95117627D01*
X107700000Y-95177155D01*
X106824939Y-95177155D01*
X106836813Y-95162420D01*
X109358506Y-92640728D01*
X109358511Y-92640724D01*
X109368714Y-92630520D01*
X109368716Y-92630520D01*
X109480520Y-92518716D01*
X109559577Y-92381784D01*
X109599769Y-92231785D01*
X109599769Y-92231784D01*
X109599775Y-92231785D01*
X109599775Y-92231759D01*
X109600500Y-92229058D01*
X109600500Y-92070943D01*
X109600500Y-90924499D01*
X109620185Y-90857460D01*
X109672989Y-90811705D01*
X109724500Y-90800499D01*
X109847871Y-90800499D01*
X109847872Y-90800499D01*
X109907483Y-90794091D01*
X110042331Y-90743796D01*
X110157546Y-90657546D01*
X110243796Y-90542331D01*
X110294091Y-90407483D01*
X110300500Y-90347873D01*
X110300499Y-89402128D01*
X110295299Y-89353757D01*
X110294091Y-89342516D01*
X110243797Y-89207671D01*
X110243793Y-89207664D01*
X110157547Y-89092455D01*
X110152416Y-89087324D01*
X110118931Y-89026001D01*
X110123915Y-88956309D01*
X110152416Y-88911962D01*
X110157190Y-88907187D01*
X110243350Y-88792093D01*
X110243354Y-88792086D01*
X110293596Y-88657379D01*
X110293598Y-88657372D01*
X110299999Y-88597844D01*
X110300000Y-88597827D01*
X110300000Y-88375000D01*
X107700000Y-88375000D01*
X107700000Y-88597844D01*
X107706401Y-88657372D01*
X107706403Y-88657379D01*
X107756645Y-88792086D01*
X107756649Y-88792093D01*
X107842809Y-88907187D01*
X107847584Y-88911962D01*
X107881069Y-88973285D01*
X107876085Y-89042977D01*
X107847584Y-89087324D01*
X107842452Y-89092455D01*
X107756206Y-89207664D01*
X107756202Y-89207671D01*
X107705908Y-89342517D01*
X107700908Y-89389027D01*
X107699501Y-89402123D01*
X107699500Y-89402135D01*
X107699500Y-90347870D01*
X107699501Y-90347876D01*
X107705908Y-90407483D01*
X107756202Y-90542328D01*
X107756206Y-90542335D01*
X107842452Y-90657544D01*
X107842455Y-90657547D01*
X107957664Y-90743793D01*
X107957671Y-90743797D01*
X107998696Y-90759098D01*
X108092517Y-90794091D01*
X108152127Y-90800500D01*
X108275500Y-90800499D01*
X108342539Y-90820183D01*
X108388294Y-90872987D01*
X108399500Y-90924499D01*
X108399500Y-91849902D01*
X108379815Y-91916941D01*
X108363181Y-91937583D01*
X105612583Y-94688181D01*
X105551260Y-94721666D01*
X105524902Y-94724500D01*
X105124500Y-94724500D01*
X105057461Y-94704815D01*
X105011706Y-94652011D01*
X105000500Y-94600500D01*
X105000500Y-91416518D01*
X105020185Y-91349479D01*
X105036815Y-91328841D01*
X105528838Y-90836817D01*
X105590161Y-90803333D01*
X105616519Y-90800499D01*
X106347871Y-90800499D01*
X106347872Y-90800499D01*
X106407483Y-90794091D01*
X106542331Y-90743796D01*
X106657546Y-90657546D01*
X106743796Y-90542331D01*
X106794091Y-90407483D01*
X106800500Y-90347873D01*
X106800499Y-89402128D01*
X106795299Y-89353757D01*
X106794091Y-89342516D01*
X106743797Y-89207671D01*
X106743793Y-89207664D01*
X106657547Y-89092455D01*
X106652773Y-89087681D01*
X106619288Y-89026358D01*
X106624272Y-88956666D01*
X106652773Y-88912319D01*
X106657542Y-88907548D01*
X106657546Y-88907546D01*
X106743796Y-88792331D01*
X106794091Y-88657483D01*
X106800500Y-88597873D01*
X106800499Y-87652155D01*
X107700000Y-87652155D01*
X107700000Y-87875000D01*
X108750000Y-87875000D01*
X109250000Y-87875000D01*
X110300000Y-87875000D01*
X110300000Y-87652172D01*
X110299999Y-87652155D01*
X110293598Y-87592627D01*
X110293596Y-87592620D01*
X110243354Y-87457913D01*
X110243350Y-87457906D01*
X110157190Y-87342812D01*
X110157187Y-87342809D01*
X110042093Y-87256649D01*
X110042086Y-87256645D01*
X109907379Y-87206403D01*
X109907372Y-87206401D01*
X109847844Y-87200000D01*
X109250000Y-87200000D01*
X109250000Y-87875000D01*
X108750000Y-87875000D01*
X108750000Y-87200000D01*
X108152155Y-87200000D01*
X108092627Y-87206401D01*
X108092620Y-87206403D01*
X107957913Y-87256645D01*
X107957906Y-87256649D01*
X107842812Y-87342809D01*
X107842809Y-87342812D01*
X107756649Y-87457906D01*
X107756645Y-87457913D01*
X107706403Y-87592620D01*
X107706401Y-87592627D01*
X107700000Y-87652155D01*
X106800499Y-87652155D01*
X106800499Y-87652128D01*
X106794091Y-87592517D01*
X106788361Y-87577155D01*
X106743797Y-87457671D01*
X106743793Y-87457664D01*
X106657547Y-87342455D01*
X106657544Y-87342452D01*
X106542335Y-87256206D01*
X106542328Y-87256202D01*
X106407483Y-87205908D01*
X106361243Y-87200937D01*
X106296693Y-87174199D01*
X106256845Y-87116806D01*
X106250500Y-87077648D01*
X106250500Y-84700096D01*
X106270185Y-84633057D01*
X106286814Y-84612420D01*
X107711712Y-83187521D01*
X107773033Y-83154038D01*
X107842725Y-83159022D01*
X107873697Y-83175935D01*
X107957665Y-83238793D01*
X107957668Y-83238795D01*
X107957671Y-83238797D01*
X108092517Y-83289091D01*
X108092516Y-83289091D01*
X108099444Y-83289835D01*
X108152127Y-83295500D01*
X109847872Y-83295499D01*
X109907483Y-83289091D01*
X110042331Y-83238796D01*
X110157546Y-83152546D01*
X110243796Y-83037331D01*
X110294091Y-82902483D01*
X110300500Y-82842873D01*
X110300499Y-82074499D01*
X110320183Y-82007461D01*
X110372987Y-81961706D01*
X110424499Y-81950500D01*
X110991769Y-81950500D01*
X111058808Y-81970185D01*
G37*
%TD.AperFunction*%
%TA.AperFunction,Conductor*%
G36*
X116351220Y-100602500D02*
G01*
X116378396Y-100703923D01*
X116430897Y-100794857D01*
X116505143Y-100869103D01*
X116596077Y-100921604D01*
X116697500Y-100948780D01*
X116704773Y-100948780D01*
X116143887Y-101509663D01*
X116146135Y-101529036D01*
X116134307Y-101597898D01*
X116087128Y-101649433D01*
X116066295Y-101659508D01*
X115939911Y-101706646D01*
X115939910Y-101706647D01*
X115875227Y-101755069D01*
X115809762Y-101779486D01*
X115741489Y-101764634D01*
X115726606Y-101755069D01*
X115661331Y-101706204D01*
X115661330Y-101706203D01*
X115529646Y-101657088D01*
X115473713Y-101615216D01*
X115449296Y-101549752D01*
X115448980Y-101540906D01*
X115448980Y-101502678D01*
X115468665Y-101435639D01*
X115489437Y-101411045D01*
X115591220Y-101318259D01*
X115674850Y-101207514D01*
X115730955Y-101165882D01*
X115782386Y-101158542D01*
X115787545Y-101158900D01*
X116351220Y-100595226D01*
X116351220Y-100602500D01*
G37*
%TD.AperFunction*%
%TA.AperFunction,Conductor*%
G36*
X137850960Y-100602500D02*
G01*
X137878136Y-100703923D01*
X137930637Y-100794857D01*
X138004883Y-100869103D01*
X138095817Y-100921604D01*
X138197240Y-100948780D01*
X138204513Y-100948780D01*
X137643627Y-101509663D01*
X137685743Y-101535740D01*
X137732378Y-101587768D01*
X137743482Y-101656750D01*
X137715529Y-101720784D01*
X137694778Y-101740432D01*
X137675229Y-101755067D01*
X137609765Y-101779486D01*
X137541492Y-101764636D01*
X137526606Y-101755069D01*
X137461331Y-101706204D01*
X137461328Y-101706202D01*
X137326482Y-101655908D01*
X137326483Y-101655908D01*
X137266883Y-101649501D01*
X137266881Y-101649500D01*
X137266873Y-101649500D01*
X137266865Y-101649500D01*
X137072720Y-101649500D01*
X137005681Y-101629815D01*
X136959926Y-101577011D01*
X136948720Y-101525500D01*
X136948720Y-101502678D01*
X136968405Y-101435639D01*
X136989177Y-101411045D01*
X137090960Y-101318259D01*
X137174590Y-101207514D01*
X137230695Y-101165882D01*
X137282126Y-101158542D01*
X137287285Y-101158900D01*
X137850960Y-100595225D01*
X137850960Y-100602500D01*
G37*
%TD.AperFunction*%
%TA.AperFunction,Conductor*%
G36*
X148600960Y-100602500D02*
G01*
X148628136Y-100703923D01*
X148680637Y-100794857D01*
X148754883Y-100869103D01*
X148845817Y-100921604D01*
X148947240Y-100948780D01*
X148954511Y-100948780D01*
X148393627Y-101509663D01*
X148393865Y-101511710D01*
X148382037Y-101580572D01*
X148334858Y-101632107D01*
X148270691Y-101650000D01*
X148184155Y-101650000D01*
X148124627Y-101656401D01*
X148124620Y-101656403D01*
X147989913Y-101706645D01*
X147989910Y-101706647D01*
X147925227Y-101755069D01*
X147859762Y-101779486D01*
X147791489Y-101764634D01*
X147776606Y-101755069D01*
X147748407Y-101733959D01*
X147706538Y-101678026D01*
X147698720Y-101634694D01*
X147698720Y-101502678D01*
X147718405Y-101435639D01*
X147739177Y-101411045D01*
X147840960Y-101318259D01*
X147924590Y-101207514D01*
X147980695Y-101165882D01*
X148032126Y-101158542D01*
X148037285Y-101158900D01*
X148600960Y-100595226D01*
X148600960Y-100602500D01*
G37*
%TD.AperFunction*%
%TA.AperFunction,Conductor*%
G36*
X146582076Y-98815970D02*
G01*
X146710943Y-98850501D01*
X146710946Y-98850501D01*
X146876653Y-98850501D01*
X146876669Y-98850500D01*
X149149903Y-98850500D01*
X149216942Y-98870185D01*
X149237584Y-98886819D01*
X149297921Y-98947156D01*
X149331406Y-99008479D01*
X149334240Y-99034837D01*
X149334240Y-99308541D01*
X149314555Y-99375580D01*
X149261751Y-99421335D01*
X149192593Y-99431279D01*
X149187455Y-99430430D01*
X149104911Y-99415000D01*
X148894569Y-99415000D01*
X148687804Y-99453651D01*
X148687803Y-99453651D01*
X148491663Y-99529635D01*
X148393627Y-99590335D01*
X148954513Y-100151220D01*
X148947240Y-100151220D01*
X148845817Y-100178396D01*
X148754883Y-100230897D01*
X148680637Y-100305143D01*
X148628136Y-100396077D01*
X148600960Y-100497500D01*
X148600960Y-100504773D01*
X148037285Y-99941098D01*
X148032127Y-99941456D01*
X147963885Y-99926461D01*
X147924587Y-99892481D01*
X147840958Y-99781738D01*
X147685443Y-99639969D01*
X147685441Y-99639967D01*
X147506527Y-99529188D01*
X147506521Y-99529185D01*
X147338102Y-99463940D01*
X147310296Y-99453168D01*
X147103440Y-99414500D01*
X146904739Y-99414500D01*
X146837700Y-99394815D01*
X146817058Y-99378181D01*
X146462304Y-99023427D01*
X146428819Y-98962104D01*
X146433803Y-98892412D01*
X146475675Y-98836479D01*
X146541139Y-98812062D01*
X146582076Y-98815970D01*
G37*
%TD.AperFunction*%
%TA.AperFunction,Conductor*%
G36*
X140152729Y-72878028D02*
G01*
X140173370Y-72894661D01*
X141659228Y-74380520D01*
X141659230Y-74380521D01*
X141659234Y-74380524D01*
X141796153Y-74459573D01*
X141796160Y-74459577D01*
X141948887Y-74500501D01*
X141948889Y-74500501D01*
X142114598Y-74500501D01*
X142114614Y-74500500D01*
X143975500Y-74500500D01*
X144042539Y-74520185D01*
X144088294Y-74572989D01*
X144099500Y-74624500D01*
X144099500Y-75063330D01*
X144099499Y-75063348D01*
X144099499Y-75229054D01*
X144099498Y-75229054D01*
X144140422Y-75381784D01*
X144140423Y-75381785D01*
X144142164Y-75384801D01*
X144142168Y-75384815D01*
X144142172Y-75384814D01*
X144219477Y-75518712D01*
X144219481Y-75518717D01*
X144338349Y-75637585D01*
X144338355Y-75637590D01*
X144463181Y-75762416D01*
X144496666Y-75823739D01*
X144499500Y-75850097D01*
X144499500Y-77763330D01*
X144499499Y-77763348D01*
X144499499Y-77929057D01*
X144502425Y-77939977D01*
X144506650Y-77972070D01*
X144506650Y-79509190D01*
X144506649Y-79509208D01*
X144506649Y-79674914D01*
X144506648Y-79674914D01*
X144547573Y-79827645D01*
X144567367Y-79861930D01*
X144568198Y-79863368D01*
X144626629Y-79964574D01*
X144626631Y-79964577D01*
X144745499Y-80083445D01*
X144745505Y-80083450D01*
X145372552Y-80710497D01*
X145406037Y-80771820D01*
X145402802Y-80836496D01*
X145343585Y-81018747D01*
X145343585Y-81018750D01*
X145317450Y-81183760D01*
X145306650Y-81251948D01*
X145306650Y-81488052D01*
X145318470Y-81562681D01*
X145343585Y-81721248D01*
X145416546Y-81945800D01*
X145466479Y-82043797D01*
X145518770Y-82146424D01*
X145523736Y-82156169D01*
X145662506Y-82347171D01*
X145662510Y-82347176D01*
X145662512Y-82347178D01*
X145829462Y-82514128D01*
X145829465Y-82514130D01*
X145864634Y-82539682D01*
X145907300Y-82595012D01*
X145913279Y-82664625D01*
X145880673Y-82726420D01*
X145864634Y-82740318D01*
X145829465Y-82765869D01*
X145829459Y-82765874D01*
X145662510Y-82932823D01*
X145662506Y-82932828D01*
X145523736Y-83123830D01*
X145416546Y-83334199D01*
X145343585Y-83558751D01*
X145306650Y-83791948D01*
X145306650Y-84028051D01*
X145343585Y-84261249D01*
X145343585Y-84261252D01*
X145402802Y-84443502D01*
X145404797Y-84513343D01*
X145372552Y-84569501D01*
X145031286Y-84910768D01*
X144919481Y-85022572D01*
X144919477Y-85022577D01*
X144874490Y-85100499D01*
X144874490Y-85100500D01*
X144840423Y-85159504D01*
X144840423Y-85159505D01*
X144799499Y-85312233D01*
X144799499Y-85312235D01*
X144799499Y-85480336D01*
X144799500Y-85480349D01*
X144799500Y-90013330D01*
X144799499Y-90013348D01*
X144799499Y-90179054D01*
X144799498Y-90179054D01*
X144799499Y-90179057D01*
X144840423Y-90331785D01*
X144854127Y-90355520D01*
X144900060Y-90435079D01*
X144916531Y-90502980D01*
X144893679Y-90569006D01*
X144838757Y-90612196D01*
X144833627Y-90614119D01*
X144690480Y-90664209D01*
X144537737Y-90760184D01*
X144410184Y-90887737D01*
X144314210Y-91040478D01*
X144254630Y-91210750D01*
X144247376Y-91275130D01*
X144220308Y-91339544D01*
X144211837Y-91348926D01*
X140531286Y-95029478D01*
X140531283Y-95029481D01*
X140477447Y-95083316D01*
X140416124Y-95116800D01*
X140346432Y-95111815D01*
X140290499Y-95069944D01*
X140273585Y-95038967D01*
X140243354Y-94957913D01*
X140243350Y-94957906D01*
X140157190Y-94842812D01*
X140157187Y-94842809D01*
X140042093Y-94756649D01*
X140042086Y-94756645D01*
X139907379Y-94706403D01*
X139907372Y-94706401D01*
X139847844Y-94700000D01*
X139250000Y-94700000D01*
X139250000Y-95751000D01*
X139230315Y-95818039D01*
X139177511Y-95863794D01*
X139126000Y-95875000D01*
X137700000Y-95875000D01*
X137700000Y-96097844D01*
X137706401Y-96157372D01*
X137706403Y-96157379D01*
X137756645Y-96292086D01*
X137756649Y-96292093D01*
X137842809Y-96407187D01*
X137847584Y-96411962D01*
X137881069Y-96473285D01*
X137876085Y-96542977D01*
X137847584Y-96587324D01*
X137842452Y-96592455D01*
X137756206Y-96707664D01*
X137756202Y-96707671D01*
X137705908Y-96842517D01*
X137699501Y-96902116D01*
X137699501Y-96902123D01*
X137699500Y-96902135D01*
X137699500Y-97847870D01*
X137699501Y-97847876D01*
X137705908Y-97907483D01*
X137756202Y-98042328D01*
X137756206Y-98042335D01*
X137842452Y-98157544D01*
X137842455Y-98157547D01*
X137957664Y-98243793D01*
X137957671Y-98243797D01*
X138092517Y-98294091D01*
X138092516Y-98294091D01*
X138099444Y-98294835D01*
X138152127Y-98300500D01*
X139847872Y-98300499D01*
X139907483Y-98294091D01*
X140042331Y-98243796D01*
X140157546Y-98157546D01*
X140243796Y-98042331D01*
X140243798Y-98042323D01*
X140245027Y-98040076D01*
X140246849Y-98038253D01*
X140249112Y-98035231D01*
X140249546Y-98035556D01*
X140294431Y-97990669D01*
X140353861Y-97975500D01*
X140488331Y-97975500D01*
X140488347Y-97975501D01*
X140495943Y-97975501D01*
X140654054Y-97975501D01*
X140654057Y-97975501D01*
X140806785Y-97934577D01*
X140856904Y-97905639D01*
X140943716Y-97855520D01*
X140979578Y-97819657D01*
X141040899Y-97786172D01*
X141110591Y-97791156D01*
X141110592Y-97791156D01*
X141117667Y-97793795D01*
X141117669Y-97793796D01*
X141252517Y-97844091D01*
X141252516Y-97844091D01*
X141259444Y-97844835D01*
X141312127Y-97850500D01*
X142909901Y-97850499D01*
X142976940Y-97870184D01*
X142979404Y-97872169D01*
X142979454Y-97872095D01*
X142979457Y-97872097D01*
X142987697Y-97878852D01*
X142997582Y-97886818D01*
X142998349Y-97887585D01*
X142998355Y-97887590D01*
X143313181Y-98202416D01*
X143346666Y-98263739D01*
X143349500Y-98290097D01*
X143349500Y-99290380D01*
X143329815Y-99357419D01*
X143277011Y-99403174D01*
X143225500Y-99414380D01*
X142765357Y-99414380D01*
X142698318Y-99394695D01*
X142677676Y-99378061D01*
X142537970Y-99238355D01*
X142537968Y-99238352D01*
X142419097Y-99119481D01*
X142419096Y-99119480D01*
X142332284Y-99069360D01*
X142332284Y-99069359D01*
X142332280Y-99069358D01*
X142282165Y-99040423D01*
X142129437Y-98999499D01*
X141971323Y-98999499D01*
X141963727Y-98999499D01*
X141963711Y-98999500D01*
X136200098Y-98999500D01*
X136133059Y-98979815D01*
X136112417Y-98963181D01*
X135661416Y-98512180D01*
X135627931Y-98450857D01*
X135632915Y-98381165D01*
X135674787Y-98325232D01*
X135740251Y-98300815D01*
X135749097Y-98300499D01*
X136347871Y-98300499D01*
X136347872Y-98300499D01*
X136407483Y-98294091D01*
X136542331Y-98243796D01*
X136657546Y-98157546D01*
X136743796Y-98042331D01*
X136794091Y-97907483D01*
X136800500Y-97847873D01*
X136800499Y-96902128D01*
X136794091Y-96842517D01*
X136789353Y-96829815D01*
X136743797Y-96707671D01*
X136743793Y-96707664D01*
X136657547Y-96592455D01*
X136652773Y-96587681D01*
X136619288Y-96526358D01*
X136624272Y-96456666D01*
X136652773Y-96412319D01*
X136657542Y-96407548D01*
X136657546Y-96407546D01*
X136743796Y-96292331D01*
X136794091Y-96157483D01*
X136800500Y-96097873D01*
X136800499Y-95152155D01*
X137700000Y-95152155D01*
X137700000Y-95375000D01*
X138750000Y-95375000D01*
X138750000Y-94700000D01*
X138152155Y-94700000D01*
X138092627Y-94706401D01*
X138092620Y-94706403D01*
X137957913Y-94756645D01*
X137957906Y-94756649D01*
X137842812Y-94842809D01*
X137842809Y-94842812D01*
X137756649Y-94957906D01*
X137756645Y-94957913D01*
X137706403Y-95092620D01*
X137706401Y-95092627D01*
X137700000Y-95152155D01*
X136800499Y-95152155D01*
X136800499Y-95152128D01*
X136794091Y-95092517D01*
X136790659Y-95083316D01*
X136743797Y-94957671D01*
X136743793Y-94957664D01*
X136657547Y-94842455D01*
X136657544Y-94842452D01*
X136542335Y-94756206D01*
X136542328Y-94756202D01*
X136407482Y-94705908D01*
X136407483Y-94705908D01*
X136347883Y-94699501D01*
X136347881Y-94699500D01*
X136347873Y-94699500D01*
X136347865Y-94699500D01*
X136274500Y-94699500D01*
X136207461Y-94679815D01*
X136161706Y-94627011D01*
X136150500Y-94575500D01*
X136150500Y-91950097D01*
X136170185Y-91883058D01*
X136186819Y-91862416D01*
X137537416Y-90511819D01*
X137598739Y-90478334D01*
X137625097Y-90475500D01*
X137646139Y-90475500D01*
X137713178Y-90495185D01*
X137750637Y-90535418D01*
X137750888Y-90535231D01*
X137752635Y-90537565D01*
X137754973Y-90540076D01*
X137756207Y-90542336D01*
X137842452Y-90657544D01*
X137842455Y-90657547D01*
X137957664Y-90743793D01*
X137957671Y-90743797D01*
X138092517Y-90794091D01*
X138092516Y-90794091D01*
X138099444Y-90794835D01*
X138152127Y-90800500D01*
X139847872Y-90800499D01*
X139907483Y-90794091D01*
X140042331Y-90743796D01*
X140157546Y-90657546D01*
X140243796Y-90542331D01*
X140294091Y-90407483D01*
X140300500Y-90347873D01*
X140300499Y-89402128D01*
X140295299Y-89353757D01*
X140294091Y-89342516D01*
X140243797Y-89207671D01*
X140243793Y-89207664D01*
X140157547Y-89092455D01*
X140152416Y-89087324D01*
X140118931Y-89026001D01*
X140123915Y-88956309D01*
X140152416Y-88911962D01*
X140157190Y-88907187D01*
X140243350Y-88792093D01*
X140243354Y-88792086D01*
X140293596Y-88657379D01*
X140293598Y-88657372D01*
X140299999Y-88597844D01*
X140300000Y-88597827D01*
X140300000Y-88375000D01*
X137700000Y-88375000D01*
X137700000Y-88597844D01*
X137706401Y-88657372D01*
X137706403Y-88657379D01*
X137756645Y-88792086D01*
X137756649Y-88792093D01*
X137842809Y-88907187D01*
X137847584Y-88911962D01*
X137881069Y-88973285D01*
X137876085Y-89042977D01*
X137847584Y-89087324D01*
X137842452Y-89092455D01*
X137756207Y-89207663D01*
X137754973Y-89209924D01*
X137753150Y-89211746D01*
X137750888Y-89214769D01*
X137750453Y-89214443D01*
X137705569Y-89259331D01*
X137646139Y-89274500D01*
X137245943Y-89274500D01*
X137093214Y-89315423D01*
X137072962Y-89327116D01*
X137046287Y-89342517D01*
X137010581Y-89363131D01*
X136965728Y-89389027D01*
X136897827Y-89405498D01*
X136831801Y-89382646D01*
X136788611Y-89327724D01*
X136787547Y-89324972D01*
X136783985Y-89315423D01*
X136766118Y-89267517D01*
X136743797Y-89207671D01*
X136743793Y-89207664D01*
X136657547Y-89092455D01*
X136652773Y-89087681D01*
X136619288Y-89026358D01*
X136624272Y-88956666D01*
X136652773Y-88912319D01*
X136657542Y-88907548D01*
X136657546Y-88907546D01*
X136743796Y-88792331D01*
X136794091Y-88657483D01*
X136800500Y-88597873D01*
X136800499Y-87725095D01*
X136820183Y-87658057D01*
X136824939Y-87652155D01*
X137700000Y-87652155D01*
X137700000Y-87875000D01*
X138750000Y-87875000D01*
X139250000Y-87875000D01*
X140300000Y-87875000D01*
X140300000Y-87652172D01*
X140299999Y-87652155D01*
X140293598Y-87592627D01*
X140293596Y-87592620D01*
X140243354Y-87457913D01*
X140243350Y-87457906D01*
X140157190Y-87342812D01*
X140157187Y-87342809D01*
X140042093Y-87256649D01*
X140042086Y-87256645D01*
X139907379Y-87206403D01*
X139907372Y-87206401D01*
X139847844Y-87200000D01*
X139250000Y-87200000D01*
X139250000Y-87875000D01*
X138750000Y-87875000D01*
X138750000Y-87200000D01*
X138152155Y-87200000D01*
X138092627Y-87206401D01*
X138092620Y-87206403D01*
X137957913Y-87256645D01*
X137957906Y-87256649D01*
X137842812Y-87342809D01*
X137842809Y-87342812D01*
X137756649Y-87457906D01*
X137756645Y-87457913D01*
X137706403Y-87592620D01*
X137706401Y-87592627D01*
X137700000Y-87652155D01*
X136824939Y-87652155D01*
X136836813Y-87637420D01*
X139358506Y-85115728D01*
X139358511Y-85115724D01*
X139368714Y-85105520D01*
X139368716Y-85105520D01*
X139480520Y-84993716D01*
X139559577Y-84856784D01*
X139600500Y-84704057D01*
X139600500Y-83399499D01*
X139620185Y-83332460D01*
X139672989Y-83286705D01*
X139724500Y-83275499D01*
X139847871Y-83275499D01*
X139847872Y-83275499D01*
X139907483Y-83269091D01*
X140042331Y-83218796D01*
X140157546Y-83132546D01*
X140243796Y-83017331D01*
X140294091Y-82882483D01*
X140300500Y-82822873D01*
X140300499Y-81877128D01*
X140294091Y-81817517D01*
X140293614Y-81816239D01*
X140243797Y-81682671D01*
X140243793Y-81682664D01*
X140157547Y-81567455D01*
X140152416Y-81562324D01*
X140118931Y-81501001D01*
X140123915Y-81431309D01*
X140152416Y-81386962D01*
X140157190Y-81382187D01*
X140243350Y-81267093D01*
X140243354Y-81267086D01*
X140293596Y-81132379D01*
X140293598Y-81132372D01*
X140299999Y-81072844D01*
X140300000Y-81072827D01*
X140300000Y-80850000D01*
X137700000Y-80850000D01*
X137700000Y-81072844D01*
X137706401Y-81132372D01*
X137706403Y-81132379D01*
X137756645Y-81267086D01*
X137756649Y-81267093D01*
X137842809Y-81382187D01*
X137847584Y-81386962D01*
X137881069Y-81448285D01*
X137876085Y-81517977D01*
X137847584Y-81562324D01*
X137842452Y-81567455D01*
X137756206Y-81682664D01*
X137756202Y-81682671D01*
X137705908Y-81817517D01*
X137702111Y-81852838D01*
X137699501Y-81877123D01*
X137699500Y-81877135D01*
X137699500Y-82822870D01*
X137699501Y-82822876D01*
X137705908Y-82882483D01*
X137756202Y-83017328D01*
X137756206Y-83017335D01*
X137842452Y-83132544D01*
X137842455Y-83132547D01*
X137957664Y-83218793D01*
X137957671Y-83218797D01*
X137977244Y-83226097D01*
X138092517Y-83269091D01*
X138152127Y-83275500D01*
X138275500Y-83275499D01*
X138342539Y-83295183D01*
X138388294Y-83347987D01*
X138399500Y-83399499D01*
X138399500Y-84324902D01*
X138379815Y-84391941D01*
X138363181Y-84412583D01*
X135612582Y-87163181D01*
X135551259Y-87196666D01*
X135524901Y-87199500D01*
X134652129Y-87199500D01*
X134652123Y-87199501D01*
X134592516Y-87205908D01*
X134457671Y-87256202D01*
X134457664Y-87256206D01*
X134342455Y-87342452D01*
X134342452Y-87342455D01*
X134256206Y-87457664D01*
X134256202Y-87457671D01*
X134205908Y-87592517D01*
X134199782Y-87649500D01*
X134199501Y-87652123D01*
X134199500Y-87652135D01*
X134199500Y-88309481D01*
X134179815Y-88376520D01*
X134127011Y-88422275D01*
X134057853Y-88432219D01*
X133994297Y-88403194D01*
X133987819Y-88397162D01*
X133227689Y-87637032D01*
X133194204Y-87575709D01*
X133191370Y-87549351D01*
X133191370Y-83174500D01*
X133211055Y-83107461D01*
X133263859Y-83061706D01*
X133315370Y-83050500D01*
X134218965Y-83050500D01*
X134286004Y-83070185D01*
X134318232Y-83100190D01*
X134342449Y-83132541D01*
X134342452Y-83132544D01*
X134342454Y-83132546D01*
X134358210Y-83144341D01*
X134457664Y-83218793D01*
X134457671Y-83218797D01*
X134592517Y-83269091D01*
X134592516Y-83269091D01*
X134599444Y-83269835D01*
X134652127Y-83275500D01*
X136347872Y-83275499D01*
X136407483Y-83269091D01*
X136542331Y-83218796D01*
X136657546Y-83132546D01*
X136743796Y-83017331D01*
X136794091Y-82882483D01*
X136800500Y-82822873D01*
X136800499Y-81877128D01*
X136794091Y-81817517D01*
X136793614Y-81816239D01*
X136743797Y-81682671D01*
X136743793Y-81682664D01*
X136657547Y-81567455D01*
X136652773Y-81562681D01*
X136619288Y-81501358D01*
X136624272Y-81431666D01*
X136652773Y-81387319D01*
X136657542Y-81382548D01*
X136657546Y-81382546D01*
X136743796Y-81267331D01*
X136794091Y-81132483D01*
X136800500Y-81072873D01*
X136800499Y-80127155D01*
X137700000Y-80127155D01*
X137700000Y-80350000D01*
X138750000Y-80350000D01*
X139250000Y-80350000D01*
X140300000Y-80350000D01*
X140300000Y-80127172D01*
X140299999Y-80127155D01*
X140293598Y-80067627D01*
X140293596Y-80067620D01*
X140243354Y-79932913D01*
X140243350Y-79932906D01*
X140157190Y-79817812D01*
X140157187Y-79817809D01*
X140042093Y-79731649D01*
X140042086Y-79731645D01*
X139907379Y-79681403D01*
X139907372Y-79681401D01*
X139847844Y-79675000D01*
X139250000Y-79675000D01*
X139250000Y-80350000D01*
X138750000Y-80350000D01*
X138750000Y-79675000D01*
X138152155Y-79675000D01*
X138092627Y-79681401D01*
X138092620Y-79681403D01*
X137957913Y-79731645D01*
X137957906Y-79731649D01*
X137842812Y-79817809D01*
X137842809Y-79817812D01*
X137756649Y-79932906D01*
X137756645Y-79932913D01*
X137706403Y-80067620D01*
X137706401Y-80067627D01*
X137700000Y-80127155D01*
X136800499Y-80127155D01*
X136800499Y-80127128D01*
X136794091Y-80067517D01*
X136773974Y-80013581D01*
X136743797Y-79932671D01*
X136743793Y-79932664D01*
X136657547Y-79817455D01*
X136657544Y-79817452D01*
X136542335Y-79731206D01*
X136542328Y-79731202D01*
X136407482Y-79680908D01*
X136407483Y-79680908D01*
X136347883Y-79674501D01*
X136347881Y-79674500D01*
X136347873Y-79674500D01*
X136347864Y-79674500D01*
X134652129Y-79674500D01*
X134652123Y-79674501D01*
X134592516Y-79680908D01*
X134457671Y-79731202D01*
X134457664Y-79731206D01*
X134342455Y-79817452D01*
X134320319Y-79847022D01*
X134264384Y-79888893D01*
X134194692Y-79893876D01*
X134155083Y-79877705D01*
X134149519Y-79874209D01*
X133979262Y-79814633D01*
X133979249Y-79814630D01*
X133800004Y-79794435D01*
X133799996Y-79794435D01*
X133620750Y-79814630D01*
X133620745Y-79814631D01*
X133450476Y-79874211D01*
X133381342Y-79917652D01*
X133314106Y-79936652D01*
X133247270Y-79916284D01*
X133202056Y-79863017D01*
X133191370Y-79812658D01*
X133191370Y-75155149D01*
X133191370Y-75155147D01*
X133190849Y-75152530D01*
X133164450Y-75019812D01*
X133135731Y-74950478D01*
X133111647Y-74892332D01*
X133034982Y-74777594D01*
X133034981Y-74777593D01*
X132560148Y-74302761D01*
X132526663Y-74241438D01*
X132529897Y-74176764D01*
X132554435Y-74101248D01*
X132591370Y-73868052D01*
X132591370Y-73631948D01*
X132554435Y-73398752D01*
X132481475Y-73174204D01*
X132432246Y-73077586D01*
X132412401Y-73038638D01*
X132399505Y-72969968D01*
X132425781Y-72905228D01*
X132482888Y-72864971D01*
X132522886Y-72858343D01*
X140085690Y-72858343D01*
X140152729Y-72878028D01*
G37*
%TD.AperFunction*%
%TA.AperFunction,Conductor*%
G36*
X129805403Y-90392805D02*
G01*
X129990832Y-90453055D01*
X130224028Y-90489990D01*
X130224029Y-90489990D01*
X131209431Y-90489990D01*
X131209432Y-90489990D01*
X131442628Y-90453055D01*
X131512198Y-90430449D01*
X131582036Y-90428455D01*
X131638195Y-90460700D01*
X133163181Y-91985686D01*
X133196666Y-92047009D01*
X133199500Y-92073367D01*
X133199500Y-93604557D01*
X133179815Y-93671596D01*
X133127011Y-93717351D01*
X133057853Y-93727295D01*
X133023106Y-93716944D01*
X133019340Y-93715188D01*
X133019331Y-93715185D01*
X132852797Y-93660001D01*
X132852795Y-93660000D01*
X132750010Y-93649500D01*
X131749998Y-93649500D01*
X131749980Y-93649501D01*
X131647203Y-93660000D01*
X131647200Y-93660001D01*
X131480668Y-93715185D01*
X131480663Y-93715187D01*
X131331342Y-93807289D01*
X131207289Y-93931342D01*
X131170741Y-93990597D01*
X131118793Y-94037321D01*
X131065202Y-94049500D01*
X130484798Y-94049500D01*
X130417759Y-94029815D01*
X130379259Y-93990597D01*
X130342712Y-93931344D01*
X130218656Y-93807288D01*
X130072844Y-93717351D01*
X130069336Y-93715187D01*
X130069331Y-93715185D01*
X130067862Y-93714698D01*
X129902797Y-93660001D01*
X129902795Y-93660000D01*
X129800016Y-93649500D01*
X129800009Y-93649500D01*
X129767090Y-93649500D01*
X129700051Y-93629815D01*
X129654296Y-93577011D01*
X129643090Y-93525500D01*
X129643090Y-90510738D01*
X129662775Y-90443699D01*
X129715579Y-90397944D01*
X129784737Y-90388000D01*
X129805403Y-90392805D01*
G37*
%TD.AperFunction*%
%TA.AperFunction,Conductor*%
G36*
X152568834Y-81824337D02*
G01*
X152624767Y-81866209D01*
X152649184Y-81931673D01*
X152649500Y-81940519D01*
X152649500Y-82742795D01*
X152629815Y-82809834D01*
X152613181Y-82830476D01*
X150162181Y-85281476D01*
X150100858Y-85314961D01*
X150031166Y-85309977D01*
X149975233Y-85268105D01*
X149950816Y-85202641D01*
X149950500Y-85193795D01*
X149950500Y-83424499D01*
X149970185Y-83357460D01*
X150022989Y-83311705D01*
X150074500Y-83300499D01*
X151297871Y-83300499D01*
X151297872Y-83300499D01*
X151357483Y-83294091D01*
X151492331Y-83243796D01*
X151607546Y-83157546D01*
X151693796Y-83042331D01*
X151744091Y-82907483D01*
X151750500Y-82847873D01*
X151750499Y-82591517D01*
X151770183Y-82524479D01*
X151786813Y-82503842D01*
X152437819Y-81852838D01*
X152499142Y-81819353D01*
X152568834Y-81824337D01*
G37*
%TD.AperFunction*%
%TA.AperFunction,Conductor*%
G36*
X116357941Y-78120185D02*
G01*
X116403696Y-78172989D01*
X116413640Y-78242147D01*
X116384615Y-78305703D01*
X116378583Y-78312181D01*
X115273530Y-79417233D01*
X115212207Y-79450718D01*
X115153756Y-79449327D01*
X115025413Y-79414938D01*
X115025403Y-79414936D01*
X114790001Y-79394341D01*
X114789999Y-79394341D01*
X114554596Y-79414936D01*
X114554586Y-79414938D01*
X114326344Y-79476094D01*
X114326335Y-79476098D01*
X114112171Y-79575964D01*
X114112169Y-79575965D01*
X113918600Y-79711503D01*
X113796673Y-79833430D01*
X113735350Y-79866914D01*
X113665658Y-79861930D01*
X113609725Y-79820058D01*
X113592810Y-79789081D01*
X113543797Y-79657671D01*
X113543793Y-79657664D01*
X113457547Y-79542455D01*
X113457544Y-79542452D01*
X113342335Y-79456206D01*
X113342328Y-79456202D01*
X113207482Y-79405908D01*
X113207483Y-79405908D01*
X113147883Y-79399501D01*
X113147881Y-79399500D01*
X113147873Y-79399500D01*
X113147864Y-79399500D01*
X111352129Y-79399500D01*
X111352123Y-79399501D01*
X111292516Y-79405908D01*
X111157671Y-79456202D01*
X111157664Y-79456206D01*
X111042455Y-79542452D01*
X111042452Y-79542455D01*
X110956206Y-79657664D01*
X110956202Y-79657671D01*
X110905908Y-79792517D01*
X110899501Y-79852116D01*
X110899500Y-79852135D01*
X110899500Y-80625500D01*
X110879815Y-80692539D01*
X110827011Y-80738294D01*
X110775500Y-80749500D01*
X106924500Y-80749500D01*
X106857461Y-80729815D01*
X106811706Y-80677011D01*
X106800500Y-80625500D01*
X106800499Y-80147155D01*
X107700000Y-80147155D01*
X107700000Y-80370000D01*
X108750000Y-80370000D01*
X109250000Y-80370000D01*
X110300000Y-80370000D01*
X110300000Y-80147172D01*
X110299999Y-80147155D01*
X110293598Y-80087627D01*
X110293596Y-80087620D01*
X110243354Y-79952913D01*
X110243350Y-79952906D01*
X110157190Y-79837812D01*
X110157187Y-79837809D01*
X110042093Y-79751649D01*
X110042086Y-79751645D01*
X109907379Y-79701403D01*
X109907372Y-79701401D01*
X109847844Y-79695000D01*
X109250000Y-79695000D01*
X109250000Y-80370000D01*
X108750000Y-80370000D01*
X108750000Y-79695000D01*
X108152155Y-79695000D01*
X108092627Y-79701401D01*
X108092620Y-79701403D01*
X107957913Y-79751645D01*
X107957906Y-79751649D01*
X107842812Y-79837809D01*
X107842809Y-79837812D01*
X107756649Y-79952906D01*
X107756645Y-79952913D01*
X107706403Y-80087620D01*
X107706401Y-80087627D01*
X107700000Y-80147155D01*
X106800499Y-80147155D01*
X106800499Y-80147129D01*
X106800498Y-80147123D01*
X106798348Y-80127123D01*
X106795299Y-80098757D01*
X106794091Y-80087516D01*
X106743797Y-79952671D01*
X106743793Y-79952664D01*
X106657547Y-79837455D01*
X106657544Y-79837452D01*
X106542335Y-79751206D01*
X106542328Y-79751202D01*
X106407482Y-79700908D01*
X106407483Y-79700908D01*
X106347883Y-79694501D01*
X106347881Y-79694500D01*
X106347873Y-79694500D01*
X106347865Y-79694500D01*
X105195519Y-79694500D01*
X105128480Y-79674815D01*
X105082725Y-79622011D01*
X105072781Y-79552853D01*
X105101806Y-79489297D01*
X105107838Y-79482819D01*
X106453838Y-78136819D01*
X106515161Y-78103334D01*
X106541519Y-78100500D01*
X116290902Y-78100500D01*
X116357941Y-78120185D01*
G37*
%TD.AperFunction*%
%TA.AperFunction,Conductor*%
G36*
X127610099Y-71278028D02*
G01*
X127655854Y-71330832D01*
X127665798Y-71399990D01*
X127636773Y-71463546D01*
X127630743Y-71470021D01*
X127104501Y-71996263D01*
X126582757Y-72518007D01*
X126470952Y-72629811D01*
X126470946Y-72629819D01*
X126428662Y-72703059D01*
X126428662Y-72703061D01*
X126391894Y-72766743D01*
X126391894Y-72766744D01*
X126350970Y-72919472D01*
X126350970Y-72919474D01*
X126350970Y-73087575D01*
X126350971Y-73087588D01*
X126350971Y-76651374D01*
X126331286Y-76718413D01*
X126314652Y-76739055D01*
X125815526Y-77238181D01*
X125754203Y-77271666D01*
X125727845Y-77274500D01*
X124353044Y-77274500D01*
X124312127Y-77285463D01*
X124312128Y-77285464D01*
X124275520Y-77295274D01*
X124243424Y-77299500D01*
X117940519Y-77299500D01*
X117873480Y-77279815D01*
X117827725Y-77227011D01*
X117817781Y-77157853D01*
X117846806Y-77094297D01*
X117852838Y-77087819D01*
X122553838Y-72386818D01*
X122615161Y-72353333D01*
X122641519Y-72350499D01*
X123847871Y-72350499D01*
X123847872Y-72350499D01*
X123907483Y-72344091D01*
X124042331Y-72293796D01*
X124157546Y-72207546D01*
X124243796Y-72092331D01*
X124294091Y-71957483D01*
X124300500Y-71897873D01*
X124300500Y-71382343D01*
X124320185Y-71315304D01*
X124372989Y-71269549D01*
X124424500Y-71258343D01*
X127543060Y-71258343D01*
X127610099Y-71278028D01*
G37*
%TD.AperFunction*%
%TD*%
M02*
